<svg width="113" height="34" viewBox="0 0 113 34" fill="none" xmlns="http://www.w3.org/2000/svg">
<g clip-path="url(#clip0_688_743)">
<path d="M1.16481 10.2642C1.93718 10.1612 3.1497 11.8162 3.61166 12.4522C5.43988 15.0463 7.47954 18.7759 8.62247 22.5704C9.07804 24.0821 9.4461 25.9771 8.73494 27.3656C8.10892 28.6089 6.65841 28.923 5.35036 28.6126C3.70305 28.2291 2.17814 27.1443 1.32945 25.684C0.351544 24.0604 0.265768 21.7923 0.233224 19.8032C0.222568 17.7334 0.192136 15.5168 0.257416 13.4656C0.303496 12.7357 0.347464 10.3807 1.16327 10.2644L1.16476 10.2641L1.16481 10.2642Z" fill="white"/>
<path d="M15.9656 6.00182C15.8696 5.5141 16.3651 5.45165 16.7534 5.43974C17.0985 5.43067 17.4737 5.43638 17.8078 5.43542C20.0305 5.3543 22.0426 6.25445 23.1342 8.16562C23.2552 8.37965 23.3576 8.67408 23.3122 8.89435C23.2661 9.17693 23.001 9.32904 22.738 9.39134C20.7896 9.86582 18.1269 9.3119 16.4192 6.86923C16.2149 6.5879 16.0262 6.3191 15.9662 6.00562L15.9655 6.00178L15.9656 6.00182Z" fill="white"/>
<path d="M23.2103 12.4604C24.0685 13.1863 21.759 14.4632 21.2253 14.8047C20.6631 15.1449 20.0763 15.5081 19.5152 15.8319C19.0498 16.0996 18.5942 16.3424 18.0966 16.5106C17.1325 16.85 16.1075 16.7752 15.2165 16.3516C14.565 16.0468 14.1056 15.5103 13.7195 14.9071C12.7045 13.316 11.6908 11.6489 10.5314 9.79813C10.0788 9.06935 9.69355 8.4525 9.31162 7.83728C9.01354 7.36079 8.69059 6.805 8.58571 6.46962C8.47392 6.15023 8.49451 5.84168 8.86013 5.67551C9.23894 5.50525 9.59117 5.47285 10.0913 5.41732C11.1027 5.33332 12.3021 5.38573 13.1541 5.8773C13.7676 6.24162 14.0817 6.86677 14.4454 7.46231C15.5885 9.47711 17.5619 11.4319 20.37 11.7432C21.2481 11.8761 22.6094 11.9925 23.2083 12.4586L23.2103 12.4603V12.4604Z" fill="white"/>
<path d="M23.577 17.1335C23.6526 17.2659 23.6951 17.4384 23.7054 17.6316C23.7242 18.0178 23.6237 18.4396 23.4436 18.7924C23.0606 19.574 22.3224 20.0384 21.6326 20.5694C20.1233 21.7355 18.7657 23.0045 17.5346 24.5674C17.2084 24.9816 16.9026 25.4149 16.6089 25.8534C16.1643 26.5078 15.7697 27.1546 15.1967 27.6411C14.8138 27.9672 14.3671 28.221 13.8802 28.3434C13.2188 28.5205 12.395 28.4125 11.9024 28.0296C11.7142 27.8837 11.6054 27.7055 11.5422 27.5024C11.487 27.3267 11.46 27.1325 11.4355 26.931C11.1025 23.7459 10.0494 19.2159 6.12125 13.3261C5.20373 11.9651 4.20466 10.6296 3.19066 9.40249C2.63386 8.70237 1.90954 8.0583 2.05364 7.19958C2.24141 6.26209 3.62679 5.65038 4.49429 5.64035C5.30194 5.63147 5.66847 6.3352 6.03053 6.95425C7.79324 9.93347 11.1 15.7315 13.2248 19.2422C13.6509 19.9077 14.388 20.2375 15.1334 20.4356C16.0553 20.6821 17.0809 20.7596 17.962 20.3381C18.5113 20.0788 19.0028 19.6948 19.4989 19.3161C20.0161 18.9127 20.5441 18.4912 21.0616 18.083C21.7149 17.5792 22.175 17.1877 22.779 16.9282C23.0754 16.808 23.4087 16.826 23.5757 17.1315L23.5769 17.1335H23.577Z" fill="black"/>
<path d="M23.577 17.1335C23.6526 17.2659 23.6951 17.4384 23.7054 17.6316C23.7242 18.0178 23.6237 18.4396 23.4436 18.7924C23.0606 19.574 22.3224 20.0384 21.6326 20.5694C20.1233 21.7355 18.7657 23.0045 17.5346 24.5674C17.2084 24.9816 16.9026 25.4149 16.6089 25.8534C16.1643 26.5078 15.7697 27.1546 15.1967 27.6411C14.8138 27.9672 14.3671 28.221 13.8802 28.3434C13.2188 28.5205 12.395 28.4125 11.9024 28.0296C11.7142 27.8837 11.6054 27.7055 11.5422 27.5024C11.487 27.3267 11.46 27.1325 11.4355 26.931C11.1025 23.7459 10.0494 19.2159 6.12125 13.3261C5.20373 11.9651 4.20466 10.6296 3.19066 9.40249C2.63386 8.70237 1.90954 8.0583 2.05364 7.19958C2.24141 6.26209 3.62679 5.65038 4.49429 5.64035C5.30194 5.63147 5.66847 6.3352 6.03053 6.95425C7.79324 9.93347 11.1 15.7315 13.2248 19.2422C13.6509 19.9077 14.388 20.2375 15.1334 20.4356C16.0553 20.6821 17.0809 20.7596 17.962 20.3381C18.5113 20.0788 19.0028 19.6948 19.4989 19.3161C20.0161 18.9127 20.5441 18.4912 21.0616 18.083C21.7149 17.5792 22.175 17.1877 22.779 16.9282C23.0754 16.808 23.4087 16.826 23.5757 17.1315L23.5769 17.1335H23.577Z" fill="white" stroke="white" stroke-width="0.0723014" stroke-miterlimit="10"/>
<path d="M22.8233 22.8381C23.2124 22.6575 23.4088 22.9026 23.4389 23.269C23.4342 25.1462 22.289 26.892 20.762 27.778C20.6266 27.8562 20.4786 27.9318 20.3316 27.9749C20.1954 28.0156 20.0619 28.0237 19.9541 27.9925C19.5633 27.8774 19.6396 27.4047 19.7411 27.1043C20.0115 26.0668 21.0457 24.3235 22.4145 23.1151C22.5499 22.9985 22.6885 22.8993 22.8189 22.8401L22.8233 22.8381V22.8381Z" fill="white"/>
</g>
<path d="M38.54 23.1C37.5267 23.1 36.62 22.86 35.82 22.38C35.02 21.8867 34.3867 21.22 33.92 20.38C33.4533 19.54 33.22 18.5933 33.22 17.54C33.22 16.4733 33.46 15.52 33.94 14.68C34.4333 13.84 35.1 13.18 35.94 12.7C36.78 12.2067 37.7267 11.96 38.78 11.96C39.82 11.96 40.7533 12.2067 41.58 12.7C42.42 13.18 43.08 13.84 43.56 14.68C44.0533 15.52 44.3067 16.4733 44.32 17.54L43.64 17.88C43.64 18.8667 43.4133 19.7533 42.96 20.54C42.52 21.3267 41.9133 21.9533 41.14 22.42C40.38 22.8733 39.5133 23.1 38.54 23.1ZM38.78 21.58C39.5267 21.58 40.1867 21.4067 40.76 21.06C41.3467 20.7 41.8067 20.2133 42.14 19.6C42.4867 18.9867 42.66 18.3 42.66 17.54C42.66 16.7667 42.4867 16.08 42.14 15.48C41.8067 14.8667 41.3467 14.38 40.76 14.02C40.1867 13.66 39.5267 13.48 38.78 13.48C38.0467 13.48 37.38 13.66 36.78 14.02C36.1933 14.38 35.7267 14.8667 35.38 15.48C35.0333 16.08 34.86 16.7667 34.86 17.54C34.86 18.3 35.0333 18.9867 35.38 19.6C35.7267 20.2133 36.1933 20.7 36.78 21.06C37.38 21.4067 38.0467 21.58 38.78 21.58ZM43.46 23C43.22 23 43.0133 22.9267 42.84 22.78C42.68 22.62 42.6 22.4133 42.6 22.16V18.86L42.98 17.12L44.32 17.54V22.16C44.32 22.4133 44.24 22.62 44.08 22.78C43.92 22.9267 43.7133 23 43.46 23ZM52.3356 23.1C51.2423 23.1 50.2756 22.8667 49.4356 22.4C48.5956 21.92 47.9356 21.26 47.4556 20.42C46.9756 19.58 46.7356 18.62 46.7356 17.54C46.7356 16.4467 46.9623 15.4867 47.4156 14.66C47.869 13.82 48.489 13.16 49.2756 12.68C50.0756 12.2 50.9956 11.96 52.0356 11.96C53.049 11.96 53.929 12.1933 54.6756 12.66C55.4356 13.1133 56.0156 13.7467 56.4156 14.56C56.829 15.3733 57.0356 16.3 57.0356 17.34C57.0356 17.5667 56.9623 17.7533 56.8156 17.9C56.669 18.0333 56.4823 18.1 56.2556 18.1H47.8956V16.72H56.3556L55.4956 17.32C55.509 16.5867 55.3756 15.9267 55.0956 15.34C54.8156 14.7533 54.4156 14.2933 53.8956 13.96C53.3756 13.6267 52.7556 13.46 52.0356 13.46C51.2756 13.46 50.609 13.6333 50.0356 13.98C49.4756 14.3267 49.0423 14.8133 48.7356 15.44C48.4423 16.0533 48.2956 16.7533 48.2956 17.54C48.2956 18.3267 48.469 19.0267 48.8156 19.64C49.1623 20.2533 49.6356 20.7333 50.2356 21.08C50.849 21.4267 51.549 21.6 52.3356 21.6C52.789 21.6 53.249 21.52 53.7156 21.36C54.1956 21.2 54.5756 21 54.8556 20.76C55.0156 20.64 55.1956 20.58 55.3956 20.58C55.609 20.5667 55.7823 20.62 55.9156 20.74C56.1156 20.9133 56.2156 21.1 56.2156 21.3C56.229 21.5 56.1423 21.6733 55.9556 21.82C55.5156 22.1933 54.9556 22.5 54.2756 22.74C53.5956 22.98 52.949 23.1 52.3356 23.1ZM63.8198 23C63.1265 23 62.5065 22.8333 61.9598 22.5C61.4132 22.1667 60.9798 21.7067 60.6598 21.12C60.3532 20.5333 60.1998 19.8733 60.1998 19.14V9.42C60.1998 9.18 60.2732 8.98 60.4198 8.82C60.5798 8.66 60.7865 8.58 61.0398 8.58C61.2798 8.58 61.4798 8.66 61.6398 8.82C61.7998 8.98 61.8798 9.18 61.8798 9.42V19.14C61.8798 19.7667 62.0598 20.2867 62.4198 20.7C62.7932 21.1133 63.2598 21.32 63.8198 21.32H64.4198C64.6332 21.32 64.8132 21.4 64.9598 21.56C65.1065 21.72 65.1798 21.92 65.1798 22.16C65.1798 22.4133 65.0865 22.62 64.8998 22.78C64.7265 22.9267 64.4998 23 64.2198 23H63.8198ZM59.0198 13.92C58.7932 13.92 58.6065 13.8533 58.4598 13.72C58.3132 13.5733 58.2398 13.4 58.2398 13.2C58.2398 12.9867 58.3132 12.8133 58.4598 12.68C58.6065 12.5333 58.7932 12.46 59.0198 12.46H63.9598C64.1865 12.46 64.3732 12.5333 64.5198 12.68C64.6665 12.8133 64.7398 12.9867 64.7398 13.2C64.7398 13.4 64.6665 13.5733 64.5198 13.72C64.3732 13.8533 64.1865 13.92 63.9598 13.92H59.0198ZM68.5467 18.68C68.2801 18.68 68.0667 18.6 67.9067 18.44C67.7601 18.28 67.6867 18.08 67.6867 17.84V8.24C67.6867 7.97333 67.7601 7.76667 67.9067 7.62C68.0667 7.46 68.2801 7.38 68.5467 7.38C68.8001 7.38 69.0001 7.46 69.1467 7.62C69.3067 7.76667 69.3867 7.97333 69.3867 8.24V17.84C69.3867 18.08 69.3067 18.28 69.1467 18.44C69.0001 18.6 68.8001 18.68 68.5467 18.68ZM77.0267 23C76.7734 23 76.5667 22.92 76.4067 22.76C76.2467 22.6 76.1667 22.4 76.1667 22.16V17.06C76.1667 16.2467 76.0134 15.5867 75.7067 15.08C75.4134 14.56 75.0067 14.1733 74.4867 13.92C73.9667 13.6533 73.3734 13.52 72.7067 13.52C72.0801 13.52 71.5134 13.6467 71.0067 13.9C70.5134 14.14 70.1201 14.4733 69.8267 14.9C69.5334 15.3133 69.3867 15.7933 69.3867 16.34H68.2267C68.2534 15.5 68.4734 14.7533 68.8867 14.1C69.3134 13.4333 69.8801 12.9067 70.5867 12.52C71.2934 12.1333 72.0801 11.94 72.9467 11.94C73.8801 11.94 74.7134 12.14 75.4467 12.54C76.1934 12.9267 76.7801 13.5 77.2067 14.26C77.6467 15.02 77.8667 15.9533 77.8667 17.06V22.16C77.8667 22.4 77.7867 22.6 77.6267 22.76C77.4667 22.92 77.2667 23 77.0267 23ZM68.5467 23C68.2801 23 68.0667 22.9267 67.9067 22.78C67.7601 22.62 67.6867 22.4133 67.6867 22.16V12.92C67.6867 12.6533 67.7601 12.4467 67.9067 12.3C68.0667 12.14 68.2801 12.06 68.5467 12.06C68.8001 12.06 69.0001 12.14 69.1467 12.3C69.3067 12.4467 69.3867 12.6533 69.3867 12.92V22.16C69.3867 22.4133 69.3067 22.62 69.1467 22.78C69.0001 22.9267 68.8001 23 68.5467 23ZM86.2809 23.1C85.1876 23.1 84.2209 22.8667 83.3809 22.4C82.5409 21.92 81.8809 21.26 81.4009 20.42C80.9209 19.58 80.6809 18.62 80.6809 17.54C80.6809 16.4467 80.9076 15.4867 81.3609 14.66C81.8143 13.82 82.4343 13.16 83.2209 12.68C84.0209 12.2 84.9409 11.96 85.9809 11.96C86.9943 11.96 87.8743 12.1933 88.6209 12.66C89.3809 13.1133 89.9609 13.7467 90.3609 14.56C90.7743 15.3733 90.9809 16.3 90.9809 17.34C90.9809 17.5667 90.9076 17.7533 90.7609 17.9C90.6143 18.0333 90.4276 18.1 90.2009 18.1H81.8409V16.72H90.3009L89.4409 17.32C89.4543 16.5867 89.3209 15.9267 89.0409 15.34C88.7609 14.7533 88.3609 14.2933 87.8409 13.96C87.3209 13.6267 86.7009 13.46 85.9809 13.46C85.2209 13.46 84.5543 13.6333 83.9809 13.98C83.4209 14.3267 82.9876 14.8133 82.6809 15.44C82.3876 16.0533 82.2409 16.7533 82.2409 17.54C82.2409 18.3267 82.4143 19.0267 82.7609 19.64C83.1076 20.2533 83.5809 20.7333 84.1809 21.08C84.7943 21.4267 85.4943 21.6 86.2809 21.6C86.7343 21.6 87.1943 21.52 87.6609 21.36C88.1409 21.2 88.5209 21 88.8009 20.76C88.9609 20.64 89.1409 20.58 89.3409 20.58C89.5543 20.5667 89.7276 20.62 89.8609 20.74C90.0609 20.9133 90.1609 21.1 90.1609 21.3C90.1743 21.5 90.0876 21.6733 89.9009 21.82C89.4609 22.1933 88.9009 22.5 88.2209 22.74C87.5409 22.98 86.8943 23.1 86.2809 23.1ZM94.3252 16.22C94.3518 15.4067 94.5585 14.68 94.9452 14.04C95.3452 13.3867 95.8652 12.8733 96.5052 12.5C97.1585 12.1267 97.8718 11.94 98.6452 11.94C99.3252 11.94 99.8385 12.04 100.185 12.24C100.545 12.44 100.678 12.7133 100.585 13.06C100.545 13.2467 100.458 13.38 100.325 13.46C100.205 13.54 100.058 13.58 99.8852 13.58C99.7252 13.58 99.5385 13.5667 99.3252 13.54C98.5385 13.4467 97.8385 13.5 97.2252 13.7C96.6252 13.8867 96.1452 14.2 95.7852 14.64C95.4252 15.08 95.2452 15.6067 95.2452 16.22H94.3252ZM94.4252 23C94.1585 23 93.9518 22.9267 93.8052 22.78C93.6585 22.6333 93.5852 22.4267 93.5852 22.16V12.9C93.5852 12.6333 93.6585 12.4267 93.8052 12.28C93.9518 12.1333 94.1585 12.06 94.4252 12.06C94.6918 12.06 94.8918 12.1333 95.0252 12.28C95.1718 12.4267 95.2452 12.6333 95.2452 12.9V22.16C95.2452 22.4267 95.1718 22.6333 95.0252 22.78C94.8918 22.9267 94.6918 23 94.4252 23ZM104.821 27.78C104.714 27.78 104.581 27.7467 104.421 27.68C103.928 27.4533 103.794 27.1 104.021 26.62L110.361 12.52C110.588 12.0533 110.941 11.9267 111.421 12.14C111.914 12.34 112.054 12.6867 111.841 13.18L105.461 27.26C105.328 27.6067 105.114 27.78 104.821 27.78ZM107.081 22.62C106.868 22.7267 106.668 22.7467 106.481 22.68C106.294 22.6133 106.141 22.4667 106.021 22.24L101.541 13.18C101.434 12.9533 101.414 12.7467 101.481 12.56C101.561 12.3733 101.708 12.2267 101.921 12.12C102.148 12.0267 102.354 12.0133 102.541 12.08C102.728 12.1467 102.874 12.2867 102.981 12.5L107.361 21.58C107.468 21.7933 107.501 22 107.461 22.2C107.434 22.3867 107.308 22.5267 107.081 22.62Z" fill="white"/>
<defs>
<clipPath id="clip0_688_743">
<rect width="24" height="24" fill="white" transform="translate(0 5)"/>
</clipPath>
</defs>
</svg>
