<svg width="1080" height="198" viewBox="0 0 1080 198" fill="none" xmlns="http://www.w3.org/2000/svg">
<mask id="path-1-outside-1_826_20" maskUnits="userSpaceOnUse" x="14" y="24" width="1066" height="279" fill="black">
<rect fill="white" x="14" y="24" width="1066" height="279"/>
<path d="M85.1084 237.071C72.0834 237.071 60.3966 233.859 50.048 227.436C39.6994 220.834 31.4919 212.002 25.4255 200.94C19.5375 189.699 16.5935 177.031 16.5935 162.935C16.5935 148.84 19.8051 136.172 26.2284 124.931C32.8301 113.69 41.6621 104.858 52.7244 98.4349C63.9651 91.8332 76.544 88.5324 90.4611 88.5324C104.378 88.5324 116.868 91.8332 127.93 98.4349C138.993 104.858 147.735 113.69 154.159 124.931C160.76 136.172 164.061 148.84 164.061 162.935H153.623C153.623 177.031 150.59 189.699 144.524 200.94C138.636 212.002 130.517 220.834 120.169 227.436C109.82 233.859 98.1333 237.071 85.1084 237.071ZM90.4611 212.983C99.5607 212.983 107.679 210.842 114.816 206.56C121.953 202.099 127.573 196.122 131.677 188.628C135.781 180.956 137.833 172.392 137.833 162.935C137.833 153.3 135.781 144.736 131.677 137.242C127.573 129.57 121.953 123.593 114.816 119.311C107.679 114.85 99.5607 112.62 90.4611 112.62C81.5399 112.62 73.4216 114.85 66.1062 119.311C58.9692 123.593 53.2596 129.57 48.9775 137.242C44.8737 144.736 42.8218 153.3 42.8218 162.935C42.8218 172.392 44.8737 180.956 48.9775 188.628C53.2596 196.122 58.9692 202.099 66.1062 206.56C73.4216 210.842 81.5399 212.983 90.4611 212.983ZM150.412 236.268C146.486 236.268 143.185 235.019 140.509 232.521C138.011 229.844 136.762 226.544 136.762 222.618V181.67L141.847 153.3L164.061 162.935V222.618C164.061 226.544 162.723 229.844 160.047 232.521C157.549 235.019 154.337 236.268 150.412 236.268ZM273.472 237.071C258.663 237.071 245.459 233.948 233.862 227.703C222.443 221.28 213.432 212.537 206.831 201.475C200.407 190.234 197.196 177.388 197.196 162.935C197.196 148.304 200.229 135.458 206.295 124.396C212.54 113.155 221.105 104.412 231.988 98.1673C242.872 91.744 255.362 88.5324 269.458 88.5324C283.375 88.5324 295.329 91.6548 305.321 97.8996C315.313 103.966 322.896 112.441 328.07 123.325C333.423 134.031 336.099 146.431 336.099 160.527C336.099 163.917 334.939 166.771 332.62 169.091C330.3 171.232 327.356 172.303 323.788 172.303H215.93V150.892H322.985L312.012 158.385C311.833 149.464 310.049 141.524 306.659 134.566C303.269 127.429 298.452 121.808 292.207 117.705C285.962 113.601 278.379 111.549 269.458 111.549C259.287 111.549 250.545 113.779 243.229 118.24C236.092 122.701 230.65 128.856 226.903 136.707C223.156 144.379 221.283 153.122 221.283 162.935C221.283 172.749 223.513 181.491 227.974 189.164C232.435 196.836 238.59 202.902 246.441 207.363C254.292 211.824 263.302 214.054 273.472 214.054C279.003 214.054 284.624 213.072 290.333 211.11C296.221 208.969 300.949 206.56 304.518 203.884C307.194 201.921 310.049 200.94 313.082 200.94C316.294 200.761 319.06 201.653 321.379 203.616C324.412 206.292 326.018 209.236 326.196 212.448C326.375 215.66 324.948 218.425 321.914 220.745C315.848 225.562 308.265 229.488 299.165 232.521C290.244 235.554 281.68 237.071 273.472 237.071ZM424.176 236C415.255 236 407.226 233.77 400.089 229.309C392.952 224.67 387.332 218.425 383.228 210.575C379.124 202.724 377.072 193.892 377.072 184.079V56.416C377.072 52.4906 378.321 49.279 380.819 46.7811C383.317 44.2831 386.529 43.0342 390.454 43.0342C394.38 43.0342 397.591 44.2831 400.089 46.7811C402.587 49.279 403.836 52.4906 403.836 56.416V184.079C403.836 191.216 405.799 197.193 409.724 202.01C413.649 206.828 418.467 209.236 424.176 209.236H433.276C436.488 209.236 439.164 210.485 441.305 212.983C443.625 215.481 444.784 218.693 444.784 222.618C444.784 226.544 443.268 229.755 440.235 232.253C437.38 234.751 433.633 236 428.994 236H424.176ZM364.761 117.972C361.014 117.972 357.981 116.902 355.662 114.761C353.342 112.62 352.182 109.943 352.182 106.732C352.182 103.163 353.342 100.308 355.662 98.1673C357.981 96.0262 361.014 94.9556 364.761 94.9556H426.585C430.332 94.9556 433.365 96.0262 435.685 98.1673C438.004 100.308 439.164 103.163 439.164 106.732C439.164 109.943 438.004 112.62 435.685 114.761C433.365 116.902 430.332 117.972 426.585 117.972H364.761ZM491.987 182.74C488.061 182.74 484.761 181.491 482.084 178.993C479.586 176.317 478.337 173.016 478.337 169.091V40.6254C478.337 36.5217 479.586 33.2208 482.084 30.7229C484.761 28.2249 488.061 26.976 491.987 26.976C496.091 26.976 499.391 28.2249 501.889 30.7229C504.387 33.2208 505.636 36.5217 505.636 40.6254V169.091C505.636 173.016 504.387 176.317 501.889 178.993C499.391 181.491 496.091 182.74 491.987 182.74ZM601.985 236.268C598.06 236.268 594.759 235.019 592.083 232.521C589.585 229.844 588.336 226.544 588.336 222.618V156.78C588.336 146.609 586.462 138.313 582.715 131.889C578.969 125.466 573.883 120.738 567.46 117.705C561.215 114.493 553.989 112.887 545.782 112.887C538.288 112.887 531.508 114.404 525.441 117.437C519.375 120.47 514.557 124.574 510.989 129.748C507.42 134.744 505.636 140.543 505.636 147.145H488.775C488.775 135.904 491.451 125.912 496.804 117.169C502.335 108.248 509.829 101.2 519.286 96.0262C528.742 90.8519 539.358 88.2647 551.134 88.2647C563.446 88.2647 574.419 90.9411 584.054 96.2938C593.867 101.468 601.539 109.14 607.07 119.311C612.78 129.481 615.635 141.97 615.635 156.78V222.618C615.635 226.544 614.297 229.844 611.62 232.521C609.122 235.019 605.911 236.268 601.985 236.268ZM491.987 236.268C488.061 236.268 484.761 235.019 482.084 232.521C479.586 229.844 478.337 226.544 478.337 222.618V103.252C478.337 99.1486 479.586 95.8477 482.084 93.3498C484.761 90.8519 488.061 89.6029 491.987 89.6029C496.091 89.6029 499.391 90.8519 501.889 93.3498C504.387 95.8477 505.636 99.1486 505.636 103.252V222.618C505.636 226.544 504.387 229.844 501.889 232.521C499.391 235.019 496.091 236.268 491.987 236.268ZM729.813 237.071C715.004 237.071 701.8 233.948 690.203 227.703C678.784 221.28 669.773 212.537 663.172 201.475C656.748 190.234 653.537 177.388 653.537 162.935C653.537 148.304 656.57 135.458 662.636 124.396C668.881 113.155 677.446 104.412 688.329 98.1673C699.213 91.744 711.703 88.5324 725.799 88.5324C739.716 88.5324 751.67 91.6548 761.662 97.8996C771.654 103.966 779.237 112.441 784.411 123.325C789.764 134.031 792.44 146.431 792.44 160.527C792.44 163.917 791.28 166.771 788.961 169.091C786.641 171.232 783.697 172.303 780.129 172.303H672.271V150.892H779.326L768.353 158.385C768.174 149.464 766.39 141.524 763 134.566C759.61 127.429 754.792 121.808 748.548 117.705C742.303 113.601 734.72 111.549 725.799 111.549C715.628 111.549 706.886 113.779 699.57 118.24C692.433 122.701 686.991 128.856 683.244 136.707C679.497 144.379 677.624 153.122 677.624 162.935C677.624 172.749 679.854 181.491 684.315 189.164C688.775 196.836 694.931 202.902 702.782 207.363C710.632 211.824 719.643 214.054 729.813 214.054C735.344 214.054 740.965 213.072 746.674 211.11C752.562 208.969 757.29 206.56 760.859 203.884C763.535 201.921 766.39 200.94 769.423 200.94C772.635 200.761 775.4 201.653 777.72 203.616C780.753 206.292 782.359 209.236 782.537 212.448C782.716 215.66 781.288 218.425 778.255 220.745C772.189 225.562 764.606 229.488 755.506 232.521C746.585 235.554 738.021 237.071 729.813 237.071ZM840.372 144.468C840.372 133.763 842.959 124.217 848.133 115.831C853.486 107.267 860.623 100.487 869.544 95.4909C878.466 90.495 888.279 87.9971 898.984 87.9971C909.69 87.9971 917.63 89.7813 922.804 93.3498C928.157 96.7399 930.209 100.844 928.96 105.661C928.424 108.159 927.354 110.122 925.748 111.549C924.321 112.798 922.626 113.601 920.663 113.958C918.7 114.315 916.559 114.225 914.24 113.69C902.82 111.371 892.561 111.192 883.461 113.155C874.362 115.118 867.136 118.775 861.783 124.128C856.609 129.481 854.021 136.261 854.021 144.468H840.372ZM840.64 236C836.357 236 833.057 234.929 830.737 232.788C828.418 230.469 827.258 227.079 827.258 222.618V102.985C827.258 98.7025 828.418 95.4017 830.737 93.0822C833.057 90.7626 836.357 89.6029 840.64 89.6029C845.1 89.6029 848.401 90.7626 850.542 93.0822C852.862 95.2233 854.021 98.5241 854.021 102.985V222.618C854.021 226.9 852.862 230.201 850.542 232.521C848.401 234.84 845.1 236 840.64 236ZM983.645 300.233C981.861 300.233 979.72 299.697 977.222 298.627C969.371 295.058 967.23 289.438 970.799 281.766L1052.43 97.3644C1056 89.8705 1061.62 87.7294 1069.29 90.9411C1077.32 94.3311 1079.55 99.9515 1075.98 107.802L994.083 291.936C991.942 297.467 988.463 300.233 983.645 300.233ZM1015.23 230.112C1011.84 231.539 1008.62 231.718 1005.59 230.647C1002.74 229.398 1000.42 227.079 998.633 223.689L937.344 107.267C935.56 103.877 935.292 100.665 936.541 97.632C937.969 94.4203 940.377 92.1008 943.767 90.6734C947.157 89.246 950.369 89.1568 953.402 90.4058C956.436 91.4763 958.755 93.7066 960.361 97.0967L1018.97 213.519C1020.76 216.909 1021.38 220.209 1020.85 223.421C1020.49 226.454 1018.62 228.685 1015.23 230.112Z"/>
</mask>
<path d="M50.048 227.436L48.9235 229.198L48.9344 229.205L48.9453 229.212L50.048 227.436ZM25.4255 200.94L23.5733 201.91L23.5825 201.928L23.5921 201.945L25.4255 200.94ZM26.2284 124.931L24.4254 123.872L24.4191 123.883L24.4129 123.894L26.2284 124.931ZM52.7244 98.4349L53.7743 100.243L53.7833 100.238L52.7244 98.4349ZM127.93 98.4349L126.859 100.23L126.869 100.237L126.88 100.243L127.93 98.4349ZM154.159 124.931L152.343 125.968L152.349 125.979L152.356 125.99L154.159 124.931ZM164.061 162.935V165.026H166.152V162.935H164.061ZM153.623 162.935V160.844H151.532V162.935H153.623ZM144.524 200.94L142.684 199.947L142.678 199.957L144.524 200.94ZM120.169 227.436L121.271 229.212L121.282 229.205L121.293 229.198L120.169 227.436ZM114.816 206.56L115.892 208.353L115.908 208.343L115.924 208.333L114.816 206.56ZM131.677 188.628L133.511 189.633L133.516 189.624L133.521 189.615L131.677 188.628ZM131.677 137.242L129.833 138.228L129.838 138.237L129.843 138.246L131.677 137.242ZM114.816 119.311L113.708 121.084L113.724 121.094L113.74 121.103L114.816 119.311ZM66.1062 119.311L67.182 121.103L67.1884 121.1L67.1947 121.096L66.1062 119.311ZM48.9775 137.242L47.1517 136.223L47.1476 136.23L47.1435 136.238L48.9775 137.242ZM48.9775 188.628L47.1337 189.615L47.1475 189.64L47.162 189.666L48.9775 188.628ZM66.1062 206.56L64.998 208.333L65.0237 208.349L65.0499 208.364L66.1062 206.56ZM140.509 232.521L138.981 233.947L139.03 234L139.082 234.049L140.509 232.521ZM136.762 181.67L134.704 181.301L134.671 181.484V181.67H136.762ZM141.847 153.3L142.679 151.382L140.255 150.331L139.789 152.931L141.847 153.3ZM164.061 162.935H166.152V161.563L164.893 161.017L164.061 162.935ZM160.047 232.521L161.525 233.999V233.999L160.047 232.521ZM85.1084 237.071V234.98C72.4449 234.98 61.1451 231.863 51.1507 225.659L50.048 227.436L48.9453 229.212C59.6482 235.855 71.7219 239.161 85.1084 239.161V237.071ZM50.048 227.436L51.1725 225.673C41.1285 219.265 33.1612 210.697 27.2588 199.934L25.4255 200.94L23.5921 201.945C29.8226 213.306 38.2703 222.402 48.9235 229.198L50.048 227.436ZM25.4255 200.94L27.2777 199.969C21.5632 189.06 18.6844 176.731 18.6844 162.935H16.5935H14.5025C14.5025 177.331 17.5117 190.338 23.5733 201.91L25.4255 200.94ZM16.5935 162.935H18.6844C18.6844 149.17 21.8168 136.865 28.0438 125.968L26.2284 124.931L24.4129 123.894C17.7933 135.478 14.5025 148.509 14.5025 162.935H16.5935ZM26.2284 124.931L28.0313 125.99C34.4543 115.053 43.0295 106.482 53.7743 100.243L52.7244 98.4349L51.6744 96.6267C40.2947 103.234 31.2058 112.327 24.4254 123.872L26.2284 124.931ZM52.7244 98.4349L53.7833 100.238C64.6812 93.8375 76.8902 90.6233 90.4611 90.6233V88.5323V86.4414C76.1978 86.4414 63.249 89.8289 51.6655 96.6319L52.7244 98.4349ZM90.4611 88.5323V90.6233C104.032 90.6233 116.146 93.8375 126.859 100.23L127.93 98.4349L129.002 96.6394C117.59 89.8289 104.724 86.4414 90.4611 86.4414V88.5323ZM127.93 98.4349L126.88 100.243C137.62 106.479 146.1 115.043 152.343 125.968L154.159 124.931L155.974 123.894C149.37 112.337 140.365 103.237 128.98 96.6267L127.93 98.4349ZM154.159 124.931L152.356 125.99C158.754 136.884 161.97 149.181 161.97 162.935H164.061H166.152C166.152 148.499 162.767 135.46 155.962 123.872L154.159 124.931ZM164.061 162.935V160.844H153.623V162.935V165.026H164.061V162.935ZM153.623 162.935H151.532C151.532 176.721 148.569 189.042 142.684 199.947L144.524 200.94L146.364 201.933C152.611 190.356 155.714 177.341 155.714 162.935H153.623ZM144.524 200.94L142.678 199.957C136.955 210.709 129.083 219.269 119.044 225.673L120.169 227.436L121.293 229.198C131.952 222.399 140.316 213.295 146.369 201.922L144.524 200.94ZM120.169 227.436L119.066 225.659C109.072 231.863 97.7719 234.98 85.1084 234.98V237.071V239.161C98.4948 239.161 110.569 235.855 121.271 229.212L120.169 227.436ZM90.4611 212.983V215.074C99.9032 215.074 108.4 212.848 115.892 208.353L114.816 206.56L113.74 204.767C106.958 208.836 99.2183 210.892 90.4611 210.892V212.983ZM114.816 206.56L115.924 208.333C123.37 203.68 129.238 197.436 133.511 189.633L131.677 188.628L129.843 187.624C125.909 194.809 120.536 200.519 113.708 204.787L114.816 206.56ZM131.677 188.628L133.521 189.615C137.801 181.613 139.924 172.705 139.924 162.935H137.833H135.742C135.742 172.078 133.761 180.299 129.833 187.642L131.677 188.628ZM137.833 162.935H139.924C139.924 152.995 137.804 144.077 133.511 136.238L131.677 137.242L129.843 138.246C133.758 145.395 135.742 153.606 135.742 162.935H137.833ZM131.677 137.242L133.521 136.256C129.247 128.266 123.368 122.003 115.892 117.518L114.816 119.311L113.74 121.103C120.538 125.182 125.899 130.874 129.833 138.228L131.677 137.242ZM114.816 119.311L115.924 117.537C108.428 112.852 99.9195 110.529 90.4611 110.529V112.62V114.711C99.202 114.711 106.93 116.848 113.708 121.084L114.816 119.311ZM90.4611 112.62V110.529C81.1724 110.529 72.6748 112.856 65.0176 117.525L66.1062 119.311L67.1947 121.096C74.1684 116.844 81.9073 114.711 90.4611 114.711V112.62ZM66.1062 119.311L65.0304 117.518C57.5625 121.998 51.6017 128.25 47.1517 136.223L48.9775 137.242L50.8032 138.261C54.9176 130.89 60.3759 125.187 67.182 121.103L66.1062 119.311ZM48.9775 137.242L47.1435 136.238C42.8506 144.077 40.7309 152.995 40.7309 162.935H42.8218H44.9127C44.9127 153.606 46.8968 145.395 50.8114 138.246L48.9775 137.242ZM42.8218 162.935H40.7309C40.7309 172.705 42.8539 181.613 47.1337 189.615L48.9775 188.628L50.8212 187.642C46.8936 180.299 44.9127 172.078 44.9127 162.935H42.8218ZM48.9775 188.628L47.162 189.666C51.611 197.451 57.5605 203.685 64.998 208.333L66.1062 206.56L67.2144 204.787C60.378 200.514 54.9082 194.793 50.7929 187.591L48.9775 188.628ZM66.1062 206.56L65.0499 208.364C72.7028 212.844 81.1889 215.074 90.4611 215.074V212.983V210.892C81.8909 210.892 74.1404 208.84 67.1625 204.756L66.1062 206.56ZM150.412 236.268V234.177C146.974 234.177 144.195 233.101 141.936 230.992L140.509 232.521L139.082 234.049C142.176 236.936 145.999 238.359 150.412 238.359V236.268ZM140.509 232.521L142.038 231.094C139.929 228.834 138.853 226.056 138.853 222.618H136.762H134.671C134.671 227.031 136.094 230.854 138.981 233.947L140.509 232.521ZM136.762 222.618H138.853V181.67H136.762H134.671V222.618H136.762ZM136.762 181.67L138.82 182.039L143.905 153.669L141.847 153.3L139.789 152.931L134.704 181.301L136.762 181.67ZM141.847 153.3L141.015 155.219L163.229 164.854L164.061 162.935L164.893 161.017L142.679 151.382L141.847 153.3ZM164.061 162.935H161.97V222.618H164.061H166.152V162.935H164.061ZM164.061 222.618H161.97C161.97 226.012 160.836 228.774 158.568 231.042L160.047 232.521L161.525 233.999C164.609 230.915 166.152 227.075 166.152 222.618H164.061ZM160.047 232.521L158.568 231.042C156.508 233.103 153.85 234.177 150.412 234.177V236.268V238.359C154.824 238.359 158.59 236.935 161.525 233.999L160.047 232.521ZM233.862 227.703L232.837 229.526L232.854 229.535L232.871 229.544L233.862 227.703ZM206.831 201.475L205.015 202.512L205.025 202.529L205.035 202.546L206.831 201.475ZM206.295 124.396L204.468 123.38L204.462 123.39L206.295 124.396ZM231.988 98.1673L233.029 99.9808L233.04 99.9745L233.051 99.968L231.988 98.1673ZM305.321 97.8996L304.213 99.6727L304.224 99.6799L304.236 99.6869L305.321 97.8996ZM328.07 123.325L326.182 124.223L326.19 124.242L326.2 124.26L328.07 123.325ZM332.62 169.091L334.038 170.627L334.069 170.599L334.098 170.569L332.62 169.091ZM215.93 172.303H213.839V174.393H215.93V172.303ZM215.93 150.892V148.801H213.839V150.892H215.93ZM322.985 150.892L324.164 152.618L329.754 148.801H322.985V150.892ZM312.012 158.385L309.921 158.427L309.999 162.292L313.191 160.112L312.012 158.385ZM306.659 134.566L304.77 135.463L304.775 135.472L304.779 135.482L306.659 134.566ZM243.229 118.24L242.141 116.455L242.131 116.461L242.121 116.467L243.229 118.24ZM226.903 136.707L228.782 137.624L228.786 137.616L228.79 137.608L226.903 136.707ZM227.974 189.164L226.166 190.215V190.215L227.974 189.164ZM246.441 207.363L247.474 205.545V205.545L246.441 207.363ZM290.333 211.11L291.013 213.087L291.03 213.081L291.048 213.075L290.333 211.11ZM304.518 203.884L303.281 202.198L303.272 202.204L303.263 202.211L304.518 203.884ZM313.082 200.94V203.031H313.14L313.198 203.027L313.082 200.94ZM321.379 203.616L322.762 202.048L322.746 202.034L322.73 202.02L321.379 203.616ZM326.196 212.448L328.284 212.332L326.196 212.448ZM321.914 220.745L320.644 219.084L320.629 219.095L320.614 219.107L321.914 220.745ZM299.165 232.521L298.504 230.537L298.492 230.541L299.165 232.521ZM273.472 237.071V234.98C258.965 234.98 246.11 231.924 234.853 225.862L233.862 227.703L232.871 229.544C244.809 235.973 258.361 239.161 273.472 239.161V237.071ZM233.862 227.703L234.887 225.881C223.78 219.633 215.038 211.147 208.626 200.403L206.831 201.475L205.035 202.546C211.827 213.927 221.105 222.927 232.837 229.526L233.862 227.703ZM206.831 201.475L208.646 200.438C202.424 189.548 199.287 177.067 199.287 162.935H197.196H195.105C195.105 177.708 198.391 190.92 205.015 202.512L206.831 201.475ZM197.196 162.935H199.287C199.287 148.599 202.257 136.109 208.129 125.401L206.295 124.396L204.462 123.39C198.201 134.807 195.105 148.01 195.105 162.935H197.196ZM206.295 124.396L208.123 125.411C214.188 114.494 222.484 106.031 233.029 99.9808L231.988 98.1673L230.948 96.3537C219.725 102.793 210.892 111.815 204.468 123.38L206.295 124.396ZM231.988 98.1673L233.051 99.968C243.577 93.756 255.692 90.6233 269.458 90.6233V88.5323V86.4414C255.032 86.4414 242.168 89.732 230.926 96.3665L231.988 98.1673ZM269.458 88.5323V90.6233C283.055 90.6233 294.609 93.6706 304.213 99.6727L305.321 97.8996L306.429 96.1265C296.049 89.6389 283.695 86.4414 269.458 86.4414V88.5323ZM305.321 97.8996L304.236 99.6869C313.867 105.535 321.177 113.695 326.182 124.223L328.07 123.325L329.958 122.427C324.615 111.187 316.758 102.397 306.406 96.1123L305.321 97.8996ZM328.07 123.325L326.2 124.26C331.384 134.628 334.008 146.698 334.008 160.527H336.099H338.19C338.19 146.164 335.462 133.433 329.94 122.39L328.07 123.325ZM336.099 160.527H334.008C334.008 163.383 333.054 165.699 331.141 167.612L332.62 169.091L334.098 170.569C336.824 167.843 338.19 164.45 338.19 160.527H336.099ZM332.62 169.091L331.202 167.555C329.319 169.292 326.904 170.212 323.788 170.212V172.303V174.393C327.808 174.393 331.281 173.172 334.038 170.627L332.62 169.091ZM323.788 172.303V170.212H215.93V172.303V174.393H323.788V172.303ZM215.93 172.303H218.021V150.892H215.93H213.839V172.303H215.93ZM215.93 150.892V152.983H322.985V150.892V148.801H215.93V150.892ZM322.985 150.892L321.806 149.165L310.833 156.659L312.012 158.385L313.191 160.112L324.164 152.618L322.985 150.892ZM312.012 158.385L314.102 158.344C313.919 149.165 312.08 140.92 308.539 133.65L306.659 134.566L304.779 135.482C308.018 142.129 309.748 149.763 309.921 158.427L312.012 158.385ZM306.659 134.566L308.548 133.669C305.003 126.207 299.938 120.284 293.355 115.957L292.207 117.705L291.058 119.452C296.965 123.333 301.535 128.651 304.77 135.463L306.659 134.566ZM292.207 117.705L293.355 115.957C286.708 111.589 278.707 109.458 269.458 109.458V111.549V113.64C278.051 113.64 285.216 115.613 291.058 119.452L292.207 117.705ZM269.458 111.549V109.458C258.976 109.458 249.841 111.76 242.141 116.455L243.229 118.24L244.318 120.025C251.248 115.799 259.599 113.64 269.458 113.64V111.549ZM243.229 118.24L242.121 116.467C234.635 121.146 228.929 127.609 225.016 135.806L226.903 136.707L228.79 137.608C232.372 130.103 237.549 124.256 244.337 120.013L243.229 118.24ZM226.903 136.707L225.025 135.789C221.119 143.787 219.192 152.851 219.192 162.935H221.283H223.374C223.374 153.392 225.194 144.971 228.782 137.624L226.903 136.707ZM221.283 162.935H219.192C219.192 173.078 221.501 182.19 226.166 190.215L227.974 189.164L229.782 188.113C225.526 180.793 223.374 172.419 223.374 162.935H221.283ZM227.974 189.164L226.166 190.215C230.816 198.212 237.242 204.541 245.408 209.181L246.441 207.363L247.474 205.545C239.939 201.264 234.053 195.459 229.782 188.113L227.974 189.164ZM246.441 207.363L245.408 209.181C253.612 213.842 262.986 216.145 273.472 216.145V214.054V211.963C263.617 211.963 254.971 209.805 247.474 205.545L246.441 207.363ZM273.472 214.054V216.145C279.255 216.145 285.105 215.118 291.013 213.087L290.333 211.11L289.654 209.132C284.143 211.027 278.752 211.963 273.472 211.963V214.054ZM290.333 211.11L291.048 213.075C297.057 210.889 301.988 208.395 305.772 205.556L304.518 203.884L303.263 202.211C299.911 204.725 295.385 207.048 289.619 209.145L290.333 211.11ZM304.518 203.884L305.754 205.57C308.108 203.844 310.536 203.031 313.082 203.031V200.94V198.849C309.562 198.849 306.281 199.998 303.281 202.198L304.518 203.884ZM313.082 200.94L313.198 203.027C315.911 202.877 318.143 203.616 320.028 205.212L321.379 203.616L322.73 202.02C319.976 199.69 316.677 198.646 312.966 198.852L313.082 200.94ZM321.379 203.616L319.996 205.184C322.723 207.591 323.969 210.047 324.109 212.564L326.196 212.448L328.284 212.332C328.067 208.426 326.101 204.994 322.762 202.048L321.379 203.616ZM326.196 212.448L324.109 212.564C324.241 214.948 323.246 217.094 320.644 219.084L321.914 220.745L323.184 222.406C326.649 219.756 328.509 216.371 328.284 212.332L326.196 212.448ZM321.914 220.745L320.614 219.107C314.778 223.742 307.425 227.563 298.504 230.537L299.165 232.521L299.826 234.504C309.105 231.412 316.918 227.383 323.215 222.382L321.914 220.745ZM299.165 232.521L298.492 230.541C289.756 233.511 281.42 234.98 273.472 234.98V237.071V239.161C281.94 239.161 290.732 237.597 299.838 234.5L299.165 232.521ZM400.089 229.309L398.95 231.062L398.965 231.072L398.981 231.082L400.089 229.309ZM383.228 210.575L381.375 211.543V211.543L383.228 210.575ZM400.089 46.7811L401.568 45.3026V45.3026L400.089 46.7811ZM409.724 202.01L411.345 200.689V200.689L409.724 202.01ZM441.305 212.983L439.718 214.344L439.745 214.376L439.773 214.406L441.305 212.983ZM440.235 232.253L438.905 230.639L438.881 230.659L438.858 230.68L440.235 232.253ZM355.662 114.761L354.243 116.297V116.297L355.662 114.761ZM355.662 98.1673L354.243 96.6308V96.6308L355.662 98.1673ZM435.685 98.1673L437.103 96.6308V96.6308L435.685 98.1673ZM435.685 114.761L437.103 116.297V116.297L435.685 114.761ZM424.176 236V233.909C415.623 233.909 407.982 231.776 401.197 227.536L400.089 229.309L398.981 231.082C406.471 235.763 414.888 238.091 424.176 238.091V236ZM400.089 229.309L401.229 227.556C394.406 223.121 389.025 217.152 385.081 209.606L383.228 210.575L381.375 211.543C385.638 219.699 391.499 226.219 398.95 231.062L400.089 229.309ZM383.228 210.575L385.081 209.606C381.15 202.085 379.163 193.592 379.163 184.079H377.072H374.982C374.982 194.192 377.099 203.362 381.375 211.543L383.228 210.575ZM377.072 184.079H379.163V56.416H377.072H374.982V184.079H377.072ZM377.072 56.416H379.163C379.163 52.9777 380.237 50.3201 382.298 48.2596L380.819 46.7811L379.341 45.3026C376.406 48.2379 374.982 52.0036 374.982 56.416H377.072ZM380.819 46.7811L382.298 48.2596C384.358 46.1991 387.016 45.1251 390.454 45.1251V43.0342V40.9433C386.042 40.9433 382.276 42.3672 379.341 45.3026L380.819 46.7811ZM390.454 43.0342V45.1251C393.893 45.1251 396.55 46.1991 398.611 48.2596L400.089 46.7811L401.568 45.3026C398.632 42.3672 394.867 40.9433 390.454 40.9433V43.0342ZM400.089 46.7811L398.611 48.2596C400.671 50.3201 401.745 52.9777 401.745 56.416H403.836H405.927C405.927 52.0036 404.503 48.2379 401.568 45.3026L400.089 46.7811ZM403.836 56.416H401.745V184.079H403.836H405.927V56.416H403.836ZM403.836 184.079H401.745C401.745 191.621 403.829 198.086 408.103 203.331L409.724 202.01L411.345 200.689C407.768 196.299 405.927 190.81 405.927 184.079H403.836ZM409.724 202.01L408.103 203.331C412.386 208.587 417.778 211.327 424.176 211.327V209.236V207.145C419.156 207.145 414.913 205.069 411.345 200.689L409.724 202.01ZM424.176 209.236V211.327H433.276V209.236V207.145H424.176V209.236ZM433.276 209.236V211.327C435.86 211.327 437.963 212.297 439.718 214.344L441.305 212.983L442.893 211.623C440.366 208.674 437.115 207.145 433.276 207.145V209.236ZM441.305 212.983L439.773 214.406C441.679 216.459 442.694 219.135 442.694 222.618H444.784H446.875C446.875 218.251 445.57 214.504 442.837 211.561L441.305 212.983ZM444.784 222.618H442.694C442.694 225.918 441.457 228.538 438.905 230.639L440.235 232.253L441.564 233.867C445.079 230.972 446.875 227.169 446.875 222.618H444.784ZM440.235 232.253L438.858 230.68C436.464 232.774 433.244 233.909 428.994 233.909V236V238.091C434.022 238.091 438.295 236.728 441.612 233.827L440.235 232.253ZM428.994 236V233.909H424.176V236V238.091H428.994V236ZM364.761 117.972V115.881C361.436 115.881 358.943 114.944 357.08 113.224L355.662 114.761L354.243 116.297C357.019 118.86 360.593 120.063 364.761 120.063V117.972ZM355.662 114.761L357.08 113.224C355.197 111.487 354.273 109.371 354.273 106.732H352.182H350.091C350.091 110.515 351.487 113.752 354.243 116.297L355.662 114.761ZM352.182 106.732H354.273C354.273 103.663 355.247 101.395 357.08 99.7037L355.662 98.1673L354.243 96.6308C351.437 99.2214 350.091 102.664 350.091 106.732H352.182ZM355.662 98.1673L357.08 99.7037C358.943 97.984 361.436 97.0465 364.761 97.0465V94.9556V92.8647C360.593 92.8647 357.019 94.0683 354.243 96.6308L355.662 98.1673ZM364.761 94.9556V97.0465H426.585V94.9556V92.8647H364.761V94.9556ZM426.585 94.9556V97.0465C429.911 97.0465 432.404 97.984 434.267 99.7037L435.685 98.1673L437.103 96.6308C434.327 94.0683 430.753 92.8647 426.585 92.8647V94.9556ZM435.685 98.1673L434.267 99.7037C436.099 101.395 437.073 103.663 437.073 106.732H439.164H441.255C441.255 102.664 439.909 99.2214 437.103 96.6308L435.685 98.1673ZM439.164 106.732H437.073C437.073 109.371 436.149 111.487 434.267 113.224L435.685 114.761L437.103 116.297C439.86 113.752 441.255 110.515 441.255 106.732H439.164ZM435.685 114.761L434.267 113.224C432.404 114.944 429.911 115.881 426.585 115.881V117.972V120.063C430.753 120.063 434.327 118.86 437.103 116.297L435.685 114.761ZM426.585 117.972V115.881H364.761V117.972V120.063H426.585V117.972ZM482.084 178.993L480.556 180.42L480.605 180.473L480.658 180.522L482.084 178.993ZM482.084 30.7229L480.658 29.1943L480.631 29.2189L480.606 29.2444L482.084 30.7229ZM501.889 178.993L503.368 180.472L503.393 180.446L503.418 180.42L501.889 178.993ZM592.083 232.521L590.554 233.947L590.603 234L590.656 234.049L592.083 232.521ZM582.716 131.889L580.909 132.943V132.943L582.716 131.889ZM567.46 117.705L566.504 119.564L566.535 119.58L566.567 119.595L567.46 117.705ZM525.441 117.437L524.506 115.567V115.567L525.441 117.437ZM510.989 129.748L512.69 130.964L512.7 130.95L512.71 130.935L510.989 129.748ZM505.636 147.145V149.236H507.727V147.145H505.636ZM488.775 147.145H486.684V149.236H488.775V147.145ZM496.804 117.169L495.027 116.068L495.021 116.078L496.804 117.169ZM519.286 96.0262L520.289 97.8604V97.8604L519.286 96.0262ZM584.054 96.2938L583.038 98.1216L583.058 98.1327L583.078 98.1434L584.054 96.2938ZM607.07 119.311L605.234 120.31L605.24 120.322L605.247 120.334L607.07 119.311ZM611.62 232.521L610.142 231.042V231.042L611.62 232.521ZM482.084 232.521L480.556 233.947L480.605 234L480.658 234.049L482.084 232.521ZM482.084 93.3498L480.658 91.8212L480.631 91.8458L480.606 91.8713L482.084 93.3498ZM501.889 232.521L503.368 233.999L503.393 233.974L503.418 233.947L501.889 232.521ZM491.987 182.74V180.649C488.549 180.649 485.771 179.574 483.511 177.465L482.084 178.993L480.658 180.522C483.751 183.409 487.574 184.831 491.987 184.831V182.74ZM482.084 178.993L483.613 177.567C481.504 175.307 480.428 172.529 480.428 169.091H478.337H476.246C476.246 173.504 477.669 177.327 480.556 180.42L482.084 178.993ZM478.337 169.091H480.428V40.6254H478.337H476.246V169.091H478.337ZM478.337 40.6254H480.428C480.428 36.9793 481.521 34.2436 483.563 32.2014L482.084 30.7229L480.606 29.2444C477.652 32.1981 476.246 36.0641 476.246 40.6254H478.337ZM482.084 30.7229L483.511 32.2515C485.771 30.1425 488.549 29.0669 491.987 29.0669V26.976V24.8851C487.574 24.8851 483.751 26.3074 480.658 29.1943L482.084 30.7229ZM491.987 26.976V29.0669C495.633 29.0669 498.369 30.1592 500.411 32.2014L501.889 30.7229L503.368 29.2444C500.414 26.2907 496.548 24.8851 491.987 24.8851V26.976ZM501.889 30.7229L500.411 32.2014C502.453 34.2436 503.545 36.9793 503.545 40.6254H505.636H507.727C507.727 36.0641 506.321 32.1981 503.368 29.2444L501.889 30.7229ZM505.636 40.6254H503.545V169.091H505.636H507.727V40.6254H505.636ZM505.636 169.091H503.545C503.545 172.529 502.47 175.307 500.361 177.567L501.889 178.993L503.418 180.42C506.305 177.327 507.727 173.504 507.727 169.091H505.636ZM501.889 178.993L500.411 177.515C498.369 179.557 495.633 180.649 491.987 180.649V182.74V184.831C496.548 184.831 500.414 183.426 503.368 180.472L501.889 178.993ZM601.985 236.268V234.177C598.548 234.177 595.769 233.101 593.509 230.992L592.083 232.521L590.656 234.049C593.749 236.936 597.572 238.359 601.985 238.359V236.268ZM592.083 232.521L593.611 231.094C591.502 228.834 590.427 226.056 590.427 222.618H588.336H586.245C586.245 227.031 587.667 230.854 590.554 233.947L592.083 232.521ZM588.336 222.618H590.427V156.78H588.336H586.245V222.618H588.336ZM588.336 156.78H590.427C590.427 146.37 588.511 137.675 584.522 130.836L582.716 131.889L580.909 132.943C584.414 138.95 586.245 146.849 586.245 156.78H588.336ZM582.716 131.889L584.522 130.836C580.572 124.066 575.177 119.036 568.353 115.814L567.46 117.705L566.567 119.595C572.59 122.439 577.365 126.867 580.909 132.943L582.716 131.889ZM567.46 117.705L568.417 115.845C561.83 112.458 554.266 110.796 545.782 110.796V112.887V114.978C553.713 114.978 560.601 116.528 566.504 119.564L567.46 117.705ZM545.782 112.887V110.796C537.998 110.796 530.892 112.374 524.506 115.567L525.441 117.437L526.376 119.307C532.123 116.434 538.578 114.978 545.782 114.978V112.887ZM525.441 117.437L524.506 115.567C518.15 118.745 513.052 123.074 509.268 128.561L510.989 129.748L512.71 130.935C516.063 126.074 520.6 122.196 526.376 119.307L525.441 117.437ZM510.989 129.748L509.288 128.533C505.446 133.911 503.545 140.142 503.545 147.145H505.636H507.727C507.727 140.944 509.395 135.578 512.69 130.964L510.989 129.748ZM505.636 147.145V145.054H488.775V147.145V149.236H505.636V147.145ZM488.775 147.145H490.866C490.866 136.251 493.455 126.644 498.587 118.261L496.804 117.169L495.021 116.078C489.448 125.18 486.684 135.557 486.684 147.145H488.775ZM496.804 117.169L498.581 118.271C503.917 109.665 511.141 102.866 520.289 97.8604L519.286 96.0262L518.282 94.1919C508.518 99.5346 500.754 106.831 495.027 116.068L496.804 117.169ZM519.286 96.0262L520.289 97.8604C529.41 92.8698 539.676 90.3556 551.134 90.3556V88.2647V86.1738C539.041 86.1738 528.074 88.834 518.282 94.1919L519.286 96.0262ZM551.134 88.2647V90.3556C563.133 90.3556 573.749 92.9609 583.038 98.1216L584.054 96.2938L585.069 94.466C575.089 88.9212 563.759 86.1738 551.134 86.1738V88.2647ZM584.054 96.2938L583.078 98.1434C592.511 103.117 599.89 110.485 605.234 120.31L607.07 119.311L608.907 118.312C603.188 107.796 595.223 99.8196 585.029 94.4442L584.054 96.2938ZM607.07 119.311L605.247 120.334C610.74 130.118 613.544 142.234 613.544 156.78H615.635H617.726C617.726 141.707 614.82 128.843 608.894 118.287L607.07 119.311ZM615.635 156.78H613.544V222.618H615.635H617.726V156.78H615.635ZM615.635 222.618H613.544C613.544 226.012 612.41 228.774 610.142 231.042L611.62 232.521L613.099 233.999C616.183 230.915 617.726 227.075 617.726 222.618H615.635ZM611.62 232.521L610.142 231.042C608.081 233.103 605.424 234.177 601.985 234.177V236.268V238.359C606.398 238.359 610.163 236.935 613.099 233.999L611.62 232.521ZM491.987 236.268V234.177C488.549 234.177 485.771 233.101 483.511 230.992L482.084 232.521L480.658 234.049C483.751 236.936 487.574 238.359 491.987 238.359V236.268ZM482.084 232.521L483.613 231.094C481.504 228.834 480.428 226.056 480.428 222.618H478.337H476.246C476.246 227.031 477.669 230.854 480.556 233.947L482.084 232.521ZM478.337 222.618H480.428V103.252H478.337H476.246V222.618H478.337ZM478.337 103.252H480.428C480.428 99.6062 481.521 96.8705 483.563 94.8283L482.084 93.3498L480.606 91.8713C477.652 94.825 476.246 98.691 476.246 103.252H478.337ZM482.084 93.3498L483.511 94.8784C485.771 92.7694 488.549 91.6938 491.987 91.6938V89.6029V87.512C487.574 87.512 483.751 88.9343 480.658 91.8212L482.084 93.3498ZM491.987 89.6029V91.6938C495.633 91.6938 498.369 92.7861 500.411 94.8283L501.889 93.3498L503.368 91.8713C500.414 88.9176 496.548 87.512 491.987 87.512V89.6029ZM501.889 93.3498L500.411 94.8283C502.453 96.8705 503.545 99.6062 503.545 103.252H505.636H507.727C507.727 98.691 506.321 94.825 503.368 91.8713L501.889 93.3498ZM505.636 103.252H503.545V222.618H505.636H507.727V103.252H505.636ZM505.636 222.618H503.545C503.545 226.056 502.47 228.834 500.361 231.094L501.889 232.521L503.418 233.947C506.305 230.854 507.727 227.031 507.727 222.618H505.636ZM501.889 232.521L500.411 231.042C498.369 233.084 495.633 234.177 491.987 234.177V236.268V238.359C496.548 238.359 500.414 236.953 503.368 233.999L501.889 232.521ZM690.203 227.703L689.178 229.526L689.195 229.535L689.212 229.544L690.203 227.703ZM663.172 201.475L661.356 202.512L661.366 202.529L661.376 202.546L663.172 201.475ZM662.636 124.396L660.809 123.38L660.803 123.39L662.636 124.396ZM688.329 98.1673L689.37 99.9808L689.381 99.9745L689.392 99.968L688.329 98.1673ZM761.662 97.8996L760.554 99.6727L760.565 99.6799L760.577 99.6869L761.662 97.8996ZM784.411 123.325L782.523 124.223L782.531 124.242L782.541 124.26L784.411 123.325ZM788.961 169.091L790.379 170.627L790.41 170.599L790.439 170.569L788.961 169.091ZM672.271 172.303H670.18V174.393H672.271V172.303ZM672.271 150.892V148.801H670.18V150.892H672.271ZM779.326 150.892L780.505 152.618L786.095 148.801H779.326V150.892ZM768.353 158.385L766.262 158.427L766.34 162.292L769.532 160.112L768.353 158.385ZM763 134.566L761.111 135.463L761.116 135.472L761.12 135.482L763 134.566ZM699.57 118.24L698.482 116.455L698.472 116.461L698.462 116.467L699.57 118.24ZM683.244 136.707L685.123 137.624L685.127 137.616L685.131 137.608L683.244 136.707ZM684.315 189.164L682.507 190.215V190.215L684.315 189.164ZM702.782 207.363L703.815 205.545V205.545L702.782 207.363ZM746.674 211.11L747.354 213.087L747.371 213.081L747.389 213.075L746.674 211.11ZM760.859 203.884L759.622 202.198L759.613 202.204L759.604 202.211L760.859 203.884ZM769.423 200.94V203.031H769.481L769.539 203.027L769.423 200.94ZM777.72 203.616L779.103 202.048L779.087 202.034L779.071 202.02L777.72 203.616ZM782.537 212.448L784.625 212.332L782.537 212.448ZM778.255 220.745L776.985 219.084L776.97 219.095L776.955 219.107L778.255 220.745ZM755.506 232.521L754.845 230.537L754.833 230.541L755.506 232.521ZM729.813 237.071V234.98C715.306 234.98 702.451 231.924 691.194 225.862L690.203 227.703L689.212 229.544C701.15 235.973 714.701 239.161 729.813 239.161V237.071ZM690.203 227.703L691.228 225.881C680.121 219.633 671.379 211.147 664.967 200.403L663.172 201.475L661.376 202.546C668.168 213.927 677.446 222.927 689.178 229.526L690.203 227.703ZM663.172 201.475L664.987 200.438C658.765 189.548 655.628 177.067 655.628 162.935H653.537H651.446C651.446 177.708 654.732 190.92 661.356 202.512L663.172 201.475ZM653.537 162.935H655.628C655.628 148.599 658.597 136.109 664.47 125.401L662.636 124.396L660.803 123.39C654.542 134.807 651.446 148.01 651.446 162.935H653.537ZM662.636 124.396L664.464 125.411C670.529 114.494 678.825 106.031 689.37 99.9808L688.329 98.1673L687.289 96.3537C676.066 102.793 667.233 111.815 660.809 123.38L662.636 124.396ZM688.329 98.1673L689.392 99.968C699.918 93.756 712.033 90.6233 725.799 90.6233V88.5323V86.4414C711.373 86.4414 698.509 89.732 687.267 96.3665L688.329 98.1673ZM725.799 88.5323V90.6233C739.396 90.6233 750.95 93.6706 760.554 99.6727L761.662 97.8996L762.77 96.1265C752.39 89.6389 740.036 86.4414 725.799 86.4414V88.5323ZM761.662 97.8996L760.577 99.6869C770.208 105.535 777.518 113.695 782.523 124.223L784.411 123.325L786.299 122.427C780.956 111.187 773.099 102.397 762.747 96.1123L761.662 97.8996ZM784.411 123.325L782.541 124.26C787.725 134.628 790.349 146.698 790.349 160.527H792.44H794.531C794.531 146.164 791.803 133.433 786.281 122.39L784.411 123.325ZM792.44 160.527H790.349C790.349 163.383 789.395 165.699 787.482 167.612L788.961 169.091L790.439 170.569C793.165 167.843 794.531 164.45 794.531 160.527H792.44ZM788.961 169.091L787.542 167.555C785.66 169.292 783.245 170.212 780.129 170.212V172.303V174.393C784.149 174.393 787.622 173.172 790.379 170.627L788.961 169.091ZM780.129 172.303V170.212H672.271V172.303V174.393H780.129V172.303ZM672.271 172.303H674.362V150.892H672.271H670.18V172.303H672.271ZM672.271 150.892V152.983H779.326V150.892V148.801H672.271V150.892ZM779.326 150.892L778.147 149.165L767.174 156.659L768.353 158.385L769.532 160.112L780.505 152.618L779.326 150.892ZM768.353 158.385L770.443 158.344C770.26 149.165 768.421 140.92 764.88 133.65L763 134.566L761.12 135.482C764.359 142.129 766.089 149.763 766.262 158.427L768.353 158.385ZM763 134.566L764.889 133.669C761.344 126.207 756.279 120.284 749.696 115.957L748.548 117.705L747.399 119.452C753.306 123.333 757.876 128.651 761.111 135.463L763 134.566ZM748.548 117.705L749.696 115.957C743.049 111.589 735.047 109.458 725.799 109.458V111.549V113.64C734.392 113.64 741.557 115.613 747.399 119.452L748.548 117.705ZM725.799 111.549V109.458C715.317 109.458 706.182 111.76 698.482 116.455L699.57 118.24L700.659 120.025C707.589 115.799 715.94 113.64 725.799 113.64V111.549ZM699.57 118.24L698.462 116.467C690.976 121.146 685.27 127.609 681.357 135.806L683.244 136.707L685.131 137.608C688.713 130.103 693.89 124.256 700.678 120.013L699.57 118.24ZM683.244 136.707L681.365 135.789C677.46 143.787 675.533 152.851 675.533 162.935H677.624H679.715C679.715 153.392 681.535 144.971 685.123 137.624L683.244 136.707ZM677.624 162.935H675.533C675.533 173.078 677.842 182.19 682.507 190.215L684.315 189.164L686.122 188.113C681.867 180.793 679.715 172.419 679.715 162.935H677.624ZM684.315 189.164L682.507 190.215C687.157 198.212 693.583 204.541 701.749 209.181L702.782 207.363L703.815 205.545C696.28 201.264 690.394 195.459 686.122 188.113L684.315 189.164ZM702.782 207.363L701.749 209.181C709.953 213.842 719.327 216.145 729.813 216.145V214.054V211.963C719.958 211.963 711.312 209.805 703.815 205.545L702.782 207.363ZM729.813 214.054V216.145C735.596 216.145 741.446 215.118 747.354 213.087L746.674 211.11L745.994 209.132C740.484 211.027 735.093 211.963 729.813 211.963V214.054ZM746.674 211.11L747.389 213.075C753.398 210.889 758.329 208.395 762.113 205.556L760.859 203.884L759.604 202.211C756.252 204.725 751.726 207.048 745.96 209.145L746.674 211.11ZM760.859 203.884L762.095 205.57C764.449 203.844 766.877 203.031 769.423 203.031V200.94V198.849C765.903 198.849 762.622 199.998 759.622 202.198L760.859 203.884ZM769.423 200.94L769.539 203.027C772.252 202.877 774.484 203.616 776.369 205.212L777.72 203.616L779.071 202.02C776.317 199.69 773.018 198.646 769.307 198.852L769.423 200.94ZM777.72 203.616L776.337 205.184C779.064 207.591 780.31 210.047 780.45 212.564L782.537 212.448L784.625 212.332C784.408 208.426 782.442 204.994 779.103 202.048L777.72 203.616ZM782.537 212.448L780.45 212.564C780.582 214.948 779.587 217.094 776.985 219.084L778.255 220.745L779.525 222.406C782.99 219.756 784.849 216.371 784.625 212.332L782.537 212.448ZM778.255 220.745L776.955 219.107C771.119 223.742 763.766 227.563 754.845 230.537L755.506 232.521L756.167 234.504C765.445 231.412 773.259 227.383 779.556 222.382L778.255 220.745ZM755.506 232.521L754.833 230.541C746.097 233.511 737.761 234.98 729.813 234.98V237.071V239.161C738.281 239.161 747.073 237.597 756.179 234.5L755.506 232.521ZM840.372 144.468H838.281V146.559H840.372V144.468ZM848.133 115.831L846.36 114.723L846.354 114.733L848.133 115.831ZM869.544 95.4909L868.523 93.6666V93.6666L869.544 95.4909ZM922.804 93.3498L921.617 95.0711L921.651 95.0943L921.685 95.1162L922.804 93.3498ZM928.96 105.661L926.936 105.136L926.924 105.179L926.915 105.223L928.96 105.661ZM925.748 111.549L927.125 113.123L927.131 113.117L927.137 113.112L925.748 111.549ZM920.663 113.958L920.289 111.901V111.901L920.663 113.958ZM914.24 113.69L914.71 111.653L914.683 111.647L914.656 111.641L914.24 113.69ZM861.783 124.128L860.304 122.649L860.292 122.662L860.279 122.675L861.783 124.128ZM854.021 144.468V146.559H856.112V144.468H854.021ZM830.737 232.788L829.259 234.267L829.288 234.296L829.319 234.325L830.737 232.788ZM830.737 93.0822L832.216 94.5607V94.5607L830.737 93.0822ZM850.542 93.0822L849.006 94.5004L849.062 94.5618L849.124 94.6186L850.542 93.0822ZM850.542 232.521L849.064 231.042L849.034 231.072L849.006 231.103L850.542 232.521ZM840.372 144.468H842.463C842.463 134.116 844.96 124.957 849.913 116.929L848.133 115.831L846.354 114.733C840.958 123.478 838.281 133.41 838.281 144.468H840.372ZM848.133 115.831L849.906 116.939C855.07 108.677 861.947 102.142 870.566 97.3152L869.544 95.4909L868.523 93.6666C859.299 98.832 851.902 105.857 846.36 114.723L848.133 115.831ZM869.544 95.4909L870.566 97.3152C879.16 92.5025 888.619 90.088 898.984 90.088V87.9971V85.9062C887.939 85.9062 877.771 88.4875 868.523 93.6666L869.544 95.4909ZM898.984 87.9971V90.088C909.532 90.088 916.961 91.8598 921.617 95.0711L922.804 93.3498L923.991 91.6285C918.299 87.7029 909.847 85.9062 898.984 85.9062V87.9971ZM922.804 93.3498L921.685 95.1162C924.157 96.682 925.684 98.2996 926.487 99.9052C927.267 101.465 927.445 103.172 926.936 105.136L928.96 105.661L930.984 106.186C931.723 103.333 931.499 100.579 930.228 98.0351C928.979 95.537 926.803 93.4076 923.923 91.5834L922.804 93.3498ZM928.96 105.661L926.915 105.223C926.455 107.37 925.573 108.907 924.359 109.986L925.748 111.549L927.137 113.112C929.135 111.336 930.394 108.948 931.004 106.099L928.96 105.661ZM925.748 111.549L924.371 109.976C923.243 110.962 921.9 111.608 920.289 111.901L920.663 113.958L921.037 116.015C923.351 115.594 925.398 114.634 927.125 113.123L925.748 111.549ZM920.663 113.958L920.289 111.901C918.655 112.198 916.805 112.136 914.71 111.653L914.24 113.69L913.769 115.728C916.313 116.315 918.746 116.432 921.037 116.015L920.663 113.958ZM914.24 113.69L914.656 111.641C903.023 109.278 892.464 109.074 883.021 111.111L883.461 113.155L883.902 115.199C892.658 113.31 902.618 113.463 913.823 115.739L914.24 113.69ZM883.461 113.155L883.021 111.111C873.618 113.139 866.001 116.953 860.304 122.649L861.783 124.128L863.261 125.606C868.271 120.597 875.105 117.096 883.902 115.199L883.461 113.155ZM861.783 124.128L860.279 122.675C854.688 128.459 851.93 135.779 851.93 144.468H854.021H856.112C856.112 136.742 858.529 130.503 863.286 125.581L861.783 124.128ZM854.021 144.468V142.377H840.372V144.468V146.559H854.021V144.468ZM840.64 236V233.909C836.693 233.909 833.968 232.926 832.155 231.252L830.737 232.788L829.319 234.325C832.145 236.933 836.022 238.091 840.64 238.091V236ZM830.737 232.788L832.216 231.31C830.412 229.507 829.349 226.729 829.349 222.618H827.258H825.167C825.167 227.429 826.423 231.431 829.259 234.267L830.737 232.788ZM827.258 222.618H829.349V102.985H827.258H825.167V222.618H827.258ZM827.258 102.985H829.349C829.349 99.0808 830.397 96.3789 832.216 94.5607L830.737 93.0822L829.259 91.6037C826.438 94.4245 825.167 98.3243 825.167 102.985H827.258ZM830.737 93.0822L832.216 94.5607C834.034 92.7424 836.736 91.6938 840.64 91.6938V89.6029V87.512C835.979 87.512 832.079 88.7829 829.259 91.6037L830.737 93.0822ZM840.64 89.6029V91.6938C844.763 91.6938 847.402 92.7625 849.006 94.5004L850.542 93.0822L852.078 91.6639C849.401 88.7628 845.437 87.512 840.64 87.512V89.6029ZM850.542 93.0822L849.124 94.6186C850.862 96.2227 851.93 98.8608 851.93 102.985H854.021H856.112C856.112 98.1874 854.862 94.2238 851.96 91.5458L850.542 93.0822ZM854.021 102.985H851.93V222.618H854.021H856.112V102.985H854.021ZM854.021 222.618H851.93C851.93 226.522 850.882 229.224 849.064 231.042L850.542 232.521L852.021 233.999C854.841 231.178 856.112 227.279 856.112 222.618H854.021ZM850.542 232.521L849.006 231.103C847.402 232.84 844.763 233.909 840.64 233.909V236V238.091C845.437 238.091 849.401 236.84 852.078 233.939L850.542 232.521ZM977.222 298.627L976.357 300.53L976.377 300.54L976.398 300.549L977.222 298.627ZM970.799 281.766L972.695 282.648L972.703 282.63L972.711 282.612L970.799 281.766ZM1052.43 97.3643L1050.54 96.4654L1050.53 96.4915L1050.52 96.518L1052.43 97.3643ZM1069.29 90.9411L1070.1 89.0148L1070.1 89.0123L1069.29 90.9411ZM1075.98 107.802L1074.08 106.937L1074.07 106.945L1074.07 106.952L1075.98 107.802ZM994.083 291.936L992.173 291.086L992.152 291.133L992.133 291.181L994.083 291.936ZM1015.23 230.112L1016.04 232.039V232.039L1015.23 230.112ZM1005.59 230.647L1004.75 232.563L1004.82 232.594L1004.9 232.619L1005.59 230.647ZM998.633 223.689L1000.48 222.715L1000.48 222.715L998.633 223.689ZM937.344 107.267L935.494 108.241L935.494 108.241L937.344 107.267ZM936.541 97.632L934.631 96.7828L934.619 96.8092L934.608 96.8359L936.541 97.632ZM943.767 90.6734L942.956 88.7464V88.7464L943.767 90.6734ZM953.402 90.4058L952.606 92.3392L952.656 92.3596L952.706 92.3775L953.402 90.4058ZM960.361 97.0967L958.471 97.9918L958.482 98.0145L958.493 98.0369L960.361 97.0967ZM1018.97 213.519L1017.11 214.459L1017.11 214.476L1017.12 214.492L1018.97 213.519ZM1020.85 223.421L1018.78 223.077L1018.78 223.127L1018.77 223.177L1020.85 223.421ZM983.645 300.233V298.142C982.253 298.142 980.406 297.717 978.046 296.705L977.222 298.627L976.398 300.549C979.034 301.678 981.469 302.324 983.645 302.324V300.233ZM977.222 298.627L978.087 296.723C974.445 295.068 972.485 293.099 971.682 290.991C970.883 288.893 971.05 286.184 972.695 282.648L970.799 281.766L968.903 280.884C966.979 285.02 966.432 288.957 967.774 292.48C969.112 295.992 972.148 298.618 976.357 300.53L977.222 298.627ZM970.799 281.766L972.711 282.612L1054.34 98.2107L1052.43 97.3643L1050.52 96.518L968.887 280.919L970.799 281.766ZM1052.43 97.3643L1054.32 98.2633C1055.96 94.815 1057.92 92.9083 1060.06 92.0921C1062.21 91.2755 1064.95 91.3909 1068.48 92.8698L1069.29 90.9411L1070.1 89.0123C1065.96 87.2796 1062.05 86.8597 1058.58 88.1842C1055.1 89.5091 1052.47 92.4198 1050.54 96.4654L1052.43 97.3643ZM1069.29 90.9411L1068.48 92.8673C1072.2 94.4412 1074.21 96.3739 1075.04 98.4701C1075.87 100.561 1075.73 103.305 1074.08 106.937L1075.98 107.802L1077.88 108.667C1079.8 104.448 1080.33 100.458 1078.93 96.9277C1077.53 93.4035 1074.4 90.831 1070.1 89.0148L1069.29 90.9411ZM1075.98 107.802L1074.07 106.952L992.173 291.086L994.083 291.936L995.994 292.786L1077.89 108.652L1075.98 107.802ZM994.083 291.936L992.133 291.181C991.153 293.712 989.934 295.435 988.567 296.522C987.229 297.585 985.624 298.142 983.645 298.142V300.233V302.324C986.484 302.324 989.027 301.497 991.169 299.795C993.281 298.117 994.872 295.691 996.033 292.691L994.083 291.936ZM1015.23 230.112L1014.41 228.185C1011.43 229.442 1008.76 229.548 1006.29 228.676L1005.59 230.647L1004.9 232.619C1008.49 233.888 1012.24 233.637 1016.04 232.039L1015.23 230.112ZM1005.59 230.647L1006.43 228.732C1004.1 227.713 1002.1 225.784 1000.48 222.715L998.633 223.689L996.783 224.663C998.736 228.373 1001.37 231.083 1004.75 232.563L1005.59 230.647ZM998.633 223.689L1000.48 222.715L939.194 106.293L937.344 107.267L935.494 108.241L996.783 224.663L998.633 223.689ZM937.344 107.267L939.194 106.293C937.645 103.349 937.502 100.789 938.475 98.4281L936.541 97.632L934.608 96.8359C933.082 100.541 933.475 104.405 935.494 108.241L937.344 107.267ZM936.541 97.632L938.452 98.4812C939.652 95.78 941.654 93.8321 944.579 92.6005L943.767 90.6734L942.956 88.7464C939.101 90.3696 936.285 93.0607 934.631 96.7828L936.541 97.632ZM943.767 90.6734L944.579 92.6005C947.523 91.3606 950.153 91.329 952.606 92.3392L953.402 90.4058L954.198 88.4724C950.585 86.9846 946.792 87.1315 942.956 88.7464L943.767 90.6734ZM953.402 90.4058L952.706 92.3775C955.127 93.2317 957.061 95.0148 958.471 97.9918L960.361 97.0967L962.25 96.2016C960.449 92.3984 957.744 89.721 954.098 88.4341L953.402 90.4058ZM960.361 97.0967L958.493 98.0369L1017.11 214.459L1018.97 213.519L1020.84 212.578L962.228 96.1565L960.361 97.0967ZM1018.97 213.519L1017.12 214.492C1018.73 217.552 1019.23 220.392 1018.78 223.077L1020.85 223.421L1022.91 223.765C1023.53 220.027 1022.78 216.265 1020.82 212.545L1018.97 213.519ZM1020.85 223.421L1018.77 223.177C1018.52 225.297 1017.28 226.979 1014.41 228.185L1015.23 230.112L1016.04 232.039C1019.95 230.39 1022.46 227.611 1022.92 223.665L1020.85 223.421Z" fill="#E2DED3" mask="url(#path-1-outside-1_826_20)"/>
</svg>
