<svg width="1440" height="1024" viewBox="0 0 1440 1024" fill="none" xmlns="http://www.w3.org/2000/svg">
<path d="M2163.11 336.6C2160.3 301.435 2156.58 266.344 2152.06 231.359C2149.82 213.97 2147.38 196.606 2144.75 179.27C2142.16 162.148 2139.81 144.871 2136.32 127.906C2133.3 113.271 2128.62 98.0122 2118.4 86.7187C2109.61 77.0006 2097.38 70.8472 2084.7 68.012C2077.44 66.3891 2069.95 65.8544 2062.54 65.5025C2054.38 65.115 2046.2 65.1656 2038.06 65.7092C2021.77 66.7958 2005.48 69.7467 1990.18 75.5385C1964.66 85.1983 1942.11 101.593 1926.7 124.268C1917.6 137.844 1911 152.708 1903.83 167.333C1898.19 178.849 1891.97 190.075 1885.28 201.015C1871.26 223.94 1855.24 245.603 1837.94 266.144C1819.76 287.721 1800.18 308.098 1779.66 327.454C1758.63 347.299 1736.6 366.076 1713.84 383.909C1691.16 401.685 1667.72 418.499 1643.71 434.432C1620.45 449.866 1596.63 464.467 1572.32 478.175C1549.85 490.838 1526.96 502.748 1503.62 513.71C1483.63 523.093 1463.15 531.324 1442.69 539.603C1421.67 548.111 1400.65 556.667 1380.18 566.451C1360.36 575.926 1340.98 586.578 1323.27 599.64C1306.11 612.296 1290.62 627.173 1278.51 644.797C1265.75 663.374 1257.29 684.664 1253.25 706.81C1250.1 724.049 1249.09 741.842 1250.93 759.289C1252.48 774.098 1256.07 788.555 1261.91 802.261C1267.47 815.307 1275.02 827.367 1284.03 838.299C1293.36 849.614 1304.23 859.528 1315.93 868.331C1328.49 877.777 1342.04 885.851 1356.07 892.896C1371.33 900.554 1387.17 907.036 1403.27 912.672C1420.47 918.692 1438 923.744 1455.69 928.116C1474.38 932.735 1493.25 936.595 1512.21 939.915C1531.94 943.371 1551.78 946.237 1571.66 948.697C1591.76 951.184 1611.91 953.238 1632.09 954.985C1652.16 956.722 1672.24 958.153 1692.34 959.38C1711.88 960.572 1731.43 961.57 1750.98 962.466C1769.51 963.314 1788.04 964.069 1806.57 964.828C1823.61 965.526 1840.65 966.225 1857.68 967.052C1872.75 967.784 1887.82 968.618 1902.87 969.722C1933.56 971.974 1965.7 971.194 1995.54 963.011C2018.05 956.836 2039.01 946.018 2057.09 931.266C2074.51 917.056 2088.93 899.409 2100.66 880.289C2112.88 860.369 2122.27 838.771 2129.77 816.673C2137.45 794.073 2143.14 770.83 2147.57 747.39C2153.43 716.452 2157.42 685.107 2160.72 653.805C2164.41 618.744 2166.85 583.553 2168.14 548.322C2169.43 513.039 2169.57 477.716 2168.7 442.421C2167.82 407.105 2165.92 371.815 2163.11 336.6ZM2161.37 563.64C2159.76 598.52 2157.02 633.35 2153.02 668.039C2149.62 697.445 2145.64 726.885 2139.66 755.89C2134.89 779.03 2128.8 801.946 2120.65 824.134C2112.79 845.525 2102.91 866.279 2090.21 885.236C2077.96 903.51 2062.87 920.087 2044.92 932.903C2025.93 946.468 2004.21 955.529 1981.34 960.051C1952.99 965.656 1924.01 964.996 1895.34 963.054C1880.06 962.019 1864.76 961.235 1849.46 960.527C1832.31 959.734 1815.15 959.045 1798 958.342C1779.46 957.581 1760.91 956.808 1742.37 955.929C1722.99 955.01 1703.61 953.976 1684.24 952.739C1664.29 951.464 1644.36 949.976 1624.45 948.173C1604.48 946.365 1584.54 944.241 1564.66 941.677C1545.21 939.169 1525.82 936.219 1506.53 932.691C1487.97 929.295 1469.49 925.357 1451.21 920.66C1433.85 916.199 1416.66 911.055 1399.81 904.939C1384.25 899.29 1368.98 892.794 1354.31 885.108C1340.84 878.047 1327.79 870.001 1315.83 860.573C1304.68 851.779 1294.36 841.81 1285.65 830.568C1277.32 819.818 1270.43 807.822 1265.59 795.122C1260.43 781.58 1257.44 767.278 1256.51 752.823C1255.33 734.469 1257 715.748 1261.43 697.901C1266.63 676.934 1276.1 657.15 1289.48 640.161C1302.48 623.639 1318.58 609.831 1336.01 598.165C1354.27 585.943 1373.9 575.897 1393.87 566.811C1414.22 557.553 1435.01 549.309 1455.72 540.903C1476.3 532.555 1496.72 523.914 1516.71 514.241C1540.01 502.963 1562.88 490.769 1585.31 477.828C1609.31 463.976 1632.82 449.258 1655.77 433.718C1679.33 417.764 1702.3 400.932 1724.56 383.204C1746.94 365.38 1768.59 346.623 1789.24 326.808C1809.34 307.517 1828.5 287.216 1846.24 265.731C1863.13 245.274 1878.8 223.749 1892.46 200.99C1898.68 190.635 1904.48 180.025 1909.75 169.159C1916.65 154.933 1923.17 140.542 1931.99 127.364C1947.94 103.909 1972.43 87.2893 1999.34 78.8511C2014.85 73.9869 2031.09 71.788 2047.31 71.4361C2061.89 71.1199 2077.34 71.3914 2091.24 76.2509C2103.36 80.488 2113.99 88.5281 2120.33 99.81C2128.29 113.997 2130.74 130.591 2133.37 146.408C2139.07 180.82 2144.08 215.351 2148.26 249.982C2152.45 284.691 2155.84 319.5 2158.32 354.374C2160.78 389.119 2162.35 423.93 2162.9 458.759C2163.45 493.723 2162.98 528.707 2161.37 563.64Z" fill="#E2DED3" fill-opacity="0.023"/>
<path d="M2224.08 146.886C2221.32 125.432 2218.33 104.006 2215.14 82.611C2212.01 61.6194 2209.1 40.495 2205.07 19.6556C2201.6 1.7787 2196.35 -16.9589 2184.48 -31.2136C2174.25 -43.5038 2159.46 -51.3058 2144.09 -55.0752C2135.57 -57.1649 2126.8 -57.9353 2118.06 -58.4246C2107.92 -58.9931 2097.73 -58.9835 2087.59 -58.361C2067.72 -57.142 2047.85 -53.7004 2029.03 -47.1508C2012.99 -41.5724 1997.51 -32.9719 1983.94 -22.8121C1970.61 -12.8245 1959.03 -0.904846 1949.66 12.881C1938.47 29.571 1930.39 47.874 1921.55 65.846C1914.74 79.7079 1907.2 93.2129 1899.1 106.361C1881.95 134.18 1862.3 160.397 1841.07 185.219C1818.86 211.194 1794.93 235.681 1769.9 258.94C1744.2 282.82 1717.32 305.415 1689.61 326.932C1661.84 348.5 1633.21 368.96 1603.97 388.478C1575.82 407.266 1547.08 425.171 1517.85 442.227C1490.68 458.086 1463.07 473.214 1435.05 487.545C1423.1 493.659 1410.42 498.364 1397.93 503.291C1385.21 508.313 1372.44 513.221 1359.7 518.188C1333.78 528.289 1307.92 538.627 1282.77 550.548C1258.37 562.116 1234.55 575.21 1212.79 591.267C1191.67 606.85 1172.6 625.208 1157.73 646.924C1142.16 669.651 1131.84 695.648 1126.95 722.725C1123.12 743.924 1121.39 765.776 1123.32 787.272C1124.93 805.121 1128.98 822.725 1135.87 839.288C1142.51 855.257 1151.51 870.026 1162.45 883.414C1173.67 897.144 1186.8 909.173 1200.94 919.821C1216.1 931.231 1232.47 940.971 1249.42 949.463C1267.95 958.749 1287.2 966.586 1306.77 973.396C1327.73 980.691 1349.1 986.802 1370.65 992.091C1393.55 997.71 1416.67 1002.4 1439.89 1006.43C1463.99 1010.62 1488.2 1014.1 1512.47 1017.09C1537.04 1020.12 1561.68 1022.64 1586.35 1024.79C1610.99 1026.95 1635.65 1028.74 1660.33 1030.31C1684.24 1031.82 1708.16 1033.12 1732.09 1034.32C1754.77 1035.46 1777.46 1036.51 1800.14 1037.6C1821.01 1038.6 1841.88 1039.63 1862.73 1040.87C1881.2 1041.96 1899.67 1043.2 1918.1 1044.86C1938 1046.65 1958.39 1046.61 1978.32 1045.39C1995.85 1044.32 2013.54 1042.07 2030.59 1037.78C2058.24 1030.81 2084.09 1018.09 2106.46 1000.41C2128 983.393 2145.87 962.068 2160.4 938.853C2175.54 914.666 2187.17 888.36 2196.41 861.401C2205.9 833.713 2212.86 805.194 2218.15 776.422C2221.11 760.258 2223.56 743.983 2226.08 727.744C2229.39 706.367 2232.26 684.92 2234.69 663.426C2239.55 620.622 2242.68 577.628 2244.32 534.583C2245.96 491.45 2246.1 448.264 2244.94 405.118C2243.78 361.913 2241.32 318.746 2237.78 275.672C2234.24 232.642 2229.61 189.705 2224.08 146.886ZM2237.47 551.352C2235.47 593.88 2231.97 636.343 2226.77 678.601C2224.15 699.853 2221.09 721.051 2217.59 742.174C2215.18 756.657 2213.04 771.157 2210.17 785.561C2204.51 813.92 2197.13 841.994 2187.17 869.155C2177.5 895.487 2165.3 921.021 2149.56 944.281C2134.45 966.602 2115.84 986.776 2093.73 1002.31C2070.39 1018.72 2043.7 1029.56 2015.68 1034.76C1980.96 1041.22 1945.25 1040.97 1910.18 1038.04C1891.5 1036.48 1872.78 1035.29 1854.06 1034.23C1833.07 1033.04 1812.07 1032.03 1791.08 1031.03C1768.37 1029.95 1745.66 1028.89 1722.95 1027.72C1699.09 1026.5 1675.24 1025.16 1651.4 1023.59C1626.96 1021.99 1602.54 1020.14 1578.15 1017.93C1553.69 1015.71 1529.27 1013.12 1504.91 1010.01C1481.09 1006.96 1457.33 1003.4 1433.69 999.132C1410.87 995.013 1388.16 990.238 1365.68 984.529C1344.47 979.143 1323.46 972.928 1302.87 965.523C1283.86 958.69 1265.21 950.827 1247.29 941.499C1230.92 932.978 1215.07 923.252 1200.55 911.843C1186.98 901.187 1174.42 889.078 1163.87 875.409C1153.71 862.254 1145.36 847.554 1139.55 832.008C1133.37 815.472 1129.92 798.024 1128.96 780.41C1127.74 758.016 1130.02 734.97 1135.2 713.172C1141.38 687.129 1152.92 662.663 1169.25 641.441C1184.93 621.06 1204.58 603.972 1225.79 589.557C1248.12 574.371 1272.22 561.921 1296.79 550.786C1321.83 539.435 1347.47 529.47 1373.1 519.528C1385.65 514.659 1398.21 509.798 1410.7 504.771C1416.81 502.312 1422.9 499.811 1428.97 497.25C1435.68 494.416 1442.1 490.832 1448.56 487.469C1476.58 472.881 1504.2 457.506 1531.37 441.393C1560.43 424.163 1588.99 406.088 1616.95 387.123C1645.76 367.585 1673.92 347.094 1701.26 325.553C1728.57 304.036 1755.05 281.443 1780.33 257.568C1804.91 234.357 1828.37 209.921 1850.11 184.011C1870.8 159.339 1889.98 133.321 1906.65 105.756C1914.26 93.1779 1921.35 80.2756 1927.77 67.0505C1936.21 49.6713 1944.16 32.074 1954.96 15.977C1974.53 -12.8059 2005.53 -33.9882 2038.76 -43.8454C2057.9 -49.5217 2077.84 -52.2248 2097.78 -52.6454C2115.57 -53.0211 2134.35 -52.5874 2151.27 -46.5191C2166.2 -41.17 2179.22 -31.1382 2186.7 -16.9902C2195.97 0.566106 2199.12 20.1881 2202.26 39.5674C2209.11 81.7527 2215.22 124.059 2220.41 166.48C2225.62 209.022 2229.92 251.679 2233.12 294.421C2236.32 337.188 2238.41 380.04 2239.21 422.92C2240 465.734 2239.49 508.577 2237.47 551.352Z" fill="#E2DED3" fill-opacity="0.023"/>
<path d="M2079.99 316.735C2078.21 303.101 2076.28 289.486 2074.2 275.894C2072.19 262.698 2070.47 249.308 2067.54 236.278C2065.03 225.117 2061.12 213.666 2053 205.296C2045.87 197.953 2036.23 193.357 2026.28 191.333C2014.37 188.909 2001.58 188.944 1989.51 189.863C1977.2 190.8 1964.92 193.099 1953.36 197.496C1933.4 205.086 1915.8 217.908 1903.73 235.654C1896.62 246.301 1891.45 257.947 1885.83 269.404C1881.38 278.446 1876.48 287.26 1871.21 295.844C1860.3 313.622 1847.85 330.42 1834.4 346.35C1805.63 380.428 1772.49 410.744 1737.39 438.175C1702.62 465.349 1665.62 489.762 1627.15 511.372C1609.74 521.152 1592 530.352 1573.91 538.815C1558.26 546.138 1542.2 552.543 1526.19 559.027C1494.1 572.023 1461.2 585.218 1433.3 606.151C1420.05 616.088 1408.14 627.729 1398.86 641.499C1389 656.122 1382.55 672.866 1379.54 690.22C1375.24 715.028 1376.71 740.916 1386.73 764.205C1395.72 785.08 1411.18 802.241 1429.24 815.744C1449.73 831.061 1473.41 841.804 1497.47 850.184C1525.11 859.813 1553.78 866.341 1582.59 871.351C1613.59 876.742 1644.9 880.347 1676.24 883.037C1707.01 885.678 1737.84 887.404 1768.69 888.81C1796.38 890.071 1824.08 891.027 1851.76 892.384C1887.75 894.148 1924.49 898.845 1959.73 888.691C1977.22 883.651 1993.43 874.997 2007.4 863.334C2020.79 852.156 2031.87 838.355 2040.87 823.463C2059.95 791.911 2070.36 755.595 2077.07 719.585C2081.61 695.218 2084.72 670.54 2087.28 645.894C2090.11 618.528 2091.96 591.061 2092.91 563.565C2094.83 508.473 2093.18 453.283 2088.69 398.349C2086.46 371.079 2083.54 343.866 2079.99 316.735ZM2079.69 659.148C2074.96 700.159 2068.8 741.583 2054.47 780.494C2042.58 812.779 2024.28 844.343 1995.77 864.625C1980.87 875.226 1963.84 882.242 1945.91 885.691C1923.94 889.914 1901.54 889.309 1879.35 887.818C1854.24 886.131 1829.08 885.211 1803.94 884.18C1774.33 882.966 1744.72 881.693 1715.15 879.796C1684.14 877.808 1653.16 875.169 1622.35 871.185C1592.71 867.353 1563.16 862.264 1534.2 854.8C1508.39 848.145 1482.81 839.62 1459.15 827.191C1439.09 816.655 1420.13 803.099 1406.15 785.059C1392.64 767.622 1384.94 746.539 1383.6 724.547C1381.71 693.48 1390.07 661.602 1409.64 637.103C1430.59 610.889 1460.77 594.179 1490.85 580.549C1522.41 566.244 1555.17 554.784 1586.37 539.647C1623.83 521.48 1659.89 500.382 1694.34 477.026C1731.06 452.129 1766.12 424.554 1798.12 393.799C1828.49 364.618 1856.47 332.322 1878.21 296.132C1883.08 288.032 1887.62 279.732 1891.74 271.229C1897.11 260.171 1902.18 248.998 1909.03 238.75C1921.38 220.589 1940.39 207.742 1961.23 201.254C1973.36 197.477 1986.05 195.799 1998.73 195.566C2009.93 195.36 2021.78 195.597 2032.44 199.402C2041.83 202.755 2049.95 209.111 2054.72 217.953C2060.71 229.067 2062.54 241.92 2064.58 254.209C2068.99 280.844 2072.85 307.571 2076.08 334.376C2082.59 388.431 2086.59 442.81 2087.41 497.257C2088.22 551.309 2085.89 605.436 2079.69 659.148Z" fill="#E2DED3" fill-opacity="0.023"/>
<path d="M2686 -837.439V-843.559C2652.61 -843.462 2619.22 -842.514 2585.88 -840.753C2534.67 -838.049 2483.57 -833.465 2432.68 -827.24C2381.99 -821.04 2331.51 -813.24 2281.29 -804.018C2233.82 -795.302 2186.35 -785.822 2139.97 -772.368C2095.1 -759.352 2051.08 -742.364 2010.82 -718.453C1974.99 -697.176 1942.54 -670.015 1916.5 -637.389C1891.26 -605.759 1871.91 -568.997 1863.38 -529.254C1858.77 -507.753 1857.53 -485.75 1859.11 -463.834C1860.85 -439.829 1865.6 -416.154 1871.14 -392.773C1882.23 -345.965 1896.29 -299.601 1897.37 -251.138C1898.35 -207.491 1890.19 -164.183 1875.87 -123.046C1861.15 -80.7338 1840.12 -40.8157 1816.05 -3.11985C1791.49 35.33 1763.66 71.5907 1734.34 106.503C1705.44 140.907 1675.5 174.659 1643.26 205.973C1611.02 237.284 1576.07 266.099 1537.11 288.704C1517.24 300.237 1496.41 310.009 1474.8 317.806C1452.17 325.966 1428.88 332.141 1405.36 337.131C1357.75 347.234 1309.31 352.54 1261.26 360.031C1219.17 366.593 1177.27 375.217 1137.16 389.857C1098.99 403.79 1062.37 423.126 1032.18 450.62C1016.29 465.083 1003.18 481.724 991.128 499.444C978.335 518.258 965.92 537.627 948.381 552.461C930.897 567.248 909.904 577.221 889.1 586.394C878.784 590.942 868.513 595.335 857.441 597.706C848.082 599.71 838.541 600.272 828.99 600.166C819.098 600.055 809.222 599.349 799.334 599.084C788.927 598.806 778.534 599.062 768.158 599.909C749.721 601.414 731.412 604.365 713.264 607.896C673.199 615.691 633.743 626.288 593.989 635.475C554.929 644.501 515.285 652.718 475.135 654.568C456.93 655.406 438.541 654.926 420.542 651.893C407.399 649.679 394.918 645.573 382.261 641.556C354.939 632.884 327.547 624.441 300.364 615.338C271.59 605.702 242.45 595.953 215.074 582.748C210.242 580.418 205.457 577.953 200.894 575.127C197.401 572.963 195.349 571.131 192.146 568.843C186.291 564.659 179.576 561.703 172.948 558.987C152.976 550.801 131.881 545.266 111.017 539.9C83.7438 532.886 56.2759 526.648 28.8452 520.288C0.283863 513.667 -28.2781 507.008 -56.6235 499.505C-81.4633 492.931 -106.312 485.862 -130.253 476.461C-139.462 472.845 -148.563 468.833 -157.17 463.934C-163.924 460.091 -169.65 456.367 -174.778 450.751C-175.26 450.224 -175.723 449.682 -176.178 449.132C-176.297 448.988 -176.413 448.84 -176.529 448.693C-176.539 448.679 -176.537 448.682 -176.549 448.666C-176.794 448.336 -177.036 448.004 -177.269 447.665C-178.058 446.518 -178.741 445.319 -179.357 444.072C-179.416 443.953 -179.59 443.538 -179.65 443.401C-179.724 443.216 -179.8 443.032 -179.863 442.844C-180.101 442.135 -180.321 441.421 -180.565 440.715C-181.165 438.978 -181.877 437.275 -182.654 435.61C-186.042 428.349 -191.02 421.849 -196.319 415.887C-211.048 399.317 -229.351 385.882 -247.625 373.515C-251.057 371.192 -254.521 368.917 -258 366.665V373.975C-254.468 376.292 -250.953 378.633 -247.474 381.027C-229.884 393.129 -212.259 406.343 -198.446 422.78C-195.919 425.787 -193.76 428.639 -191.544 432.165C-190.599 433.669 -189.709 435.209 -188.894 436.787C-187.987 438.542 -187.443 439.763 -186.948 441.056C-185.862 443.899 -185.047 446.759 -183.455 449.387C-181.792 452.132 -179.678 454.632 -177.388 456.873C-171.703 462.436 -164.828 466.782 -157.871 470.563C-148.752 475.519 -139.155 479.593 -129.476 483.312C-105.25 492.619 -80.1691 499.678 -55.0879 506.255C-26.6842 513.703 1.92433 520.345 30.5279 526.972C57.8098 533.292 85.1256 539.512 112.234 546.552C123.612 549.507 134.958 552.608 146.188 556.086C155.006 558.817 164.645 562.063 172.65 565.455C176.092 566.913 179.492 568.49 182.778 570.275C184.218 571.057 185.636 571.881 187.014 572.765C187.582 573.129 188.144 573.503 188.696 573.89C188.99 574.095 189.279 574.307 189.569 574.516C189.683 574.598 189.794 574.683 189.906 574.767C189.93 574.785 189.937 574.79 189.956 574.804C197.709 580.956 206.424 585.489 215.375 589.654C243.452 602.719 273.022 612.7 302.369 622.467C329.083 631.358 355.997 639.615 382.82 648.168C396.048 652.386 409.111 656.398 422.901 658.44C441.151 661.143 459.648 661.553 478.051 660.556C518.287 658.376 558.018 650.113 597.178 641.03C636.885 631.819 676.308 621.242 716.349 613.53C734.354 610.063 752.507 607.182 770.805 605.839C781.386 605.062 791.977 604.956 802.577 605.319C812.343 605.653 822.105 606.34 831.88 606.314C841.529 606.289 851.184 605.442 860.601 603.283C871.626 600.756 881.889 596.236 892.196 591.691C913.015 582.511 933.712 572.477 951.377 557.918C969.044 543.357 981.754 524.218 994.464 505.431C1006.56 487.556 1019.46 470.683 1035.37 456.006C1065.35 428.345 1102.12 409.006 1140.29 395.23C1180.53 380.703 1222.54 372.19 1264.73 365.661C1312.79 358.225 1361.22 352.886 1408.81 342.66C1454.82 332.772 1499.39 317.69 1540.21 294.001C1579.09 271.437 1614.1 242.704 1646.35 211.516C1678.66 180.268 1708.63 146.539 1737.56 112.166C1766.88 77.3395 1794.77 41.1944 1819.46 2.91288C1843.71 -34.69 1864.9 -74.4952 1880.1 -116.649C1894.85 -157.564 1903.66 -200.797 1903.59 -244.388C1903.55 -267.755 1900.74 -290.941 1896.21 -313.843C1891.46 -337.875 1885.07 -361.537 1879.24 -385.321C1868.21 -430.377 1859.46 -476.837 1868.37 -523.078C1876.05 -562.933 1894.8 -600.091 1919.86 -631.82C1945.75 -664.609 1978.05 -691.859 2013.91 -713.156C2054.26 -737.121 2098.34 -754.01 2143.34 -766.955C2189.8 -780.32 2237.33 -789.765 2284.85 -798.456C2335.18 -807.662 2385.78 -815.45 2436.58 -821.579C2487.49 -827.721 2538.59 -832.214 2589.8 -834.822C2621.84 -836.454 2653.92 -837.346 2686 -837.439Z" fill="#E2DED3" fill-opacity="0.023"/>
<path d="M1633.61 -379.169C1623.12 -345.529 1608.47 -313.315 1591.36 -282.551C1573.83 -251.039 1553.72 -221.011 1532.17 -192.118C1510.68 -163.299 1487.69 -135.635 1464.02 -108.584C1440.46 -81.6505 1416.23 -55.246 1390.28 -30.5826C1364.53 -6.10818 1337.05 16.6614 1307.14 35.8976C1276.24 55.7681 1243.01 71.1842 1207.9 81.9744C1171.19 93.2536 1133.3 100.017 1095.38 105.719C1057.9 111.355 1020.22 115.877 982.948 122.815C950.527 128.85 918.364 136.863 887.437 148.408C857.119 159.726 827.854 174.444 802.105 194.185C789.355 203.96 777.485 214.847 766.918 226.961C755.329 240.245 745.746 255.012 735.821 269.535C725.669 284.392 714.864 298.874 700.972 310.472C687.141 322.019 671.072 330.612 654.817 338.207C638.058 346.038 621.018 353.484 603.358 359.052C586.444 364.385 569.033 368.027 551.432 370.165C513.073 374.824 473.995 374.266 435.559 370.871C395.963 367.373 356.715 360.521 317.995 351.608C279.363 342.715 241.231 331.747 203.499 319.615C189.699 315.178 175.982 310.515 162.104 306.322C148.713 302.275 135.294 298.319 121.959 294.089C107.838 289.61 93.7777 284.875 80.0196 279.367C68.306 274.678 56.5689 269.455 46.0473 262.423C41.8818 259.639 38.1096 256.344 34.1276 253.312C29.7991 250.016 25.3514 246.878 20.8524 243.819C10.366 236.692 -0.399392 229.98 -11.1828 223.314C-35.4375 208.321 -59.9314 193.648 -83.2521 177.211C-103.544 162.91 -124.575 147.009 -138.936 126.434C-141.858 122.248 -144.484 117.831 -146.557 113.161C-148.427 108.948 -149.548 104.455 -151.287 100.188C-155.221 90.5357 -160.574 81.5689 -166.717 73.1673C-181.555 52.8768 -200.213 35.5473 -219.699 19.8053C-232.046 9.82994 -244.867 0.45295 -258 -8.46823V-1.07092C-244.826 7.98051 -231.984 17.5124 -219.682 27.7043C-200.865 43.2933 -182.607 60.5097 -168.803 80.8121C-163.248 88.9824 -158.356 97.7373 -155.229 107.14C-151.92 117.091 -147.217 125.88 -140.791 134.186C-125.02 154.572 -103.708 170.496 -82.6868 185.067C-59.297 201.28 -34.8333 215.851 -10.6633 230.85C-0.0779962 237.419 10.4801 244.054 20.7226 251.151C29.2618 257.067 37.0493 264.129 45.8752 269.6C56.9865 276.487 69.1422 281.681 81.289 286.429C95.1287 291.84 109.244 296.527 123.417 300.979C136.595 305.118 149.848 309.007 163.064 313.022C177.431 317.385 191.629 322.269 205.933 326.832C243.715 338.885 281.905 349.744 320.596 358.488C359.247 367.224 398.433 373.854 437.933 377.211C476.302 380.472 515.344 380.914 553.599 376.03C571.165 373.787 588.514 370.189 605.404 364.837C623.001 359.261 639.984 351.821 656.714 344.063C673.123 336.453 689.134 327.832 703.282 316.469C717.345 305.176 728.427 290.964 738.649 276.221C748.75 261.651 758.185 246.589 769.72 233.078C780.148 220.863 791.903 209.783 804.596 199.949C830.211 180.102 859.518 165.295 889.814 154.046C920.76 142.556 952.933 134.588 985.359 128.586C1022.69 121.675 1060.41 117.156 1097.94 111.495C1135.84 105.776 1173.73 98.9677 1210.41 87.6176C1245.41 76.7864 1278.66 61.417 1309.52 41.6561C1339.4 22.5159 1366.95 -0.121247 1392.73 -24.4613C1418.77 -49.0388 1443.06 -75.3926 1466.66 -102.3C1490.31 -129.269 1513.27 -156.845 1534.84 -185.516C1556.52 -214.335 1576.8 -244.273 1594.54 -275.685C1611.86 -306.331 1626.79 -338.451 1637.74 -371.938C1648.42 -404.624 1655.18 -438.678 1656.58 -473.076C1658.09 -510.3 1652.23 -546.763 1643.65 -582.874C1634.75 -620.303 1623.62 -657.465 1619.46 -695.834C1617.49 -714.069 1617.15 -732.507 1619.3 -750.743C1621.17 -766.585 1624.93 -782.215 1630.16 -797.275C1640.72 -827.67 1657.54 -855.789 1678.07 -880.48C1698.92 -905.541 1723.59 -927.395 1750.74 -945.406C1781.51 -965.822 1815.15 -981.696 1849.79 -994.339C1884.94 -1007.17 1921.18 -1016.78 1957.68 -1024.91C1968.77 -1027.39 1979.89 -1029.74 1991.03 -1032H1961.41C1959.47 -1031.58 1957.54 -1031.16 1955.6 -1030.73C1919.11 -1022.59 1882.88 -1012.96 1847.74 -1000.1C1813.12 -987.436 1779.45 -971.656 1748.63 -951.352C1721.43 -933.44 1696.56 -911.798 1675.51 -886.928C1654.68 -862.334 1637.54 -834.578 1626.21 -804.35C1614.24 -772.408 1609.84 -738.522 1612.51 -704.548C1615.53 -666.164 1626.03 -628.947 1635.2 -591.712C1639.81 -572.968 1644.13 -554.123 1647.03 -535.027C1649.74 -517.17 1650.97 -499.108 1650.67 -481.048C1650.11 -446.448 1643.9 -412.165 1633.61 -379.169Z" fill="#E2DED3" fill-opacity="0.023"/>
<path d="M-236.348 -506.613C-226.471 -474.034 -213.731 -442.304 -198.346 -411.937C-183.055 -381.755 -165.106 -352.911 -144.671 -325.942C-122.588 -296.796 -96.1565 -271.135 -75.1964 -241.125C-64.811 -226.256 -55.749 -210.22 -49.4127 -193.193C-43.356 -176.919 -39.4241 -159.956 -35.8523 -142.992C-28.8024 -109.51 -23.0011 -74.6036 -5.27741 -44.7398C2.7963 -31.1359 13.3718 -19.0614 25.9198 -9.42391C38.5845 0.303166 52.9895 6.82953 68.3901 10.8879C86.1041 15.5558 104.412 17.1711 122.443 20.1368C140.137 23.047 157.161 27.8591 173.621 35.0038C190.173 42.231 206.09 50.9509 222.853 57.6781C236.782 63.2677 251.301 67.3531 266.086 69.9193C295.67 75.0545 326.008 74.2226 355.44 68.4808C385.587 62.5996 414.71 51.5626 441.544 36.6663C468.699 21.592 493.678 2.435 515.232 -19.933C536.959 -42.4801 558.592 -65.4129 582.233 -85.9838C604.86 -105.673 629.944 -122.478 657.821 -133.784C692.92 -148.019 730.742 -154.692 767.759 -161.835C803.744 -168.779 839.347 -176.591 874.271 -187.833C908.431 -198.829 941.79 -212.357 973.965 -228.251C1006.37 -244.258 1037.57 -262.701 1067.19 -283.403C1092.49 -301.078 1116.61 -320.614 1139.65 -341.124C1163.33 -362.196 1185.81 -384.683 1206.21 -408.96C1226.56 -433.171 1244.95 -459.192 1259.57 -487.279C1273.81 -514.626 1284.5 -543.999 1289.31 -574.518C1294.97 -610.385 1292.2 -647.032 1284.77 -682.434C1280.76 -701.512 1275.39 -720.285 1269.2 -738.76C1263.85 -754.682 1258.15 -770.554 1251.13 -785.821C1239 -812.174 1222.7 -836.946 1201.03 -856.43C1190.24 -866.126 1178.24 -874.477 1165.37 -881.153C1149.48 -889.391 1132.4 -895.673 1115.48 -901.389C1077.91 -914.077 1039.48 -924.454 1001.26 -934.961C962.762 -945.543 924.111 -955.569 885.257 -964.755C846.315 -973.961 807.168 -982.323 767.805 -989.53C728.809 -996.669 689.599 -1002.67 650.217 -1007.24C610.911 -1011.8 571.43 -1014.91 531.881 -1016.25C492.305 -1017.59 452.661 -1017.15 413.137 -1014.66C394.322 -1013.47 375.228 -1009.76 357.741 -1002.6C341.645 -996 327.084 -986.275 314.686 -974.073C294.892 -954.591 281.423 -930.05 265.199 -907.765C257.478 -897.16 248.933 -887.029 238.717 -878.732C228.234 -870.216 215.838 -863.998 202.683 -860.892C166.285 -852.3 127.898 -853.035 90.815 -855.151C53.4135 -857.286 16.0823 -861.375 -21.4183 -861.286C-39.9301 -861.242 -58.4461 -860.123 -76.751 -857.292C-95.5141 -854.389 -114.018 -849.496 -131.948 -843.278C-149.99 -837.021 -167.657 -829.448 -184.702 -820.839C-200.215 -813.004 -215.848 -803.779 -228.075 -791.249C-245.872 -773.012 -254.241 -748.94 -258.001 -724.258V-613.855C-257.757 -611.564 -257.532 -609.268 -257.264 -606.984C-253.275 -572.989 -246.279 -539.369 -236.348 -506.613ZM-253.602 -709.618C-251.059 -739.29 -242.781 -769.598 -220.165 -790.378C-207.038 -802.439 -190.91 -811.159 -174.942 -818.819C-157.668 -827.104 -139.913 -834.446 -121.645 -840.244C-103.782 -845.913 -85.4401 -850.238 -66.8297 -852.529C-48.5589 -854.778 -30.1209 -855.375 -11.726 -855.084C25.4739 -854.495 62.4896 -850.332 99.6314 -848.552C118.097 -847.667 136.614 -847.366 155.08 -848.422C164.243 -848.946 173.381 -849.823 182.473 -851.081C191.211 -852.29 200.101 -853.641 208.581 -856.122C221.64 -859.943 233.607 -866.518 244.05 -875.212C254.067 -883.552 262.436 -893.649 270.107 -904.136C286.121 -926.03 299.3 -950.201 318.714 -969.428C331.064 -981.66 345.73 -991.435 361.958 -997.714C379.724 -1004.59 398.626 -1007.67 417.559 -1008.8C456.76 -1011.12 496.07 -1011.43 535.311 -1009.99C574.532 -1008.57 613.681 -1005.4 652.657 -1000.82C691.654 -996.235 730.474 -990.206 769.085 -983.08C807.954 -975.905 846.612 -967.612 885.071 -958.498C923.599 -949.367 961.928 -939.413 1000.1 -928.914C1038.01 -918.489 1076.11 -908.185 1113.38 -895.63C1130.2 -889.964 1147.18 -883.768 1162.93 -875.515C1175.63 -868.86 1187.43 -860.601 1198 -850.906C1219.33 -831.326 1235.11 -806.614 1246.92 -780.328C1253.88 -764.844 1259.51 -748.714 1264.79 -732.591C1270.7 -714.521 1275.78 -696.161 1279.53 -677.516C1286.54 -642.654 1288.85 -606.419 1282.57 -571.264C1277.18 -541.07 1266.13 -512.157 1251.55 -485.245C1236.57 -457.589 1218.02 -431.971 1197.51 -408.169C1177.02 -384.388 1154.58 -362.332 1130.99 -341.641C1107.82 -321.313 1083.63 -302.013 1058.18 -284.608C1028.61 -264.383 997.51 -246.394 965.255 -230.805C933.155 -215.292 899.904 -202.194 865.863 -191.603C831.061 -180.775 795.587 -173.425 759.839 -166.538C723.484 -159.534 686.434 -152.54 652.178 -138.033C624.708 -126.401 600.048 -109.633 577.619 -90.081C554.292 -69.7469 532.83 -47.1491 511.43 -24.8275C490.09 -2.56897 465.405 16.4048 438.449 31.3689C411.941 46.084 383.228 56.8687 353.442 62.6362C324.425 68.2549 294.275 68.9505 265.171 63.546C251.142 60.941 237.369 56.961 224.135 51.6223C207.998 45.1131 192.664 36.6698 176.716 29.7064C159.889 22.4024 142.628 17.2979 124.531 14.2963C106.047 11.2308 87.2595 9.62842 69.1212 4.73246C53.8216 0.602745 39.5597 -6.10297 27.2282 -16.1503C15.1302 -26.007 5.1333 -38.251 -2.31993 -51.9495C-18.8646 -82.3571 -23.9502 -117.15 -31.2036 -150.549C-34.8468 -167.324 -39.0486 -184.064 -45.5092 -200.004C-52.3125 -216.789 -61.5168 -232.59 -72.068 -247.282C-93.0986 -276.567 -118.982 -301.905 -140.634 -330.707C-160.8 -357.533 -178.518 -386.191 -193.619 -416.161C-208.833 -446.353 -221.353 -477.881 -231.044 -510.271C-240.776 -542.797 -247.69 -576.197 -251.469 -609.942C-255.155 -642.858 -256.433 -676.578 -253.602 -709.618Z" fill="#E2DED3" fill-opacity="0.023"/>
<path d="M1552.23 -462.827C1542.65 -431.346 1529.4 -401.09 1513.87 -372.111C1497.96 -342.434 1479.68 -314.068 1460.02 -286.75C1440.3 -259.351 1419.16 -233.006 1397.25 -207.333C1375.56 -181.908 1353.32 -156.891 1329.92 -133.015C1306.57 -109.192 1281.97 -86.4686 1255.37 -66.3047C1229 -46.3137 1200.66 -28.809 1170.37 -15.4054C1137.6 -0.908702 1102.8 8.49719 1067.74 15.5086C1032.37 22.5834 996.577 27.2586 960.884 32.3772C927.886 37.1094 894.906 42.2105 862.499 50.1397C832.603 57.4546 803.163 67.0153 775.264 80.0928C748.027 92.8598 722.299 109.196 700.342 129.855C689.013 140.513 678.925 152.315 669.859 164.945C660.025 178.645 651.216 193.086 640.825 206.384C630.354 219.785 618.161 231.243 603.854 240.468C589.548 249.692 574.054 256.875 558.5 263.703C526.226 277.871 493.132 290.197 458.046 295.073C424.002 299.803 389.318 297.439 355.75 290.499C322.296 283.583 289.882 272.422 258.117 259.994C225.758 247.333 193.962 233.294 161.71 220.371C145.696 213.955 129.569 207.809 113.227 202.278C100.438 197.949 87.4345 194.299 74.4843 190.49C60.2755 186.31 46.0858 181.998 32.211 176.798C19.444 172.014 6.74678 166.484 -4.60541 158.852C-9.99456 155.229 -14.8806 150.921 -19.8081 146.706C-25.4285 141.899 -30.9749 137.004 -36.4417 132.023C-48.1705 121.335 -59.5433 110.25 -70.4273 98.7014C-92.0882 75.7177 -112.435 50.7279 -127.05 22.5893C-130.348 16.2405 -133.326 9.72388 -135.806 3.01061C-137.983 -2.88061 -139.653 -8.9291 -142.015 -14.7559C-146.772 -26.4907 -152.991 -37.5535 -160.153 -47.9818C-176.213 -71.3634 -196.439 -91.7533 -218.093 -109.958C-230.844 -120.679 -244.199 -130.689 -258 -140.039V-132.633C-244.041 -123.023 -230.561 -112.718 -217.756 -101.634C-196.626 -83.3444 -176.822 -62.8618 -161.705 -39.243C-155.073 -28.8824 -149.326 -17.8791 -145.351 -6.21688C-143.166 0.191705 -141.115 6.57123 -138.45 12.8074C-135.571 19.5409 -132.27 26.0893 -128.672 32.4653C-113.006 60.2237 -92.1949 85.0376 -70.1284 107.899C-59.2119 119.209 -47.8405 130.079 -36.1281 140.56C-26.0606 149.57 -15.9359 159.112 -4.42325 166.266C7.39609 173.611 20.3984 179.013 33.437 183.77C47.338 188.842 61.5234 193.088 75.7188 197.246C88.8576 201.095 102.007 204.882 114.956 209.34C131.281 214.959 147.398 221.167 163.409 227.625C195.765 240.677 227.697 254.768 260.236 267.369C292.011 279.673 324.474 290.617 357.964 297.189C391.627 303.795 426.092 305.731 460.129 300.924C495.151 295.978 528.145 283.643 560.385 269.53C575.951 262.717 591.471 255.594 605.845 246.47C620.141 237.396 632.654 226.284 643.277 213.096C653.83 199.996 662.751 185.719 672.384 171.954C681.405 159.064 691.369 146.987 702.711 136.066C724.434 115.149 750.096 98.7505 777.291 85.893C805.136 72.728 834.634 63.2516 864.518 55.9602C896.8 48.0838 929.648 43.0059 962.515 38.2926C998.208 33.1739 1034 28.499 1069.37 21.4242C1104.42 14.4152 1139.04 4.92772 1171.85 -9.40146C1202.22 -22.6654 1230.65 -40.0609 1257.1 -59.9744C1283.73 -80.0222 1308.42 -102.498 1331.83 -126.206C1355.31 -150.003 1377.6 -174.989 1399.35 -200.375C1421.26 -225.941 1442.42 -252.169 1462.24 -279.395C1482.06 -306.629 1500.54 -334.895 1516.7 -364.464C1532.54 -393.436 1546.18 -423.718 1556.27 -455.186C1566.12 -485.939 1572.48 -517.879 1574.15 -550.158C1575.95 -584.667 1571.56 -618.69 1564.03 -652.326C1556.16 -687.54 1545.7 -722.197 1539.82 -757.843C1534.37 -790.845 1533.73 -824.4 1541.69 -857.045C1548.8 -886.211 1561.78 -913.666 1578.61 -938.459C1595.72 -963.668 1616.82 -986.116 1640.33 -1005.45C1652.11 -1015.13 1664.58 -1023.93 1677.5 -1032H1666.2C1656.54 -1025.62 1647.15 -1018.82 1638.14 -1011.53C1614.45 -992.367 1593.24 -970.068 1575.75 -945.098C1558.57 -920.56 1545.07 -893.244 1537.22 -864.281C1528.55 -832.321 1527.85 -799.409 1532.32 -766.716C1537.2 -730.953 1547.41 -696.233 1555.7 -661.182C1563.73 -627.265 1569.32 -593.076 1568.34 -558.118C1567.44 -525.777 1561.64 -493.748 1552.23 -462.827Z" fill="#E2DED3" fill-opacity="0.023"/>
<path d="M1257.12 1013.27C1247.98 1003.3 1236.41 996.025 1223.65 991.657C1210.63 987.198 1196.69 985.757 1182.99 985.685C1167.77 985.604 1152.58 987.203 1137.5 989.162C1121.26 991.273 1105.1 993.867 1088.86 995.97C1072.62 998.073 1056.29 999.724 1039.9 999.852C1024.18 999.974 1008.38 998.666 993.131 994.663C977.745 990.624 963.196 983.78 950.552 974.082C943.613 968.759 937.299 962.607 931.611 955.972C925.584 948.942 920.698 941.154 915.309 933.652C902.678 916.065 888.298 899.705 873.195 884.214C856.125 866.706 837.906 850.261 818.406 835.494C800.926 822.257 782.151 810.033 761.585 802.165C744.528 795.639 726.295 794.55 708.208 793.838C686.728 792.992 665.206 793.431 643.732 794.239C619.484 795.151 595.259 796.607 571.042 798.107C545.924 799.663 520.81 801.293 495.676 802.559C471.905 803.757 448.106 804.66 424.301 804.637C403.666 804.617 382.952 803.979 362.454 801.461C340.234 798.731 318.435 792.687 296.954 786.552C272.878 779.676 249.121 771.699 225.769 762.664C203.886 754.198 182.379 744.79 161.22 734.652C140.925 724.927 120.953 714.539 101.193 703.772C81.6167 693.106 62.244 682.072 42.9027 670.987C23.2411 659.718 3.6073 648.399 -16.1698 637.333C-36.7652 625.809 -57.5181 614.564 -78.5464 603.849C-101.075 592.37 -123.916 581.504 -147.102 571.418C-172.238 560.484 -197.758 550.442 -223.625 541.372C-235.013 537.379 -246.476 533.526 -258 529.854V536.401C-244.88 540.556 -231.825 544.917 -218.865 549.55C-193.384 558.659 -168.241 568.704 -143.496 579.656C-120.752 589.722 -98.3426 600.533 -76.2299 611.918C-55.4373 622.623 -34.9088 633.832 -14.5224 645.29C5.09443 656.315 24.5816 667.568 44.1104 678.748C63.3572 689.767 82.649 700.712 102.152 711.272C121.876 721.951 141.818 732.231 162.087 741.837C183.195 751.84 204.655 761.111 226.465 769.475C249.791 778.42 273.517 786.308 297.557 793.102C318.971 799.153 340.599 804.93 362.726 807.628C383.136 810.117 403.757 810.75 424.301 810.771C447.984 810.794 471.661 809.899 495.31 808.711C520.198 807.461 545.065 805.852 569.936 804.31C594.065 802.813 618.201 801.355 642.36 800.425C663.81 799.598 685.307 799.134 706.766 799.917C724.607 800.568 742.57 801.513 759.423 807.878C779.764 815.558 798.36 827.93 815.594 841.005C834.932 855.678 852.951 872.146 869.843 889.564C884.578 904.758 898.684 920.766 910.941 938.047C916.389 945.729 921.459 953.58 927.633 960.726C933.421 967.425 939.85 973.526 946.867 978.925C959.607 988.728 974.236 995.81 989.715 1000.1C1005.01 1004.33 1020.97 1005.92 1036.81 1005.99C1053.09 1006.06 1069.33 1004.55 1085.47 1002.54C1101.72 1000.5 1117.88 997.928 1134.11 995.745C1149.1 993.726 1164.2 992.02 1179.35 991.832C1192.89 991.664 1206.47 992.721 1219.46 996.738C1231.71 1000.53 1242.9 1007.18 1251.8 1016.55C1262.76 1028.09 1269.81 1042.8 1274.58 1057.85C1275.01 1059.22 1275.38 1060.61 1275.78 1062H1282.16C1281.63 1060.07 1281.1 1058.13 1280.49 1056.21C1275.54 1040.6 1268.27 1025.43 1257.12 1013.27Z" fill="#E2DED3" fill-opacity="0.023"/>
<path d="M1505.49 -1032H1497.88C1482.58 -1011.21 1469.93 -988.522 1461.05 -964.24C1450.38 -935.065 1445.89 -904.151 1447.56 -873.142C1449.46 -837.866 1458.16 -803.443 1466.73 -769.321C1475.24 -735.458 1483.72 -701.386 1485.7 -666.395C1487.51 -634.567 1484.46 -602.627 1477.4 -571.564C1470.29 -540.285 1459.29 -509.968 1445.69 -480.947C1431.73 -451.172 1415.13 -422.681 1396.95 -395.303C1378.54 -367.578 1358.49 -340.968 1337.5 -315.156C1316.86 -289.786 1295.4 -265.044 1273.3 -240.943C1251.07 -216.711 1227.94 -193.253 1203.14 -171.644C1178.57 -150.242 1152.32 -130.701 1124.03 -114.48C1094.48 -97.5341 1062.9 -84.9292 1030.1 -75.8446C996.058 -66.4169 961.176 -60.4673 926.272 -55.2932C891.621 -50.1568 856.829 -45.8432 822.35 -39.6012C792.51 -34.1992 762.893 -27.1646 734.189 -17.3177C705.927 -7.62255 678.416 4.79938 653.415 21.2567C628.423 37.7081 606.507 58.116 588.888 82.3285C579.146 95.716 570.465 109.849 560.476 123.06C550.409 136.375 538.734 148.077 524.886 157.45C511.042 166.82 495.925 174.109 480.687 180.892C464.528 188.085 448.283 195.168 431.803 201.598C399.933 214.033 366.635 223.272 332.134 221.691C303.982 220.401 276.526 212.506 250.749 201.4C223.917 189.84 198.601 175.085 173.61 160.038C148.1 144.679 122.833 128.847 96.4242 115.052C83.3973 108.247 70.0933 101.96 56.4366 96.519C42.1116 90.8111 27.3766 86.4491 12.5442 82.2856C-17.0729 73.972 -47.9918 65.3182 -70.2538 42.7797C-89.7447 23.0468 -99.8675 -3.43641 -106.963 -29.7511C-114.44 -57.4847 -118.888 -85.967 -127.106 -113.51C-135.355 -141.156 -148.214 -167.37 -164.85 -190.93C-181.46 -214.454 -201.636 -235.296 -224.572 -252.7C-235.163 -260.736 -246.352 -267.95 -258 -274.323V-267.34C-246.132 -260.65 -234.766 -253.066 -224.086 -244.628C-201.446 -226.743 -181.593 -205.306 -165.642 -181.255C-149.746 -157.285 -138.08 -131.036 -130.583 -103.287C-123.089 -75.55 -118.64 -47.0624 -110.439 -19.5072C-102.647 6.67675 -90.9689 32.4767 -70.402 51.1324C-46.7641 72.5734 -15.3833 80.7863 14.5657 89.2279C29.1678 93.3437 43.6032 97.8392 57.6563 103.585C71.2629 109.149 84.4929 115.621 97.4628 122.531C123.764 136.541 148.989 152.441 174.537 167.753C199.527 182.729 224.914 197.221 251.836 208.472C277.831 219.336 305.369 226.819 333.631 227.889C368.293 229.201 401.866 219.863 433.876 207.342C450.15 200.976 466.193 193.978 482.171 186.905C497.43 180.151 512.588 172.951 526.53 163.719C540.408 154.529 552.374 143.293 562.647 130.212C572.86 117.209 581.615 103.172 591.14 89.6763C608.608 64.9248 630.306 43.958 655.539 27.1974C680.366 10.7059 707.675 -1.74893 735.819 -11.4016C764.526 -21.2468 794.14 -28.2808 823.98 -33.6851C858.459 -39.9295 893.252 -44.2406 927.903 -49.377C962.806 -54.5511 997.69 -60.4987 1031.73 -69.9285C1064.6 -79.0347 1096.34 -91.6564 1126.01 -108.546C1154.17 -124.575 1180.35 -143.916 1204.87 -165.049C1229.78 -186.52 1253 -209.884 1275.29 -234.053C1297.55 -258.198 1319.13 -283.024 1339.91 -308.455C1360.83 -334.057 1380.87 -360.412 1399.33 -387.847C1417.71 -415.144 1434.54 -443.537 1448.79 -473.215C1462.66 -502.119 1474.12 -532.269 1481.78 -563.431C1489.36 -594.285 1493.17 -626.142 1492.21 -657.925C1491.15 -692.773 1483.66 -726.793 1475.27 -760.5C1466.77 -794.614 1457.39 -828.809 1454.34 -863.953C1451.61 -895.458 1454.82 -926.776 1464.92 -956.784C1474.04 -983.899 1488.18 -1009.26 1505.49 -1032Z" fill="#E2DED3" fill-opacity="0.023"/>
<path d="M1042.26 1018.99C1020.12 1010.78 995.159 1013.16 972.242 1016.06C945.625 1019.42 919.122 1024.6 892.221 1025.04C866.313 1025.46 840.246 1020.72 819.004 1005.04C813.338 1000.86 808.184 995.971 803.525 990.699C798.475 984.985 794.398 978.658 790.003 972.454C779.896 958.187 768.331 944.925 756.198 932.357C742.293 917.954 727.436 904.439 711.553 892.245C697.11 881.156 681.626 870.943 664.638 864.195C650.598 858.618 635.71 857.548 620.753 856.916C603.282 856.177 585.773 856.508 568.304 857.147C528.081 858.618 487.947 861.848 447.754 863.905C411.428 865.764 374.469 867.521 338.247 863.203C320.202 861.052 302.52 856.196 285.075 851.244C265.249 845.617 245.686 839.077 226.46 831.658C191.471 818.157 157.775 801.625 124.856 783.706C92.5934 766.145 61.0112 747.371 28.9613 729.429C-5.90142 709.912 -41.3752 691.479 -78.021 675.52C-121.409 656.626 -166.421 640.542 -212.324 628.928C-227.371 625.121 -242.675 623.967 -258 624.464V630.504C-253.845 630.358 -249.687 630.328 -245.529 630.464C-232.375 630.892 -219.706 633.24 -207.034 636.692C-162.097 648.932 -118.064 664.416 -75.4812 683.293C-39.3694 699.302 -4.40426 717.694 30.0107 737.052C61.7912 754.928 93.1574 773.544 125.236 790.889C158.141 808.68 191.864 824.976 226.825 838.339C245.892 845.627 265.286 852.052 284.935 857.581C302.372 862.487 319.961 867.138 337.975 869.305C373.8 873.614 410.358 871.927 446.293 870.114C486.292 868.095 526.229 864.887 566.252 863.358C583.83 862.687 601.447 862.313 619.032 862.981C633.52 863.531 648.007 864.367 661.673 869.59C678.417 875.99 693.724 886.277 707.891 897.108C723.654 909.159 738.343 922.67 752.106 936.949C764.023 949.313 775.446 962.331 785.312 976.409C789.721 982.7 793.921 989.048 799.009 994.833C803.859 1000.35 809.252 1005.33 815.118 1009.75C836.345 1025.73 862.755 1031.21 888.881 1031.2C915.489 1031.19 941.76 1026.24 968.046 1022.74C990.818 1019.7 1015.47 1016.71 1037.73 1023.9C1047.67 1027.11 1056.67 1032.73 1063.79 1040.5C1069.56 1046.79 1073.92 1054.18 1077.31 1062H1083.92C1080.32 1053.17 1075.64 1044.79 1069.37 1037.55C1062.06 1029.12 1052.7 1022.86 1042.26 1018.99Z" fill="#E2DED3" fill-opacity="0.023"/>
<path d="M2617.91 -1003.08C2574.18 -1005.23 2530.38 -1005.77 2486.61 -1004.86C2442.76 -1003.95 2398.93 -1001.59 2355.22 -997.926C2311.35 -994.249 2267.58 -989.256 2223.98 -983.124C2180.36 -976.989 2136.9 -969.691 2093.64 -961.363C2053.65 -953.664 2013.73 -945.213 1974.61 -933.816C1936.06 -922.588 1898.2 -908.437 1862.77 -889.436C1830.41 -872.082 1800.36 -850.56 1774.52 -824.4C1749.91 -799.485 1728.99 -770.549 1714.64 -738.524C1699.87 -705.552 1692.64 -669.954 1694.15 -633.813C1695.88 -592.236 1707.31 -551.938 1717.22 -511.771C1722.25 -491.373 1726.96 -470.854 1729.88 -450.032C1732.56 -430.901 1733.47 -411.526 1732.69 -392.225C1731.16 -354.698 1723.06 -317.706 1710.54 -282.362C1697.75 -246.271 1680.38 -211.921 1660.53 -179.23C1640.17 -145.693 1617.14 -113.816 1592.72 -83.1372C1568.64 -52.9056 1543.32 -23.5966 1517.1 4.79655C1490.83 33.2604 1463.22 60.6221 1433.09 85.0227C1403.36 109.094 1371.01 130.153 1336.04 145.77C1298.1 162.713 1257.48 172.773 1216.72 180.161C1175.69 187.597 1134.25 192.389 1093.08 198.91C1056.94 204.632 1021.02 211.985 986.223 223.453C952.915 234.432 920.476 249.1 891.831 269.508C877.715 279.564 864.525 290.943 852.812 303.731C839.946 317.778 829.499 333.605 818.805 349.305C807.84 365.402 796.176 381.017 780.85 393.254C765.384 405.603 747.408 414.479 729.441 422.543C711.65 430.528 693.798 437.729 674.631 441.678C656.462 445.421 637.911 446.587 619.424 447.567C580.112 449.65 540.778 451.614 501.411 452.247C460.961 452.896 420.432 452.168 380.125 448.495C341.054 444.935 302.077 438.566 264.462 427.235C252.462 423.62 240.583 419.59 228.597 415.92C215.043 411.77 201.481 407.641 187.98 403.318C160.713 394.589 132.783 385.726 107.387 372.306C102.704 369.832 98.0815 367.161 93.8213 364.002C90.6177 361.626 87.5864 359.064 84.274 356.827C76.2679 351.421 67.6888 346.873 59.05 342.574C36.261 331.235 12.6383 321.601 -10.7976 311.703C-36.1968 300.975 -61.6309 290.218 -86.2785 277.833C-106.466 267.69 -127.315 256.573 -143.843 240.914C-149.641 235.421 -155.324 228.733 -158.202 221.687C-159.735 217.934 -160.811 214.048 -162.489 210.339C-164.293 206.353 -166.444 202.529 -168.808 198.85C-180.756 180.254 -197.422 164.805 -214.417 150.901C-228.352 139.501 -242.987 128.976 -258.001 119.027V126.379C-243.099 136.356 -228.589 146.93 -214.87 158.459C-198.657 172.084 -182.53 187.288 -171.775 205.746C-169.702 209.303 -167.807 213.062 -166.409 216.754C-165.015 220.435 -163.964 224.162 -162.126 227.67C-158.053 235.446 -151.871 242.08 -145.338 247.851C-127.773 263.365 -106.553 274.663 -85.6633 284.979C-60.8231 297.247 -35.2567 307.983 -9.7433 318.752C13.3481 328.499 36.6276 338.027 58.984 349.395C67.33 353.639 75.6221 358.147 83.271 363.571C86.5658 365.908 89.5818 368.591 93.1373 371.004C97.7438 374.13 102.644 376.817 107.614 379.315C133.676 392.417 161.862 401.455 189.593 410.269C202.906 414.501 216.275 418.555 229.63 422.652C242.081 426.472 254.409 430.723 266.914 434.359C304.653 445.335 343.702 451.436 382.805 454.87C423.125 458.411 463.655 459.048 504.106 458.336C543.463 457.643 582.798 455.699 622.099 453.558C640.508 452.555 658.976 451.225 677.054 447.429C696.308 443.385 714.244 436.035 732.134 428.021C749.99 420.021 767.626 411.2 783.162 399.181C798.625 387.218 810.602 371.994 821.637 355.996C832.504 340.243 842.759 324.092 855.574 309.805C867.149 296.9 880.211 285.351 894.295 275.256C922.897 254.754 955.269 240.048 988.612 229.119C1023.47 217.695 1059.45 210.387 1095.63 204.679C1136.81 198.185 1178.24 193.386 1219.26 185.91C1260.01 178.485 1300.39 168.259 1338.35 151.417C1373.33 135.892 1405.61 114.894 1435.42 90.9771C1465.65 66.7176 1493.34 39.4469 1519.67 11.0431C1546.04 -17.3976 1571.48 -46.7964 1595.69 -77.0932C1620.05 -107.575 1643.1 -139.176 1663.56 -172.424C1683.61 -205.011 1701.19 -239.246 1714.45 -275.179C1727.42 -310.359 1736.06 -347.221 1738.43 -384.697C1739.63 -403.664 1739.21 -422.731 1737.07 -441.618C1734.72 -462.458 1730.44 -483.01 1725.57 -503.39C1715.92 -543.754 1703.76 -583.944 1700.75 -625.535C1698.11 -662.037 1703.93 -698.23 1718.39 -731.887C1732.24 -764.144 1752.76 -793.274 1777.2 -818.372C1802.86 -844.721 1832.74 -866.292 1865.07 -883.714C1900.54 -902.828 1938.47 -916.947 1977.1 -928.153C2016.27 -939.512 2056.21 -947.943 2096.23 -955.633C2139.5 -963.946 2182.96 -971.229 2226.59 -977.346C2270.29 -983.475 2314.17 -988.409 2358.16 -992.036C2401.87 -995.641 2445.7 -997.943 2489.56 -998.786C2533.49 -999.631 2577.45 -999.014 2621.33 -996.773C2642.91 -995.671 2664.47 -994.174 2686 -992.269V-998.397C2663.34 -1000.4 2640.64 -1001.96 2617.91 -1003.08Z" fill="#E2DED3" fill-opacity="0.023"/>
<path d="M859.424 1045.83C842.316 1039.24 822.897 1040.98 805.118 1043.19C784.561 1045.75 764.11 1049.77 743.345 1050.23C723.278 1050.68 703.044 1047.25 686.47 1035.25C677.085 1028.46 670.521 1019.54 663.932 1010.19C656.152 999.142 647.234 988.872 637.879 979.141C627.13 967.961 615.645 957.462 603.365 947.984C592.166 939.34 580.224 931.402 567.093 926.006C556.241 921.547 544.852 920.539 533.236 919.996C519.735 919.365 506.199 919.591 492.696 920.064C461.445 921.158 430.263 923.67 399.039 925.29C370.765 926.757 342.023 928.15 313.818 924.915C299.757 923.302 286 919.554 272.411 915.713C257.068 911.376 241.927 906.332 227.045 900.61C199.824 890.143 173.616 877.296 148.015 863.365C122.927 849.714 98.3712 835.114 73.4498 821.164C46.4188 806.034 18.9129 791.746 -9.50186 779.378C-43.144 764.734 -78.022 752.289 -113.604 743.257C-151.787 733.564 -189.49 746.662 -227.425 750.697C-237.762 751.697 -247.947 753.36 -258 755.549V761.763C-247.939 759.529 -237.751 757.83 -227.425 756.831C-207.685 754.732 -188.339 750.212 -168.686 747.543C-159.13 746.246 -149.471 745.479 -139.823 745.781C-129.687 746.098 -119.924 747.87 -110.157 750.527C-75.2669 760.018 -41.0746 772.028 -8.01594 786.688C19.9263 799.079 46.9821 813.312 73.613 828.29C98.2815 842.165 122.627 856.616 147.528 870.077C172.974 883.834 199.052 896.43 226.08 906.781C240.869 912.444 255.912 917.436 271.154 921.733C284.731 925.561 298.425 929.182 312.451 930.888C340.237 934.267 368.604 932.959 396.479 931.556C427.422 929.998 458.317 927.519 489.278 926.324C502.869 925.8 516.49 925.504 530.086 926C541.372 926.411 552.678 927.022 563.329 931.076C576.184 935.969 587.948 943.878 598.829 952.175C611.034 961.481 622.401 971.936 633.055 982.973C642.287 992.537 651.141 1002.61 658.787 1013.5C665.56 1023.15 672.325 1032.17 681.793 1039.37C698.242 1051.89 718.712 1056.33 739.051 1056.41C759.805 1056.49 780.306 1052.64 800.805 1049.89C818.301 1047.54 837.217 1045.21 854.352 1050.55C861.527 1052.78 868.074 1056.65 873.428 1062H881.346C875.664 1054.98 868.465 1049.31 859.424 1045.83Z" fill="#E2DED3" fill-opacity="0.023"/>
<path d="M1814.17 -678.059C1833.13 -711.046 1858.85 -739.909 1888.29 -763.895C1920.56 -790.182 1957.71 -810.192 1996.22 -825.709C2036.78 -842.054 2079.1 -853.599 2121.73 -863.115C2166.77 -873.169 2212.24 -881.463 2257.79 -888.802C2304.77 -896.37 2351.95 -902.632 2399.29 -907.413C2446.38 -912.167 2493.61 -915.46 2540.9 -917.101C2588.26 -918.744 2635.68 -918.728 2683.04 -916.853C2684.03 -916.814 2685.01 -916.762 2686 -916.721V-922.848C2683.87 -922.936 2681.74 -923.04 2679.61 -923.12C2632.25 -924.905 2584.83 -924.836 2537.47 -923.114C2490.01 -921.387 2442.62 -918 2395.38 -913.149C2348.16 -908.3 2301.08 -901.991 2254.22 -894.405C2208.73 -887.039 2163.3 -878.736 2118.33 -868.634C2075.87 -859.097 2033.71 -847.504 1993.34 -831.119C1954.84 -815.497 1917.92 -795.592 1885.49 -769.475C1856.03 -745.747 1830.18 -717.102 1810.84 -684.516C1791.71 -652.296 1779.23 -616.065 1776.69 -578.566C1773.64 -533.698 1784.76 -489.525 1795.61 -446.375C1801.11 -424.46 1806.64 -402.516 1810.41 -380.223C1813.96 -359.273 1815.63 -338.075 1815.11 -316.827C1814.14 -276.316 1805.44 -236.355 1791.65 -198.337C1777.49 -159.306 1758.04 -122.341 1735.9 -87.2811C1713.32 -51.517 1687.85 -17.647 1660.97 14.9789C1634.41 47.2144 1606.77 78.7302 1577.57 108.605C1548.58 138.272 1517.61 166.252 1483.38 189.785C1448.01 214.093 1409.54 232.627 1368.41 244.878C1325.31 257.714 1280.73 264.524 1236.3 270.855C1194.55 276.804 1152.63 282.246 1111.57 292.123C1074.31 301.089 1037.53 313.467 1003.79 331.847C970.314 350.085 940.666 374.494 918.131 405.378C905.73 422.374 895.083 440.704 881.24 456.619C867.199 472.763 849.749 484.627 830.799 494.308C821.377 499.122 811.709 503.435 802.014 507.664C792.274 511.911 782.441 515.685 772.086 518.153C753.656 522.546 734.73 522.697 715.891 523.024C675.923 523.716 636.321 528.41 596.723 533.569C555.359 538.958 513.996 544.75 472.349 547.498C432.985 550.095 392.873 550.241 354.036 542.492C339.74 539.639 326.014 535.188 312.145 530.812C300.024 526.988 287.869 523.271 275.741 519.469C246.109 510.181 216.458 500.682 187.596 489.185C175.924 484.535 164.247 479.589 153.333 473.328C146.419 469.36 141.063 464.41 134.168 460.343C116.902 450.16 97.3533 443.579 78.4632 437.157C53.008 428.503 27.2331 420.814 1.54079 412.905C-25.2494 404.657 -52.0363 396.315 -78.3804 386.717C-100.238 378.754 -122.297 370.126 -142.226 357.98C-149.508 353.542 -156.254 348.834 -162.071 342.59C-164.494 339.99 -166.066 338.008 -167.834 334.751C-168.161 334.148 -168.462 333.533 -168.754 332.913C-168.857 332.694 -168.898 332.614 -168.914 332.587C-168.926 332.548 -168.959 332.457 -169.035 332.259C-169.183 331.874 -169.327 331.488 -169.461 331.098C-170.019 329.476 -170.526 327.849 -171.171 326.257C-178.141 309.054 -191.957 294.998 -205.591 282.853C-221.867 268.355 -239.707 255.62 -258 243.754V251.075C-239.973 262.906 -222.401 275.618 -206.56 290.245C-199.493 296.769 -192.537 303.881 -186.839 311.471C-184.318 314.828 -181.978 318.329 -179.952 322.008C-178.032 325.495 -176.87 328.134 -175.687 331.756C-170.699 347.03 -155.916 357.107 -142.693 364.847C-122.104 376.899 -99.5324 385.608 -77.1476 393.67C-50.8015 403.159 -24.0403 411.457 2.72002 419.685C28.2766 427.543 53.9117 435.204 79.2058 443.883C97.4267 450.136 116.419 456.513 132.881 466.734C136.282 468.846 138.212 470.475 141.109 472.678C144.879 475.544 148.963 477.975 153.119 480.232C164.657 486.494 176.863 491.546 189.073 496.328C217.99 507.654 247.63 517.11 277.259 526.371C289.073 530.064 300.912 533.677 312.709 537.423C327.222 542.031 341.619 546.451 356.629 549.218C395.85 556.449 436.124 556.177 475.773 553.4C517.396 550.484 558.736 544.631 600.093 539.266C639.562 534.146 678.964 529.778 718.791 529.11C737.618 528.794 756.511 528.327 774.888 523.785C785.056 521.272 794.718 517.487 804.303 513.313C814.135 509.03 823.942 504.672 833.503 499.805C852.338 490.217 869.99 478.429 884.147 462.581C898.165 446.889 908.967 428.737 921.135 411.655C943.367 380.447 972.691 355.882 1006.2 337.519C1039.91 319.049 1076.7 306.772 1113.98 297.852C1155.24 287.981 1197.37 282.561 1239.32 276.573C1283.74 270.232 1328.31 263.355 1371.37 250.396C1412.36 238.06 1450.83 219.537 1486.12 195.324C1520.45 171.773 1551.58 143.862 1580.69 114.182C1609.95 84.3609 1637.61 52.8596 1664.2 20.6578C1690.99 -11.775 1716.45 -45.4019 1739.1 -80.8735C1761.42 -115.838 1781.04 -152.685 1795.66 -191.559C1809.9 -229.399 1819.15 -269.24 1821 -309.7C1821.95 -330.596 1820.83 -351.496 1817.84 -372.195C1814.64 -394.402 1809.45 -416.258 1804.03 -438.009C1793.2 -481.405 1781.02 -525.372 1782.42 -570.513C1783.61 -608.436 1795.33 -645.276 1814.17 -678.059Z" fill="#E2DED3" fill-opacity="0.023"/>
<path d="M339.925 1045.96C326.672 1046.34 313.448 1047.41 300.211 1048.13C288.138 1048.78 275.891 1049.42 263.833 1048.2C251.524 1046.95 239.17 1042.66 227.66 1038.3C204.689 1029.59 183.832 1016.61 162.476 1004.66C137.561 990.727 111.203 978.594 83.3683 971.794C67.2386 967.853 51.4633 973.194 35.4579 974.938C18.7982 976.55 3.08252 982.062 -12.0445 989.021C-26.9038 995.856 -42.001 1002.62 -54.993 1012.72C-67.9149 1022.76 -79.1142 1035.46 -88.2731 1048.99C-91.0962 1053.16 -93.7048 1057.5 -95.972 1062H-89.0293C-87.5504 1059.27 -85.944 1056.59 -84.2322 1053.97C-75.4857 1040.58 -64.5136 1028.14 -52.0222 1018.13C-39.5204 1008.12 -24.617 1001.57 -10.1839 994.89C4.29426 988.189 19.4771 982.619 35.4579 981.073C51.7767 979.295 67.6833 973.878 84.0442 978.319C98.6315 982.279 112.944 987.275 126.762 993.409C149.294 1003.41 170.106 1016.54 191.742 1028.25C202.422 1034.03 213.365 1039.32 224.697 1043.7C236.333 1048.2 248.687 1052.38 261.097 1054.01C272.455 1055.5 284.053 1055.05 295.461 1054.51C308.471 1053.89 321.456 1052.85 334.468 1052.29C340.288 1052.04 346.119 1051.88 351.944 1052.04C356.522 1052.16 361.275 1052.24 365.656 1053.7C370.982 1055.48 375.977 1058.47 380.626 1062H390.219C384.412 1056.93 378.079 1052.41 371.2 1049.34C361.541 1045.03 350.279 1045.66 339.925 1045.96Z" fill="#E2DED3" fill-opacity="0.023"/>
<path d="M537.696 1047.69C532.235 1039.89 525.973 1032.64 519.404 1025.77C511.76 1017.77 503.584 1010.25 494.841 1003.47C486.794 997.221 478.249 991.47 468.818 987.529C461.042 984.279 452.972 983.447 444.623 983.03C435.056 982.552 425.462 982.7 415.893 983.024C393.667 983.778 371.492 985.566 349.287 986.729C329.126 987.784 308.637 988.791 288.521 986.524C278.638 985.409 268.967 982.777 259.415 980.086C248.476 977.005 237.681 973.419 227.071 969.346C188.568 954.566 153.55 932.818 117.69 912.761C75.7889 889.326 31.7843 869.442 -14.8841 857.583C-42.114 850.664 -68.9326 859.919 -95.9837 862.817C-124.028 865.53 -150.528 874.925 -175.969 886.675C-200.732 898.112 -225.936 909.365 -247.606 926.208C-251.156 928.967 -254.603 931.885 -258 934.871V942.993C-253.219 938.591 -248.28 934.398 -243.181 930.479C-221.897 914.122 -197.095 903.16 -172.873 891.972C-148.487 880.709 -122.871 871.553 -95.9837 868.952C-81.8224 867.435 -67.9468 864.184 -53.8432 862.299C-39.9115 860.437 -26.4313 860.781 -12.8321 864.484C11.9256 871.226 36.1939 879.75 59.6464 890.17C97.7176 907.085 132.887 929.28 169.451 949.066C187.589 958.882 206.177 967.867 225.441 975.262C235.81 979.242 246.355 982.758 257.04 985.792C266.85 988.577 276.749 991.203 286.885 992.465C306.308 994.882 326.147 994.007 345.639 993.049C367.7 991.964 389.725 990.192 411.796 989.311C421.394 988.927 431.01 988.699 440.613 989.002C448.679 989.257 456.872 989.576 464.516 992.387C473.537 995.705 481.796 1001.23 489.426 1006.99C498.052 1013.49 506.074 1020.84 513.601 1028.58C520.293 1035.46 526.718 1042.71 532.251 1050.57C535.067 1054.57 537.87 1058.44 541.048 1062H549.635C545.004 1057.82 541.322 1052.86 537.696 1047.69Z" fill="#E2DED3" fill-opacity="0.023"/>
</svg>
