<svg width="1439" height="1024" viewBox="0 0 1439 1024" fill="none" xmlns="http://www.w3.org/2000/svg">
<g clip-path="url(#clip0_510_798)">
<path d="M1183.24 669.265C1181.87 652.069 1180.05 634.909 1177.84 617.8C1176.74 609.297 1175.55 600.805 1174.26 592.328C1172.99 583.955 1171.84 575.506 1170.13 567.21C1168.66 560.054 1166.37 552.592 1161.37 547.069C1157.07 542.317 1151.09 539.307 1144.89 537.921C1141.34 537.127 1137.67 536.866 1134.05 536.694C1130.06 536.504 1126.06 536.529 1122.07 536.795C1114.11 537.326 1106.14 538.769 1098.65 541.602C1086.17 546.325 1075.14 554.343 1067.6 565.431C1063.16 572.07 1059.92 579.339 1056.42 586.491C1053.66 592.122 1050.61 597.612 1047.34 602.961C1040.49 614.172 1032.65 624.766 1024.19 634.811C1015.3 645.362 1005.72 655.327 995.685 664.792C985.397 674.497 974.62 683.679 963.488 692.4C952.393 701.092 940.928 709.315 929.183 717.106C917.806 724.654 906.158 731.794 894.265 738.497C883.277 744.69 872.078 750.514 860.661 755.874C850.887 760.463 840.868 764.488 830.862 768.537C820.581 772.697 810.296 776.881 800.285 781.666C790.59 786.299 781.112 791.508 772.449 797.896C764.056 804.085 756.477 811.36 750.554 819.978C744.312 829.062 740.177 839.474 738.2 850.304C736.661 858.734 736.166 867.435 737.063 875.967C737.823 883.209 739.58 890.278 742.435 896.981C745.153 903.36 748.849 909.258 753.256 914.604C757.817 920.137 763.137 924.985 768.861 929.29C775.002 933.909 781.631 937.858 788.494 941.303C795.955 945.048 803.704 948.217 811.58 950.973C819.993 953.917 828.567 956.388 837.218 958.526C846.36 960.785 855.591 962.672 864.865 964.296C874.518 965.986 884.22 967.387 893.944 968.59C903.776 969.807 913.633 970.811 923.503 971.665C933.316 972.514 943.142 973.214 952.974 973.814C962.53 974.397 972.091 974.885 981.655 975.323C990.717 975.738 999.781 976.107 1008.85 976.478C1017.18 976.82 1025.51 977.162 1033.84 977.566C1041.22 977.924 1048.59 978.332 1055.95 978.872C1070.96 979.973 1086.68 979.592 1101.28 975.59C1112.29 972.571 1122.54 967.28 1131.38 960.066C1139.9 953.117 1146.96 944.487 1152.69 935.138C1158.67 925.396 1163.26 914.835 1166.93 904.028C1170.69 892.977 1173.47 881.61 1175.64 870.148C1178.5 855.019 1180.46 839.69 1182.07 824.383C1183.88 807.238 1185.07 790.029 1185.7 772.801C1186.33 755.547 1186.4 738.273 1185.97 721.013C1185.54 703.743 1184.61 686.485 1183.24 669.265ZM1182.39 780.291C1181.6 797.348 1180.26 814.381 1178.3 831.344C1176.64 845.724 1174.69 860.12 1171.77 874.305C1169.44 885.62 1166.46 896.826 1162.47 907.677C1158.62 918.137 1153.8 928.287 1147.58 937.557C1141.59 946.493 1134.21 954.599 1125.43 960.867C1116.14 967.5 1105.52 971.931 1094.33 974.143C1080.47 976.884 1066.29 976.561 1052.27 975.611C1044.79 975.105 1037.31 974.721 1029.82 974.375C1021.43 973.988 1013.04 973.65 1004.65 973.307C995.583 972.935 986.512 972.557 977.444 972.127C967.962 971.677 958.483 971.172 949.011 970.567C939.253 969.943 929.502 969.216 919.764 968.334C909.997 967.45 900.244 966.411 890.518 965.157C881.007 963.931 871.522 962.488 862.088 960.763C853.007 959.102 843.97 957.177 835.028 954.88C826.537 952.698 818.126 950.183 809.884 947.192C802.273 944.43 794.808 941.253 787.633 937.494C781.043 934.041 774.66 930.107 768.811 925.496C763.356 921.196 758.309 916.321 754.048 910.823C749.974 905.566 746.605 899.7 744.237 893.49C741.711 886.867 740.251 879.873 739.795 872.805C739.217 863.829 740.035 854.674 742.199 845.947C744.742 835.694 749.376 826.019 755.919 817.711C762.281 809.632 770.157 802.879 778.68 797.174C787.61 791.197 797.211 786.285 806.98 781.842C816.936 777.314 827.104 773.283 837.236 769.172C847.299 765.09 857.286 760.865 867.064 756.134C878.465 750.619 889.649 744.656 900.619 738.328C912.36 731.554 923.858 724.356 935.083 716.757C946.608 708.955 957.844 700.724 968.732 692.055C979.679 683.339 990.27 674.166 1000.37 664.476C1010.2 655.043 1019.57 645.115 1028.25 634.609C1036.51 624.605 1044.18 614.079 1050.86 602.949C1053.9 597.886 1056.73 592.697 1059.31 587.383C1062.69 580.427 1065.88 573.389 1070.19 566.945C1077.99 555.475 1089.97 547.348 1103.13 543.221C1110.72 540.843 1118.66 539.767 1126.6 539.595C1133.73 539.441 1141.29 539.574 1148.09 541.95C1154.01 544.022 1159.21 547.954 1162.31 553.471C1166.21 560.408 1167.41 568.523 1168.69 576.258C1171.48 593.086 1173.93 609.972 1175.98 626.907C1178.03 643.881 1179.68 660.903 1180.89 677.957C1182.1 694.948 1182.87 711.971 1183.14 729.002C1183.41 746.101 1183.18 763.208 1182.39 780.291Z" fill="#E2DED3" fill-opacity="0.02"/>
<path d="M1213.06 576.494C1211.71 566.002 1210.25 555.525 1208.69 545.062C1207.15 534.797 1205.74 524.467 1203.76 514.276C1202.07 505.534 1199.5 496.371 1193.69 489.4C1188.69 483.39 1181.45 479.575 1173.94 477.732C1169.77 476.71 1165.48 476.333 1161.2 476.094C1156.24 475.816 1151.26 475.82 1146.3 476.125C1136.58 476.721 1126.86 478.404 1117.65 481.607C1109.81 484.335 1102.24 488.54 1095.6 493.509C1089.08 498.393 1083.42 504.222 1078.83 510.963C1073.36 519.125 1069.41 528.075 1065.08 536.864C1061.75 543.643 1058.07 550.247 1054.1 556.677C1045.72 570.28 1036.1 583.101 1025.72 595.239C1014.85 607.941 1003.15 619.916 990.907 631.29C978.336 642.968 965.187 654.017 951.636 664.539C938.054 675.086 924.05 685.091 909.747 694.636C895.978 703.824 881.922 712.58 867.624 720.92C854.33 728.676 840.826 736.074 827.123 743.081C821.277 746.071 815.073 748.372 808.968 750.781C802.744 753.238 796.498 755.638 790.264 758.067C777.587 763.006 764.937 768.061 752.638 773.891C740.704 779.548 729.054 785.951 718.41 793.803C708.08 801.424 698.748 810.401 691.475 821.021C683.863 832.134 678.815 844.848 676.421 858.089C674.547 868.455 673.702 879.141 674.648 889.653C675.433 898.382 677.413 906.99 680.782 915.09C684.03 922.899 688.437 930.121 693.786 936.668C699.272 943.382 705.693 949.265 712.613 954.472C720.027 960.051 728.035 964.814 736.325 968.967C745.389 973.508 754.806 977.34 764.377 980.671C774.63 984.238 785.08 987.226 795.622 989.813C806.821 992.561 818.13 994.853 829.491 996.827C841.275 998.874 853.119 1000.57 864.989 1002.04C877.01 1003.52 889.061 1004.75 901.127 1005.8C913.178 1006.86 925.243 1007.73 937.315 1008.5C949.009 1009.24 960.71 1009.88 972.414 1010.46C983.508 1011.02 994.605 1011.53 1005.7 1012.07C1015.91 1012.56 1026.11 1013.06 1036.31 1013.66C1045.35 1014.2 1054.38 1014.81 1063.4 1015.62C1073.13 1016.49 1083.1 1016.47 1092.85 1015.88C1101.43 1015.35 1110.08 1014.26 1118.42 1012.16C1131.94 1008.75 1144.59 1002.53 1155.53 993.883C1166.06 985.559 1174.8 975.131 1181.91 963.779C1189.32 951.951 1195.01 939.087 1199.53 925.903C1204.17 912.364 1207.57 898.417 1210.16 884.347C1211.61 876.443 1212.81 868.484 1214.04 860.543C1215.66 850.089 1217.06 839.601 1218.25 829.091C1220.63 808.159 1222.16 787.134 1222.96 766.084C1223.76 744.991 1223.83 723.873 1223.26 702.773C1222.69 681.645 1221.49 660.536 1219.76 639.472C1218.03 618.43 1215.76 597.433 1213.06 576.494ZM1219.61 774.284C1218.63 795.081 1216.92 815.846 1214.37 836.511C1213.1 846.904 1211.6 857.27 1209.88 867.6C1208.71 874.682 1207.66 881.773 1206.26 888.817C1203.49 902.684 1199.88 916.413 1195.01 929.695C1190.28 942.572 1184.31 955.058 1176.61 966.433C1169.22 977.348 1160.12 987.214 1149.3 994.812C1137.89 1002.84 1124.83 1008.13 1111.13 1010.68C1094.14 1013.84 1076.68 1013.71 1059.52 1012.28C1050.38 1011.52 1041.23 1010.94 1032.07 1010.42C1021.81 1009.84 1011.54 1009.34 1001.27 1008.85C990.157 1008.33 979.049 1007.81 967.943 1007.24C956.273 1006.64 944.606 1005.98 932.945 1005.22C920.992 1004.43 909.046 1003.53 897.115 1002.45C885.154 1001.36 873.208 1000.1 861.294 998.574C849.641 997.085 838.019 995.342 826.457 993.256C815.295 991.242 804.187 988.907 793.193 986.115C782.819 983.481 772.541 980.442 762.467 976.821C753.171 973.479 744.05 969.634 735.284 965.073C727.277 960.906 719.525 956.149 712.419 950.57C705.781 945.359 699.641 939.438 694.479 932.754C689.51 926.32 685.425 919.132 682.584 911.53C679.563 903.443 677.874 894.911 677.406 886.298C676.81 875.346 677.924 864.076 680.455 853.417C683.479 840.682 689.123 828.717 697.109 818.339C704.779 808.373 714.394 800.017 724.765 792.967C735.69 785.541 747.475 779.453 759.493 774.007C771.744 768.457 784.286 763.584 796.821 758.722C802.961 756.341 809.102 753.964 815.212 751.505C818.2 750.303 821.179 749.08 824.146 747.828C827.429 746.442 830.57 744.689 833.731 743.044C847.438 735.911 860.945 728.392 874.237 720.513C888.451 712.087 902.421 703.248 916.097 693.974C930.185 684.419 943.959 674.399 957.332 663.865C970.69 653.343 983.643 642.294 996.009 630.619C1008.03 619.269 1019.51 607.319 1030.14 594.649C1040.26 582.584 1049.64 569.86 1057.8 556.381C1061.52 550.23 1064.99 543.92 1068.13 537.453C1072.26 528.954 1076.14 520.349 1081.42 512.477C1091 498.402 1106.16 488.043 1122.42 483.223C1131.78 480.447 1141.53 479.125 1151.28 478.92C1159.99 478.736 1169.17 478.948 1177.45 481.916C1184.75 484.531 1191.12 489.437 1194.78 496.356C1199.31 504.941 1200.85 514.537 1202.39 524.013C1205.74 544.643 1208.73 565.331 1211.27 586.075C1213.82 606.879 1215.92 627.739 1217.48 648.641C1219.05 669.554 1220.07 690.51 1220.46 711.479C1220.85 732.416 1220.6 753.367 1219.61 774.284Z" fill="#E2DED3" fill-opacity="0.02"/>
<path d="M1142.58 659.552C1141.71 652.885 1140.77 646.226 1139.75 639.58C1138.76 633.127 1137.93 626.579 1136.49 620.207C1135.27 614.749 1133.35 609.149 1129.38 605.056C1125.89 601.465 1121.18 599.218 1116.31 598.228C1110.49 597.043 1104.23 597.06 1098.32 597.509C1092.3 597.967 1086.3 599.092 1080.64 601.242C1070.88 604.954 1062.27 611.224 1056.37 619.902C1052.89 625.108 1050.36 630.803 1047.61 636.406C1045.44 640.828 1043.04 645.138 1040.46 649.336C1035.13 658.03 1029.04 666.244 1022.46 674.034C1008.38 690.699 992.176 705.524 975.006 718.938C957.997 732.226 939.902 744.165 921.084 754.732C912.568 759.515 903.889 764.014 895.041 768.153C887.385 771.734 879.533 774.866 871.702 778.037C856.004 784.392 839.911 790.844 826.265 801.081C819.787 805.94 813.96 811.633 809.421 818.367C804.6 825.518 801.44 833.706 799.969 842.192C797.865 854.323 798.585 866.983 803.489 878.372C807.885 888.58 815.446 896.972 824.281 903.575C834.303 911.066 845.886 916.319 857.653 920.417C871.173 925.126 885.197 928.318 899.288 930.768C914.454 933.404 929.765 935.167 945.097 936.483C960.145 937.774 975.228 938.618 990.314 939.306C1003.86 939.923 1017.41 940.39 1030.95 941.054C1048.55 941.916 1066.52 944.213 1083.76 939.248C1092.31 936.783 1100.24 932.551 1107.08 926.848C1113.63 921.382 1119.04 914.632 1123.45 907.35C1132.78 891.921 1137.87 874.161 1141.15 856.552C1143.37 844.636 1144.9 832.568 1146.15 820.516C1147.53 807.133 1148.44 793.702 1148.9 780.256C1149.84 753.315 1149.03 726.326 1146.84 699.463C1145.75 686.127 1144.32 672.819 1142.58 659.552ZM1142.44 826.997C1140.12 847.053 1137.11 867.309 1130.1 886.338C1124.28 902.126 1115.33 917.56 1101.39 927.479C1094.1 932.663 1085.77 936.094 1077 937.78C1066.25 939.846 1055.3 939.55 1044.44 938.821C1032.16 937.996 1019.85 937.546 1007.56 937.042C993.073 936.448 978.591 935.825 964.125 934.898C948.96 933.926 933.808 932.635 918.735 930.687C904.238 928.813 889.784 926.324 875.622 922.674C862.993 919.42 850.481 915.251 838.909 909.173C829.099 904.021 819.824 897.392 812.986 888.57C806.378 880.043 802.612 869.733 801.956 858.978C801.03 843.786 805.119 828.197 814.694 816.217C824.939 803.398 839.701 795.226 854.413 788.561C869.854 781.566 885.875 775.962 901.138 768.559C919.458 759.675 937.097 749.358 953.946 737.937C971.907 725.762 989.057 712.277 1004.71 697.238C1019.57 682.968 1033.25 667.174 1043.89 649.477C1046.27 645.516 1048.49 641.457 1050.5 637.299C1053.13 631.891 1055.61 626.428 1058.96 621.416C1065 612.535 1074.3 606.253 1084.49 603.08C1090.43 601.233 1096.63 600.412 1102.84 600.298C1108.32 600.198 1114.11 600.314 1119.32 602.174C1123.92 603.814 1127.89 606.922 1130.22 611.246C1133.15 616.681 1134.05 622.966 1135.04 628.976C1137.2 642.001 1139.09 655.071 1140.67 668.179C1143.85 694.612 1145.81 721.205 1146.21 747.83C1146.61 774.262 1145.47 800.731 1142.44 826.997Z" fill="#E2DED3" fill-opacity="0.02"/>
<path d="M1107.42 702.019C1106.81 697.346 1106.14 692.678 1105.42 688.019C1104.71 683.38 1104.13 678.653 1103.03 674.086C1102.1 670.18 1100.62 666.231 1097.68 663.378C1095.09 660.861 1091.67 659.288 1088.14 658.625C1084.02 657.85 1079.65 657.839 1075.48 658.157C1071.11 658.49 1066.74 659.305 1062.63 660.88C1055.59 663.58 1049.4 668.102 1045.14 674.37C1042.66 678.095 1040.84 682.158 1038.88 686.163C1037.33 689.323 1035.61 692.403 1033.77 695.403C1029.94 701.638 1025.57 707.528 1020.85 713.11C1010.76 725.031 999.143 735.634 986.839 745.227C974.614 754.759 961.597 763.311 948.067 770.873C941.977 774.276 935.772 777.481 929.443 780.417C923.991 782.946 918.4 785.16 912.831 787.417C901.619 791.961 890.132 796.613 880.44 804.003C875.815 807.529 871.671 811.646 868.456 816.513C865.032 821.697 862.807 827.626 861.802 833.748C860.367 842.483 860.947 851.5 864.507 859.671C867.699 866.997 873.18 873.001 879.538 877.734C886.738 883.092 895.056 886.846 903.498 889.778C913.182 893.142 923.224 895.42 933.314 897.168C944.182 899.05 955.153 900.31 966.139 901.25C976.979 902.177 987.845 902.781 998.713 903.273C1008.35 903.709 1017.98 904.042 1027.61 904.517C1040.38 905.147 1053.45 906.794 1065.91 902.985C1078.07 899.267 1087.6 890.621 1094.04 879.825C1100.64 868.746 1104.25 856.036 1106.57 843.433C1109.89 825.41 1111.46 806.976 1112.08 788.675C1112.72 769.396 1112.12 750.084 1110.54 730.864C1109.74 721.225 1108.69 711.607 1107.42 702.019ZM1106.46 823.607C1104.79 837.711 1102.61 851.936 1097.62 865.299C1093.42 876.546 1086.92 887.527 1076.84 894.438C1071.63 898.015 1065.71 900.332 1059.49 901.443C1051.89 902.801 1044.18 902.526 1036.52 902.021C1027.67 901.438 1018.81 901.117 1009.96 900.753C999.671 900.331 989.381 899.883 979.104 899.217C968.316 898.519 957.538 897.592 946.816 896.195C936.484 894.85 926.183 893.056 916.093 890.434C907.143 888.108 898.279 885.134 890.088 880.797C883.144 877.121 876.547 872.389 871.752 866.085C867.118 859.991 864.514 852.68 864.114 845.041C863.546 834.215 866.542 823.175 873.474 814.725C880.9 805.674 891.474 799.938 901.988 795.215C912.986 790.275 924.367 786.265 935.216 780.98C948.316 774.599 960.928 767.197 972.974 759.002C985.738 750.318 997.93 740.708 1009.06 729.996C1019.62 719.833 1029.34 708.587 1036.92 696.001C1038.64 693.143 1040.24 690.213 1041.7 687.211C1043.57 683.353 1045.34 679.463 1047.73 675.884C1052.05 669.531 1058.76 665.072 1066.06 662.872C1070.28 661.602 1074.68 661.054 1079.07 661C1083 660.952 1087.13 661.059 1090.83 662.5C1094.16 663.793 1096.79 666.205 1098.32 669.424C1100.24 673.463 1100.8 678.035 1101.51 682.402C1103.04 691.707 1104.37 701.043 1105.47 710.407C1107.7 729.236 1109.05 748.177 1109.29 767.139C1109.53 785.995 1108.67 804.876 1106.46 823.607Z" fill="#E2DED3" fill-opacity="0.02"/>
<path d="M1278.28 285.931C1276.21 284.129 1273.36 282.356 1270.63 281.853C1267.35 281.363 1263.8 281.738 1260.52 282.062C1257.68 282.343 1254.83 282.783 1252.12 283.707C1247.36 285.328 1243.04 288.161 1239.64 291.871C1236.24 295.596 1233.74 300.136 1232.45 305.015C1231.67 307.934 1231.31 310.996 1230.98 313.993C1230.61 317.442 1230.24 320.902 1230.77 324.356C1231.57 329.535 1235.04 334 1239.77 336.226C1245.12 338.743 1251.29 338.328 1256.79 336.512C1259.75 335.534 1262.59 334.198 1265.36 332.773C1268.12 331.354 1270.9 329.933 1273.58 328.373C1276.1 326.905 1278.38 325.115 1279.66 322.425C1280.94 319.73 1281.23 316.773 1281.63 313.853C1282.18 309.81 1282.82 305.766 1283.26 301.711C1283.59 298.672 1283.65 295.553 1282.69 292.614C1281.84 290.041 1280.33 287.71 1278.28 285.931ZM1279.27 309.036C1278.88 311.968 1278.62 314.955 1278.01 317.853C1277.52 320.221 1276.6 322.442 1274.7 324.022C1272.5 325.848 1269.75 327.046 1267.25 328.386C1264.79 329.699 1262.33 331.012 1259.79 332.145C1254.86 334.339 1249.27 335.84 1243.89 334.532C1239.58 333.481 1235.71 330.369 1234.26 326.093C1233.31 323.276 1233.4 320.231 1233.65 317.307C1233.9 314.315 1234.27 311.326 1234.78 308.368C1235.56 303.907 1237.36 299.678 1240.06 296.043C1243 292.101 1247.06 288.909 1251.62 287.078C1254.1 286.083 1256.71 285.514 1259.36 285.19C1261.06 284.981 1262.78 284.864 1264.49 284.786C1266.22 284.706 1268.11 284.488 1269.83 284.746C1271.96 285.138 1274.24 286.472 1275.91 287.84C1277.48 289.13 1278.75 290.769 1279.52 292.655C1281.61 297.772 1279.97 303.795 1279.27 309.036Z" fill="#E2DED3" fill-opacity="0.02"/>
<path d="M1304.51 391.373C1309.89 388.465 1315.34 385.658 1320.66 382.631C1326.08 379.551 1331.55 376.227 1336.12 371.949C1339.85 368.45 1342.92 364.254 1345.2 359.676C1350.3 349.423 1351.45 337.951 1352.97 326.762C1354.85 312.925 1356.76 299.091 1358.62 285.251C1360.22 273.349 1361.68 261.202 1359.56 249.272C1357.94 240.158 1354.22 231.485 1348.57 224.145C1342.63 216.431 1334.82 210.36 1326.24 205.827C1321.61 203.382 1316.68 200.87 1311.49 199.916C1305.03 198.793 1298.3 199.376 1291.78 199.617C1284.85 199.873 1277.92 200.297 1271.02 201.001C1259.76 202.151 1248.62 203.988 1237.92 207.759C1219.55 214.226 1203.01 225.343 1189.89 239.714C1176.61 254.265 1166.89 271.951 1161.52 290.895C1160.17 295.652 1159.09 300.485 1158.3 305.365C1157.22 312.011 1156.2 318.682 1155.46 325.375C1153.95 339.042 1152.29 352.857 1154.11 366.581C1155.47 376.789 1159.21 386.432 1165.45 394.66C1171.43 402.541 1179.26 408.939 1188.15 413.286C1208.97 423.473 1233.45 421.485 1254.92 414.456C1266.44 410.684 1277.47 405.539 1288.23 400.011C1293.7 397.205 1299.1 394.29 1304.51 391.373ZM1202.3 415.251C1183.69 410.703 1167.18 397.437 1160.31 379.331C1155.96 367.895 1155.85 355.322 1156.7 343.27C1157.6 330.333 1159.22 317.36 1161.46 304.586C1164.77 285.691 1172.34 267.632 1183.62 252.11C1194.72 236.85 1209.42 224.256 1226.34 215.875C1234.98 211.594 1244.17 208.459 1253.62 206.521C1266.29 203.921 1279.36 203.061 1292.27 202.599C1298.33 202.382 1304.69 201.765 1310.7 202.809C1315.99 203.782 1321 206.376 1325.68 208.93C1329.82 211.186 1333.78 213.791 1337.39 216.825C1344.21 222.559 1349.77 229.755 1353.19 238.013C1356.94 247.075 1358.01 256.843 1357.51 266.578C1356.82 280.239 1354.41 293.811 1352.58 307.352C1351.68 314.046 1350.79 320.742 1349.88 327.434C1349.07 333.35 1348.39 339.308 1347.06 345.136C1344.84 354.889 1340.63 364.019 1333.01 370.722C1328.38 374.795 1322.9 377.964 1317.53 380.949C1312.29 383.866 1306.96 386.641 1301.68 389.49C1291.29 395.096 1280.87 400.671 1270.05 405.421C1248.99 414.67 1225.21 420.849 1202.3 415.251Z" fill="#E2DED3" fill-opacity="0.02"/>
<path d="M1312.65 340.561C1315.7 334.069 1316.4 326.902 1317.35 319.88C1318.53 311.241 1319.73 302.606 1320.88 293.964C1321.86 286.553 1322.7 279.015 1321.3 271.601C1319.03 259.588 1310.92 250.153 1300.25 244.552C1297.37 243.038 1294.29 241.475 1291.06 240.882C1286.99 240.193 1282.79 240.522 1278.68 240.673C1274.36 240.833 1270.04 241.097 1265.73 241.536C1258.69 242.254 1251.72 243.392 1245.03 245.743C1233.42 249.816 1222.96 256.838 1214.7 265.937C1206.42 275.057 1200.36 286.111 1197.01 297.958C1195.02 305.017 1194.03 312.41 1193.22 319.687C1192.26 328.393 1191.25 337.163 1192.5 345.895C1194.31 358.565 1202.7 369.371 1214.2 374.863C1227.36 381.156 1242.74 379.846 1256.25 375.356C1263.5 372.944 1270.45 369.676 1277.23 366.176C1284.11 362.628 1291.03 359.041 1297.72 355.152C1303.96 351.525 1309.51 347.232 1312.65 340.561ZM1295 353.252C1291.77 355.076 1288.47 356.784 1285.2 358.547C1278.7 362.055 1272.19 365.56 1265.44 368.563C1252.4 374.359 1237.68 378.318 1223.44 374.969C1211.96 372.268 1201.68 364.178 1197.41 353.036C1194.71 346.004 1194.62 338.283 1195.13 330.863C1195.68 322.765 1196.69 314.64 1198.1 306.647C1200.16 294.969 1204.83 283.829 1211.8 274.23C1218.62 264.832 1227.68 257.085 1238.08 251.908C1250.72 245.615 1264.75 244.186 1278.68 243.673C1282.49 243.533 1286.49 243.136 1290.26 243.774C1293.42 244.356 1296.4 245.884 1299.21 247.396C1301.82 248.801 1304.33 250.425 1306.6 252.332C1310.76 255.828 1314.16 260.186 1316.28 265.211C1318.6 270.735 1319.28 276.724 1318.99 282.671C1318.59 291.049 1317.12 299.371 1316 307.674C1315.44 311.8 1314.89 315.927 1314.33 320.053C1313.84 323.679 1313.42 327.334 1312.66 330.916C1311.37 336.957 1308.95 342.684 1304.33 346.933C1301.57 349.471 1298.25 351.419 1295 353.252Z" fill="#E2DED3" fill-opacity="0.02"/>
<path d="M1276.23 991.264C1272.95 966.992 1280.23 942.531 1287.82 919.741C1291.76 907.902 1296.04 896.173 1299.74 884.253C1303.09 873.449 1305.91 862.473 1308.42 851.446C1313.95 827.237 1317.84 802.635 1320.11 777.908C1322.45 752.422 1323.06 726.717 1321.19 701.179C1319.41 676.976 1315.46 652.724 1307.65 629.693C1305.91 624.573 1303.97 619.523 1301.83 614.559C1298.93 607.842 1295.96 601.162 1294.04 594.08C1290.34 580.047 1292.34 564.962 1298.48 551.901C1301.48 545.53 1305.39 539.584 1309.85 534.144C1314.05 529.024 1318.73 523.705 1324.3 520.038C1329.6 516.546 1335.88 514.566 1342.26 515.308C1349.51 516.151 1356.28 520.05 1362.39 523.783C1374.29 531.053 1386.06 538.522 1397.7 546.206C1411.68 555.441 1425.46 564.993 1439 574.874V571.182C1435.5 568.637 1431.99 566.107 1428.46 563.606C1416.8 555.353 1404.97 547.338 1393.01 539.546C1387.04 535.661 1381.04 531.831 1375 528.055C1368.89 524.235 1362.83 520.159 1356.38 516.947C1350.14 513.845 1343.36 511.494 1336.31 512.349C1329.83 513.135 1323.9 516.158 1318.94 520.334C1313.64 524.797 1308.96 530.21 1304.81 535.741C1300.62 541.326 1297.04 547.363 1294.38 553.824C1289.05 566.77 1287.56 581.277 1291.15 594.878C1293.13 602.207 1296.24 609.121 1299.24 616.073C1301.52 621.344 1303.52 626.733 1305.32 632.185C1309.09 643.605 1311.91 655.329 1314.01 667.165C1318.49 692.351 1319.77 718.068 1319.13 743.612C1318.49 769.413 1315.85 795.168 1311.51 820.605C1307.52 843.97 1302.21 867.202 1294.84 889.742C1287.03 913.627 1277.32 937.25 1273.76 962.276C1272.06 974.188 1271.85 986.351 1274.41 998.16C1276.41 1007.41 1280.16 1016.12 1285.28 1024H1288.86C1282.15 1014.22 1277.81 1003.04 1276.23 991.264Z" fill="#E2DED3" fill-opacity="0.02"/>
<path d="M1036.91 785.833C1036.65 784.179 1036.47 782.329 1035.3 781.029C1033.13 778.635 1028.69 779.177 1026.07 780.41C1024.7 781.057 1023.53 782.058 1022.67 783.313C1021.85 784.598 1021.3 786.03 1020.51 787.337C1019.7 788.671 1018.76 789.914 1017.74 791.086C1015.62 793.492 1013.2 795.637 1010.64 797.552C1008.07 799.469 1005.37 801.198 1002.57 802.759C1000.21 804.076 997.763 804.988 995.278 806.023C992.878 807.022 990.472 808.174 988.601 810.027C986.712 811.896 985.751 814.279 985.511 816.9C985.157 820.757 987.055 824.05 990.21 826.161C993.647 828.46 997.962 829.383 1001.99 829.99C1006.6 830.687 1011.26 830.94 1015.92 831.162C1020.61 831.385 1026.12 832.564 1030.39 830.157C1035.45 827.307 1036.84 821.098 1037.62 815.816C1038.79 807.882 1038.64 799.84 1037.73 791.888C1037.5 789.865 1037.22 787.846 1036.91 785.833ZM1034.73 815.018C1034.07 819.532 1033.12 825.392 1028.61 827.712C1026.31 828.892 1023.63 828.619 1021.15 828.444C1019.37 828.318 1017.58 828.241 1015.79 828.156C1011.68 827.96 1007.55 827.763 1003.46 827.196C999.79 826.687 995.892 825.969 992.628 824.125C990.026 822.655 988.325 820.432 988.478 817.355C988.724 812.401 992.965 810.146 997.081 808.506C999.714 807.458 1002.24 806.407 1004.71 804.999C1007.56 803.369 1010.32 801.558 1012.93 799.554C1015.56 797.531 1018.07 795.321 1020.22 792.786C1021.23 791.592 1022.19 790.335 1023.01 789C1023.84 787.649 1024.41 786.161 1025.27 784.827C1026.06 783.657 1027.41 782.941 1028.76 782.633C1029.9 782.372 1031.96 782.065 1032.94 782.914C1034.01 783.833 1033.97 786.286 1034.16 787.569C1034.43 789.399 1034.67 791.234 1034.86 793.073C1035.62 800.348 1035.79 807.764 1034.73 815.018Z" fill="#E2DED3" fill-opacity="0.02"/>
<path d="M1300.51 433.047C1307.93 429.227 1315.28 425.276 1322.64 421.34C1330.18 417.308 1337.79 413.409 1345.22 409.183C1352.54 405.019 1359.91 400.464 1366.06 394.661C1371.17 389.847 1375.32 384.061 1378.38 377.751C1385.22 363.63 1386.7 347.764 1388.8 332.426C1391.41 313.334 1393.98 294.237 1396.58 275.143C1398.77 259.009 1400.68 242.415 1397.87 226.235C1395.69 213.713 1390.64 201.768 1382.87 191.688C1374.8 181.223 1364.15 173.033 1352.4 167.092C1345.85 163.785 1339.21 160.286 1331.93 158.948C1327.52 158.174 1323.08 158.085 1318.62 158.179C1313.96 158.276 1309.3 158.411 1304.63 158.587C1295.09 158.946 1285.56 159.488 1276.06 160.451C1260.71 162.009 1245.43 164.536 1230.81 169.589C1218.1 173.984 1205.94 179.997 1194.73 187.437C1183.58 194.837 1173.34 203.61 1164.3 213.48C1155.28 223.337 1147.42 234.276 1140.97 245.975C1134.43 257.816 1129.3 270.451 1125.75 283.499C1123.94 290.124 1122.54 296.858 1121.56 303.654C1120.23 312.867 1118.64 322.04 1117.68 331.306C1115.72 350.216 1113.25 369.297 1115.84 388.275C1117.77 402.328 1122.94 415.551 1131.61 426.837C1139.85 437.58 1150.66 446.258 1162.86 452.124C1176.46 458.662 1191.5 461.453 1206.54 461.536C1222.95 461.627 1239.21 458.31 1254.73 453.116C1270.55 447.822 1285.69 440.67 1300.51 433.047ZM1182.36 455.829C1169.36 452.82 1157.02 446.813 1146.74 438.273C1136.62 429.86 1128.44 419.05 1123.6 406.777C1117.41 391.067 1117.07 373.743 1118.2 357.107C1119.44 338.869 1121.92 320.75 1124.72 302.699C1126.77 289.449 1130.42 276.451 1135.56 264.065C1140.58 251.958 1147.07 240.444 1154.78 229.846C1162.43 219.321 1171.36 209.711 1181.28 201.287C1191.27 192.801 1202.31 185.559 1214.08 179.782C1226.08 173.89 1238.84 169.582 1251.95 166.957C1269.44 163.454 1287.33 162.227 1305.12 161.569C1309.54 161.405 1313.97 161.279 1318.39 161.183C1322.65 161.091 1326.92 161.101 1331.13 161.841C1338.49 163.193 1345.26 166.761 1351.84 170.172C1357.67 173.195 1363.25 176.759 1368.32 180.952C1377.77 188.782 1385.4 198.716 1390.11 210.086C1395.25 222.493 1396.61 235.67 1396.12 248.988C1395.77 258.375 1394.61 267.709 1393.32 277.005C1392.02 286.327 1390.71 295.645 1389.46 304.974C1388.2 314.433 1386.97 323.896 1385.67 333.35C1384.55 341.471 1383.6 349.666 1381.88 357.687C1378.97 371.267 1373.36 384.159 1362.83 393.56C1356.51 399.208 1349.06 403.618 1341.68 407.73C1334.46 411.757 1327.1 415.549 1319.81 419.451C1305.32 427.209 1290.81 435.001 1275.77 441.671C1261.02 448.213 1245.67 453.662 1229.74 456.499C1214.14 459.279 1197.85 459.412 1182.36 455.829Z" fill="#E2DED3" fill-opacity="0.02"/>
<path d="M1072.21 744.095C1071.82 741.23 1071.4 738.369 1070.95 735.514C1070.52 732.795 1070.2 729.993 1069.37 727.36C1067.93 722.767 1064.57 719.705 1059.75 719.007C1054.64 718.266 1049.05 718.725 1044.25 720.673C1040.08 722.368 1036.45 725.103 1033.91 728.844C1031.3 732.779 1029.65 737.265 1027.19 741.297C1024.86 745.115 1022.19 748.715 1019.3 752.122C1013.23 759.272 1006.24 765.638 998.845 771.39C991.481 777.114 983.636 782.242 975.486 786.775C968.599 790.605 961.479 793.749 954.188 796.713C947.38 799.48 940.479 802.361 934.643 806.919C928.702 811.56 924.683 817.969 923.621 825.482C922.875 830.751 923.335 836.092 925.528 840.976C927.537 845.449 930.961 849.087 934.881 851.96C944.29 858.856 956.437 861.729 967.742 863.642C980.79 865.85 994.036 866.664 1007.24 867.253C1013.1 867.514 1018.96 867.714 1024.82 868.015C1032.58 868.413 1040.54 869.312 1048.04 866.706C1063.4 861.373 1069.46 844.668 1072.05 830.006C1076.03 807.416 1076.15 784.105 1074.15 761.307C1073.64 755.555 1072.99 749.817 1072.21 744.095ZM1070.57 819.504C1069.56 827.839 1068.21 836.234 1065.19 844.111C1062.64 850.782 1058.65 857.271 1052.54 861.214C1045.4 865.817 1036.97 865.764 1028.79 865.241C1023.48 864.902 1018.17 864.71 1012.86 864.492C1000.23 863.972 987.578 863.386 975.036 861.728C963.606 860.216 951.628 857.983 941.367 852.479C937.3 850.297 933.416 847.495 930.639 843.758C927.902 840.073 926.43 835.688 926.28 831.105C926.067 824.56 928.038 818.03 932.415 813.085C937.051 807.848 943.442 804.567 949.754 801.797C956.406 798.878 963.232 796.414 969.747 793.182C977.601 789.287 985.163 784.79 992.378 779.813C1006.98 769.742 1021.1 757.452 1030.24 742.05C1032.5 738.245 1034.05 734.049 1036.5 730.358C1039.06 726.596 1043.08 723.986 1047.42 722.738C1049.99 722.002 1052.64 721.71 1055.3 721.713C1057.49 721.716 1059.82 721.785 1061.86 722.656C1066.67 724.705 1067.1 730.367 1067.83 734.886C1068.74 740.547 1069.54 746.226 1070.19 751.922C1072.77 774.337 1073.29 797.076 1070.57 819.504Z" fill="#E2DED3" fill-opacity="0.02"/>
<path d="M1439 95.1411V92.1484C1422.67 92.1956 1406.34 92.6591 1390.03 93.5203C1364.98 94.8429 1339.99 97.0843 1315.09 100.129C1290.3 103.161 1265.61 106.975 1241.04 111.485C1217.83 115.747 1194.61 120.383 1171.92 126.962C1149.97 133.327 1128.44 141.634 1108.75 153.327C1091.22 163.732 1075.35 177.014 1062.61 192.969C1050.27 208.436 1040.8 226.414 1036.63 245.849C1034.38 256.363 1033.77 267.123 1034.55 277.84C1035.39 289.579 1037.72 301.156 1040.43 312.59C1045.85 335.48 1052.73 358.153 1053.26 381.852C1053.74 403.196 1049.74 424.374 1042.74 444.491C1035.54 465.182 1025.25 484.703 1013.48 503.137C1001.47 521.939 987.856 539.671 973.514 556.744C959.38 573.568 944.736 590.073 928.964 605.387C913.194 620.698 896.098 634.789 877.045 645.843C867.324 651.483 857.137 656.262 846.564 660.074C835.497 664.065 824.103 667.085 812.602 669.525C789.312 674.466 765.619 677.06 742.115 680.723C721.527 683.932 701.032 688.149 681.417 695.308C662.747 702.122 644.834 711.578 630.064 725.023C622.295 732.095 615.88 740.233 609.987 748.899C603.729 758.099 597.656 767.571 589.078 774.824C580.526 782.056 570.258 786.933 560.082 791.418C555.036 793.643 550.012 795.791 544.596 796.95C540.019 797.93 535.352 798.205 530.68 798.153C525.841 798.099 521.011 797.753 516.174 797.624C511.084 797.488 506.001 797.614 500.925 798.028C491.907 798.763 482.952 800.207 474.075 801.933C454.478 805.745 435.179 810.927 415.734 815.42C396.628 819.834 377.237 823.852 357.599 824.756C348.694 825.167 339.7 824.932 330.896 823.449C324.467 822.366 318.362 820.358 312.171 818.394C298.807 814.153 285.409 810.024 272.113 805.573C258.039 800.861 243.785 796.093 230.395 789.636C228.032 788.496 225.691 787.291 223.459 785.909C221.751 784.851 220.747 783.955 219.18 782.836C216.316 780.79 213.032 779.344 209.79 778.016C200.021 774.013 189.703 771.306 179.498 768.682C166.157 765.252 152.722 762.201 139.305 759.092C125.335 755.854 111.364 752.597 97.4995 748.928C85.3496 745.713 73.1954 742.257 61.4853 737.659C56.9807 735.891 52.5293 733.929 48.3192 731.534C45.0157 729.654 42.2146 727.833 39.7065 725.087C39.471 724.829 39.2445 724.564 39.0218 724.295C38.9633 724.225 38.9066 724.152 38.85 724.08C38.8451 724.074 38.8462 724.075 38.8405 724.067C38.7204 723.906 38.6023 723.743 38.4882 723.578C38.1022 723.017 37.7683 722.431 37.4667 721.821C37.4378 721.762 37.3526 721.56 37.3233 721.492C37.2873 721.402 37.2499 721.312 37.2191 721.22C37.103 720.874 36.9954 720.524 36.8761 720.179C36.5826 719.33 36.2341 718.497 35.8541 717.683C34.1968 714.132 31.7622 710.953 29.1702 708.038C21.9658 699.935 13.0131 693.365 4.0748 687.317C2.3961 686.181 0.7018 685.069 -1 683.968V687.542C0.7275 688.675 2.4469 689.82 4.1489 690.991C12.7525 696.909 21.3734 703.371 28.1299 711.409C29.366 712.879 30.422 714.274 31.5058 715.998C31.9681 716.734 32.4035 717.486 32.8021 718.258C33.2454 719.117 33.5118 719.713 33.7536 720.346C34.2852 721.736 34.6837 723.135 35.4625 724.42C36.276 725.762 37.3096 726.985 38.4299 728.081C41.2108 730.801 44.5735 732.926 47.9764 734.775C52.4367 737.199 57.1308 739.191 61.8653 741.009C73.7147 745.561 85.9826 749.013 98.2506 752.229C112.144 755.872 126.137 759.119 140.128 762.36C153.472 765.451 166.833 768.493 180.093 771.935C185.658 773.38 191.208 774.897 196.701 776.597C201.014 777.933 205.729 779.52 209.644 781.179C211.328 781.892 212.991 782.663 214.598 783.536C215.302 783.919 215.996 784.321 216.67 784.754C216.948 784.932 217.223 785.115 217.493 785.304C217.637 785.404 217.778 785.508 217.92 785.61C217.975 785.65 218.03 785.692 218.084 785.733C218.097 785.742 218.1 785.744 218.109 785.751C221.901 788.759 226.164 790.976 230.542 793.013C244.276 799.402 258.739 804.283 273.094 809.059C286.16 813.407 299.325 817.444 312.444 821.627C318.915 823.69 325.304 825.651 332.049 826.65C340.976 827.972 350.023 828.173 359.025 827.685C378.706 826.619 398.139 822.578 417.294 818.136C436.716 813.632 455.999 808.46 475.584 804.689C484.391 802.993 493.27 801.584 502.22 800.927C507.395 800.548 512.576 800.496 517.761 800.673C522.538 800.836 527.312 801.173 532.094 801.16C536.813 801.147 541.536 800.733 546.142 799.677C551.534 798.442 556.554 796.231 561.596 794.009C571.779 789.52 581.903 784.613 590.543 777.493C599.185 770.372 605.401 761.013 611.618 751.826C617.534 743.085 623.844 734.834 631.626 727.657C646.293 714.13 664.278 704.673 682.946 697.936C702.631 690.832 723.177 686.669 743.813 683.477C767.319 679.84 791.01 677.229 814.286 672.228C836.792 667.393 858.592 660.018 878.559 648.434C897.577 637.399 914.703 623.349 930.477 608.097C946.282 592.816 960.937 576.322 975.09 559.513C989.429 542.483 1003.07 524.807 1015.15 506.087C1027.01 487.698 1037.37 468.233 1044.81 447.619C1052.02 427.611 1056.33 406.469 1056.3 385.152C1056.28 373.726 1054.91 362.387 1052.69 351.188C1050.36 339.436 1047.24 327.865 1044.39 316.234C1038.99 294.201 1034.71 271.481 1039.07 248.869C1042.83 229.379 1052 211.208 1064.26 195.692C1076.92 179.658 1092.72 166.332 1110.26 155.917C1130 144.198 1151.56 135.939 1173.57 129.609C1196.29 123.073 1219.54 118.454 1242.79 114.204C1267.41 109.703 1292.15 105.894 1317 102.897C1341.9 99.8934 1366.9 97.6961 1391.95 96.4206C1407.62 95.6226 1423.31 95.1864 1439 95.1411Z" fill="#E2DED3" fill-opacity="0.02"/>
<path d="M924.245 319.245C919.115 335.696 911.948 351.449 903.578 366.493C895.004 381.903 885.166 396.587 874.627 410.716C864.115 424.809 852.869 438.337 841.294 451.565C829.769 464.737 817.917 477.649 805.224 489.71C792.628 501.678 779.188 512.813 764.557 522.219C749.445 531.936 733.189 539.475 716.014 544.752C698.062 550.268 679.525 553.575 660.981 556.363C642.647 559.12 624.219 561.331 605.986 564.724C590.127 567.675 574.395 571.593 559.268 577.239C544.438 582.774 530.124 589.971 517.53 599.625C511.293 604.405 505.487 609.729 500.318 615.653C494.65 622.149 489.963 629.37 485.108 636.472C480.142 643.737 474.857 650.819 468.062 656.491C461.297 662.138 453.437 666.34 445.487 670.054C437.289 673.883 428.954 677.525 420.316 680.247C412.043 682.855 403.527 684.636 394.918 685.682C376.155 687.96 357.041 687.687 338.241 686.027C318.873 684.316 299.676 680.966 280.736 676.607C261.84 672.258 243.189 666.895 224.733 660.962C217.983 658.792 211.274 656.512 204.486 654.461C197.936 652.483 191.372 650.548 184.85 648.479C177.942 646.289 171.065 643.973 164.336 641.28C158.606 638.987 152.865 636.433 147.719 632.994C145.681 631.633 143.836 630.022 141.888 628.539C139.771 626.927 137.596 625.392 135.395 623.897C130.266 620.411 125 617.129 119.726 613.869C107.862 606.538 95.8813 599.362 84.4744 591.324C74.5492 584.331 64.2619 576.555 57.2375 566.493C55.8085 564.446 54.5238 562.286 53.51 560.002C52.5955 557.942 52.0472 555.745 51.1965 553.659C49.2722 548.938 46.654 544.554 43.649 540.445C36.3917 530.523 27.2654 522.048 17.7343 514.35C11.6947 509.472 5.4236 504.887 -1 500.524V504.141C5.4438 508.568 11.725 513.229 17.7425 518.213C26.9465 525.836 35.8768 534.255 42.629 544.183C45.3462 548.179 47.7386 552.46 49.2681 557.058C50.8869 561.924 53.187 566.222 56.3304 570.284C64.0447 580.253 74.4689 588.04 84.7509 595.166C96.1916 603.094 108.158 610.219 119.98 617.554C125.157 620.767 130.322 624.011 135.332 627.482C139.508 630.375 143.318 633.828 147.635 636.504C153.069 639.872 159.015 642.411 164.956 644.734C171.726 647.379 178.63 649.672 185.563 651.849C192.008 653.872 198.491 655.775 204.955 657.738C211.982 659.872 218.927 662.26 225.924 664.491C244.404 670.385 263.084 675.695 282.009 679.972C300.914 684.243 320.081 687.486 339.402 689.127C358.169 690.722 377.266 690.938 395.978 688.55C404.57 687.453 413.056 685.693 421.317 683.076C429.924 680.35 438.231 676.711 446.414 672.917C454.44 669.196 462.272 664.98 469.192 659.424C476.071 653.901 481.492 646.951 486.491 639.742C491.432 632.617 496.047 625.251 501.689 618.644C506.79 612.67 512.539 607.252 518.748 602.443C531.277 592.738 545.612 585.497 560.431 579.996C575.567 574.377 591.304 570.481 607.165 567.545C625.424 564.166 643.875 561.956 662.231 559.188C680.772 556.391 699.304 553.062 717.244 547.511C734.364 542.215 750.627 534.699 765.72 525.036C780.339 515.676 793.814 504.606 806.425 492.703C819.159 480.684 831.041 467.797 842.582 454.639C854.149 441.451 865.384 427.965 875.933 413.945C886.537 399.852 896.454 385.211 905.135 369.85C913.605 354.864 920.909 339.157 926.263 322.781C931.489 306.797 934.794 290.144 935.478 273.323C936.218 255.12 933.351 237.289 929.154 219.63C924.804 201.327 919.357 183.154 917.325 164.391C916.359 155.474 916.194 146.457 917.245 137.54C918.157 129.793 919.998 122.149 922.557 114.785C927.722 99.9209 935.948 86.1701 945.992 74.096C956.187 61.8406 968.257 51.1536 981.536 42.3459C996.588 32.3624 1013.04 24.5998 1029.98 18.4172C1047.18 12.1433 1064.9 7.4428 1082.76 3.4653C1088.18 2.2565 1093.62 1.1077 1099.07 0H1084.58C1083.63 0.2076 1082.69 0.4097 1081.74 0.6207C1063.89 4.604 1046.17 9.3135 1028.98 15.5999C1012.05 21.7926 995.581 29.5094 980.502 39.4385C967.199 48.1979 955.035 58.781 944.737 70.9427C934.552 82.9696 926.166 96.5427 920.626 111.325C914.771 126.945 912.617 143.516 913.925 160.13C915.403 178.9 920.536 197.1 925.021 215.308C927.278 224.474 929.389 233.69 930.807 243.028C932.133 251.761 932.734 260.593 932.589 269.425C932.313 286.345 929.276 303.109 924.245 319.245Z" fill="#E2DED3" fill-opacity="0.02"/>
<path d="M1348.76 818.014C1345.63 836.236 1341.45 854.341 1335.68 871.915C1329.57 890.506 1322.04 908.923 1319.38 928.431C1318.11 937.665 1318.02 947.081 1320.06 956.216C1322.22 965.915 1326.85 974.831 1333.2 982.441C1341.24 992.064 1351.73 999.802 1363.91 1003.19C1375.1 1006.3 1386.94 1005.58 1398.09 1002.69C1410.83 999.377 1422.81 993.434 1434 986.604C1435.68 985.577 1437.34 984.525 1439 983.453V979.875C1430.51 985.492 1421.65 990.567 1412.31 994.592C1401.61 999.199 1390.03 1002.42 1378.31 1002.23C1367.14 1002.04 1356.47 998.406 1347.45 991.83C1333.87 981.929 1324.17 966.842 1322 950.083C1319.55 931.148 1325.28 912.121 1331.21 894.356C1334.28 885.165 1337.6 876.055 1340.46 866.792C1343.06 858.352 1345.25 849.779 1347.21 841.168C1351.45 822.429 1354.45 803.391 1356.2 784.257C1358.01 764.448 1358.48 744.47 1357.02 724.622C1355.63 705.843 1352.57 687.025 1346.52 669.151C1345.16 665.139 1343.65 661.183 1341.97 657.293C1339.71 652.048 1337.39 646.842 1335.89 641.317C1333.04 630.508 1334.56 618.875 1339.29 608.808C1341.61 603.87 1344.63 599.254 1348.08 595.038C1351.37 591.032 1355.03 586.86 1359.4 584.014C1363.57 581.295 1368.58 579.762 1373.57 580.523C1379.16 581.373 1384.26 584.368 1389 587.269C1398.36 592.992 1407.62 598.874 1416.77 604.927C1424.26 609.883 1431.67 614.961 1439 620.153V616.491C1430.2 610.288 1421.28 604.253 1412.26 598.385C1407.63 595.375 1402.97 592.408 1398.29 589.482C1393.47 586.473 1388.69 583.247 1383.57 580.786C1378.67 578.432 1373.46 576.799 1367.97 577.553C1362.94 578.247 1358.34 580.686 1354.51 583.967C1350.42 587.467 1346.81 591.651 1343.59 595.951C1340.35 600.28 1337.59 604.957 1335.53 609.959C1331.35 620.097 1330.19 631.463 1333 642.115C1334.57 647.888 1337.02 653.327 1339.38 658.807C1341.14 662.895 1342.69 667.077 1344.08 671.305C1347.01 680.227 1349.2 689.386 1350.83 698.632C1354.28 718.171 1355.26 738.121 1354.75 757.935C1354.24 778.07 1352.16 798.167 1348.76 818.014Z" fill="#E2DED3" fill-opacity="0.02"/>
<path d="M1417.47 835.927C1414.76 844.007 1411.59 852.055 1410.66 860.59C1409.73 869.162 1411.94 877.421 1417.77 883.892C1421.34 887.858 1425.91 890.983 1431.13 892.292C1433.71 892.94 1436.36 893.133 1439 892.989V889.991C1438.2 890.04 1437.39 890.067 1436.58 890.041C1431.91 889.892 1427.45 888.244 1423.75 885.396C1417.96 880.943 1414.06 874.326 1413.52 866.999C1412.92 858.885 1415.53 850.896 1418.11 843.317C1420.63 835.886 1423.04 828.499 1424.72 820.823C1426.49 812.75 1427.73 804.55 1428.44 796.315C1429.82 780.128 1429.39 763.044 1424.09 747.535C1422.74 743.565 1420.72 739.835 1419.6 735.788C1418.41 731.288 1419.07 726.409 1421.09 722.24C1422.09 720.18 1423.37 718.246 1424.83 716.491C1426.24 714.81 1427.79 713.04 1429.7 711.912C1431.58 710.798 1433.7 710.403 1435.82 710.999C1436.94 711.311 1437.99 711.78 1439 712.32V708.998C1438.61 708.829 1438.23 708.658 1437.83 708.51C1433.33 706.808 1428.89 708.17 1425.48 711.413C1422.13 714.609 1419.28 718.464 1417.61 722.803C1415.91 727.172 1415.51 732.041 1416.71 736.585C1417.91 740.915 1420.08 744.906 1421.48 749.176C1422.74 753.012 1423.68 756.949 1424.38 760.923C1425.87 769.44 1426.25 778.145 1425.99 786.778C1425.5 803.383 1422.75 820.16 1417.47 835.927Z" fill="#E2DED3" fill-opacity="0.02"/>
<path d="M1386.07 815.038C1383.82 828.13 1380.79 841.128 1376.63 853.749C1372.21 867.127 1366.86 880.376 1365.02 894.434C1364.15 901.058 1364.19 907.831 1365.73 914.356C1367.37 921.279 1370.77 927.614 1375.36 933.027C1381.16 939.865 1388.71 945.333 1397.43 947.711C1405.48 949.907 1414 949.368 1422.01 947.271C1427.9 945.729 1433.56 943.397 1439 940.623V937.244C1436.56 938.522 1434.09 939.721 1431.56 940.802C1423.96 944.051 1415.73 946.31 1407.41 946.129C1399.46 945.955 1391.91 943.283 1385.53 938.555C1375.84 931.379 1369.03 920.443 1367.73 908.391C1366.27 894.847 1370.44 881.372 1374.7 868.689C1376.89 862.183 1379.24 855.728 1381.23 849.159C1383.06 843.135 1384.61 837.021 1385.99 830.879C1388.99 817.482 1391.1 803.874 1392.33 790.2C1393.59 776.07 1393.89 761.82 1392.82 747.666C1391.8 734.325 1389.59 720.958 1385.28 708.263C1383.02 701.599 1379.6 695.341 1377.74 688.545C1375.69 680.748 1376.87 672.347 1380.37 665.137C1382.07 661.65 1384.25 658.395 1386.73 655.424C1389.07 652.64 1391.64 649.741 1394.76 647.821C1397.78 645.957 1401.38 645.017 1404.91 645.772C1408.87 646.623 1412.39 648.766 1415.81 650.861C1422.44 654.926 1428.99 659.102 1435.47 663.399C1436.65 664.184 1437.82 664.994 1439 665.786V662.175C1436.51 660.51 1434.02 658.846 1431.51 657.217C1428.16 655.043 1424.78 652.9 1421.39 650.787C1417.99 648.666 1414.61 646.392 1410.96 644.727C1407.39 643.103 1403.7 642.112 1399.77 642.735C1396.19 643.302 1392.92 645.126 1390.21 647.48C1384.46 652.472 1379.59 659.049 1376.68 666.085C1373.65 673.413 1372.82 681.642 1374.85 689.343C1376.79 696.423 1380.36 702.943 1382.67 709.907C1384.8 716.312 1386.38 722.89 1387.56 729.532C1390.06 743.604 1390.75 757.979 1390.38 772.25C1390 786.591 1388.51 800.903 1386.07 815.038Z" fill="#E2DED3" fill-opacity="0.02"/>
<path d="M9.5911 256.921C14.4223 272.852 20.6536 288.369 28.1789 303.219C35.6584 317.978 44.4378 332.083 54.4328 345.272C65.2346 359.524 78.1629 372.073 88.4151 386.748C93.4949 394.02 97.9274 401.862 101.027 410.188C103.989 418.147 105.912 426.442 107.66 434.737C111.108 451.111 113.945 468.18 122.615 482.784C126.564 489.437 131.736 495.341 137.874 500.054C144.069 504.811 151.115 508.002 158.648 509.987C167.312 512.27 176.267 513.06 185.087 514.51C193.741 515.933 202.068 518.286 210.119 521.78C218.215 525.314 226.001 529.578 234.2 532.868C241.013 535.602 248.115 537.599 255.347 538.854C269.817 541.365 284.656 540.959 299.052 538.151C313.798 535.275 328.043 529.878 341.169 522.593C354.451 515.221 366.669 505.853 377.212 494.915C387.839 483.889 398.42 472.675 409.984 462.615C421.051 452.987 433.32 444.769 446.956 439.24C464.124 432.279 482.624 429.016 500.73 425.523C518.332 422.127 535.746 418.307 552.828 412.809C569.537 407.432 585.854 400.817 601.592 393.044C617.441 385.216 632.701 376.197 647.192 366.074C659.564 357.431 671.362 347.877 682.634 337.847C694.215 327.543 705.213 316.546 715.192 304.675C725.144 292.835 734.139 280.11 741.29 266.375C748.254 253.002 753.482 238.638 755.837 223.714C758.604 206.174 757.25 188.254 753.615 170.941C751.656 161.612 749.03 152.431 745.998 143.397C743.385 135.611 740.596 127.849 737.16 120.383C731.229 107.496 723.257 95.3822 712.655 85.8545C707.38 81.113 701.511 77.0292 695.213 73.7644C687.442 69.736 679.089 66.6641 670.809 63.8686C652.432 57.6639 633.638 52.5894 614.942 47.4513C596.112 42.2767 577.207 37.3736 558.202 32.8818C539.154 28.3797 520.006 24.2906 500.753 20.7663C481.679 17.275 462.5 14.3406 443.237 12.1061C424.011 9.87584 404.7 8.35474 385.355 7.69974C365.997 7.04424 346.606 7.25774 327.274 8.47724C318.071 9.05784 308.731 10.8717 300.178 14.3764C292.305 17.6022 285.183 22.3579 279.118 28.3251C269.437 37.8521 262.848 49.8531 254.913 60.7507C251.136 65.9369 246.956 70.891 241.96 74.9485C236.832 79.1127 230.769 82.1537 224.334 83.6723C206.531 87.8739 187.755 87.5145 169.616 86.4796C151.322 85.4358 133.062 83.4364 114.72 83.4798C105.665 83.5012 96.6082 84.0482 87.6547 85.4329C78.4771 86.8523 69.4262 89.2453 60.6563 92.2858C51.8312 95.3456 43.1897 99.0491 34.8524 103.259C27.2647 107.09 19.6181 111.602 13.6377 117.729C4.9327 126.647 0.8391 138.419 -1 150.489V204.478C-0.8808 205.598 -0.7706 206.721 -0.6396 207.837C1.3114 224.461 4.7336 240.903 9.5911 256.921ZM1.1517 157.648C2.3953 143.138 6.4445 128.317 17.5067 118.155C23.9272 112.257 31.8161 107.993 39.6267 104.247C48.0757 100.195 56.7604 96.605 65.6959 93.7698C74.4331 90.9975 83.4046 88.8823 92.5075 87.762C101.444 86.6621 110.463 86.3703 119.46 86.5127C137.656 86.8007 155.762 88.8363 173.929 89.7068C182.961 90.1396 192.018 90.2869 201.05 89.7706C205.532 89.5144 210.002 89.0851 214.449 88.4699C218.723 87.8787 223.071 87.2181 227.219 86.0049C233.607 84.1364 239.46 80.9212 244.568 76.6696C249.468 72.5912 253.561 67.6539 257.314 62.5253C265.146 51.8189 271.593 39.9988 281.089 30.5963C287.129 24.6151 294.303 19.8349 302.241 16.7642C310.93 13.4026 320.176 11.8933 329.437 11.3449C348.611 10.2096 367.839 10.0591 387.033 10.7586C406.217 11.4578 425.366 13.0044 444.43 15.2454C463.505 17.4875 482.493 20.4356 501.379 23.9207C520.391 27.4291 539.3 31.4848 558.111 35.9417C576.956 40.4065 595.704 45.2742 614.378 50.4083C632.92 55.5064 651.555 60.5455 669.786 66.685C678.013 69.4559 686.315 72.4858 694.019 76.5217C700.231 79.7757 706.006 83.8149 711.173 88.5557C721.609 98.1305 729.326 110.215 735.103 123.069C738.507 130.641 741.262 138.529 743.841 146.414C746.732 155.25 749.217 164.229 751.052 173.346C754.484 190.395 755.613 208.114 752.542 225.305C749.904 240.07 744.499 254.209 737.367 267.37C730.039 280.894 720.966 293.422 710.936 305.061C700.914 316.691 689.934 327.476 678.397 337.595C667.064 347.535 655.231 356.973 642.783 365.485C628.319 375.375 613.109 384.172 597.331 391.795C581.63 399.382 565.366 405.786 548.716 410.966C531.693 416.261 514.342 419.855 496.856 423.223C479.074 426.648 460.952 430.068 444.196 437.162C430.76 442.851 418.698 451.051 407.727 460.612C396.317 470.555 385.819 481.606 375.352 492.522C364.914 503.406 352.84 512.685 339.655 520.003C326.689 527.198 312.644 532.472 298.075 535.293C283.882 538.04 269.135 538.38 254.899 535.738C248.037 534.464 241.301 532.517 234.827 529.907C226.934 526.724 219.434 522.595 211.633 519.19C203.403 515.618 194.96 513.122 186.108 511.654C177.067 510.155 167.877 509.371 159.005 506.977C151.522 504.957 144.546 501.678 138.514 496.765C132.597 491.945 127.707 485.957 124.061 479.258C115.969 464.389 113.481 447.374 109.933 431.042C108.151 422.838 106.096 414.653 102.936 406.857C99.6083 398.649 95.1062 390.923 89.9453 383.738C79.6586 369.417 66.9982 357.026 56.4077 342.942C46.5437 329.823 37.8774 315.809 30.4908 301.153C23.0493 286.389 16.9257 270.971 12.1854 255.132C7.4253 239.226 4.0432 222.893 2.195 206.391C0.3921 190.295 -0.233 173.805 1.1517 157.648Z" fill="#E2DED3" fill-opacity="0.02"/>
<path d="M884.438 278.335C879.753 293.73 873.273 308.525 865.676 322.696C857.895 337.209 848.954 351.08 839.337 364.439C829.693 377.838 819.35 390.721 808.635 403.276C798.024 415.709 787.144 427.943 775.7 439.618C764.281 451.268 752.246 462.38 739.235 472.241C726.336 482.017 712.474 490.577 697.657 497.131C681.631 504.22 664.609 508.82 647.461 512.249C630.158 515.708 612.652 517.995 595.193 520.498C579.053 522.812 562.921 525.306 547.07 529.184C532.447 532.761 518.047 537.436 504.401 543.831C491.078 550.075 478.494 558.063 467.754 568.166C462.213 573.378 457.278 579.149 452.844 585.326C448.034 592.025 443.725 599.087 438.643 605.59C433.521 612.143 427.557 617.746 420.559 622.257C413.562 626.768 405.983 630.281 398.375 633.62C382.589 640.548 366.401 646.576 349.24 648.96C332.588 651.273 315.623 650.117 299.204 646.724C282.84 643.341 266.986 637.884 251.449 631.806C235.621 625.615 220.068 618.749 204.293 612.43C196.46 609.292 188.572 606.287 180.579 603.582C174.323 601.465 167.963 599.68 161.628 597.818C154.678 595.774 147.738 593.665 140.951 591.122C134.706 588.782 128.496 586.078 122.943 582.346C120.307 580.574 117.917 578.468 115.507 576.406C112.758 574.055 110.045 571.662 107.371 569.226C101.634 564 96.0712 558.579 90.7475 552.931C80.1525 541.692 70.2005 529.471 63.0514 515.711C61.4384 512.607 59.9818 509.42 58.7687 506.137C57.7041 503.256 56.8869 500.298 55.7316 497.449C53.405 491.71 50.3633 486.301 46.8598 481.201C39.0046 469.767 29.1113 459.796 18.5198 450.893C12.2827 445.651 5.7506 440.756 -1 436.183V439.805C5.8276 444.505 12.4211 449.544 18.6846 454.964C29.0199 463.908 38.7065 473.924 46.1009 485.474C49.3445 490.541 52.1556 495.922 54.1002 501.625C55.1688 504.759 56.1719 507.878 57.4757 510.928C58.8836 514.221 60.4982 517.423 62.2584 520.541C69.9212 534.115 80.1003 546.25 90.8937 557.429C96.2333 562.96 101.795 568.275 107.524 573.401C112.449 577.807 117.401 582.473 123.032 585.972C128.813 589.563 135.173 592.205 141.551 594.531C148.35 597.011 155.289 599.088 162.232 601.121C168.659 603.003 175.09 604.856 181.424 607.035C189.409 609.783 197.293 612.819 205.124 615.977C220.95 622.36 236.569 629.251 252.485 635.413C268.027 641.43 283.906 646.781 300.287 649.995C316.753 653.226 333.61 654.172 350.259 651.822C367.389 649.403 383.528 643.371 399.297 636.469C406.911 633.137 414.502 629.654 421.533 625.193C428.526 620.755 434.646 615.321 439.842 608.872C445.004 602.466 449.367 595.484 454.079 588.753C458.492 582.45 463.365 576.544 468.913 571.203C479.538 560.974 492.09 552.955 505.392 546.668C519.012 540.23 533.441 535.596 548.058 532.03C563.848 528.179 579.915 525.695 595.991 523.39C613.449 520.887 630.956 518.601 648.258 515.142C665.401 511.714 682.337 507.074 698.385 500.067C713.24 493.581 727.143 485.074 740.08 475.336C753.105 465.533 765.186 454.542 776.632 442.948C788.121 431.311 799.021 419.092 809.66 406.678C820.375 394.176 830.727 381.35 840.42 368.036C850.116 354.718 859.155 340.896 867.061 326.436C874.808 312.268 881.48 297.46 886.413 282.071C891.233 267.033 894.341 251.414 895.163 235.629C896.041 218.753 893.891 202.115 890.212 185.667C886.36 168.447 881.243 151.499 878.366 134.067C875.702 117.929 875.388 101.52 879.282 85.5558C882.76 71.2932 889.109 57.8674 897.34 45.7433C905.709 33.4155 916.031 22.4382 927.532 12.9854C933.294 8.2496 939.391 3.9482 945.713 0H940.185C935.46 3.1202 930.868 6.443 926.458 10.0102C914.872 19.3812 904.5 30.2856 895.944 42.4967C887.537 54.4958 880.936 67.8539 877.095 82.0173C872.857 97.6464 872.514 113.741 874.698 129.728C877.086 147.217 882.079 164.196 886.137 181.336C890.064 197.922 892.797 214.641 892.318 231.736C891.876 247.551 889.04 263.214 884.438 278.335Z" fill="#E2DED3" fill-opacity="0.02"/>
<path d="M36.0785 28.9086C45.6345 29.4917 55.196 29.9798 64.7597 30.4177C73.8219 30.8326 82.8861 31.2016 91.9501 31.5729C100.284 31.9143 108.618 32.2559 116.949 32.6604C124.321 33.0183 131.692 33.4263 139.054 33.9664C154.065 35.0676 169.784 34.6862 184.38 30.6842C195.392 27.665 205.641 22.3744 214.488 15.1605C219.941 10.7134 224.787 5.5724 229.077 0H225.257C220.397 6.0149 214.833 11.4662 208.536 15.9615C199.245 22.5947 188.621 27.0258 177.434 29.2374C163.57 31.9782 149.393 31.6552 135.371 30.7058C127.895 30.1996 120.411 29.816 112.927 29.47C104.539 29.0821 96.1484 28.7451 87.7585 28.4013C78.6876 28.0295 69.6169 27.6516 60.5486 27.2215C51.0672 26.7719 41.5883 26.2662 32.1155 25.6613C22.3579 25.0382 12.6066 24.3104 2.8689 23.4287C1.5788 23.3119 0.2896 23.1848 -1 23.0625V26.0693C1.535 26.3098 4.071 26.5401 6.6079 26.7597C16.4212 27.609 26.247 28.3087 36.0785 28.9086Z" fill="#E2DED3" fill-opacity="0.02"/>
<path d="M1230.96 991.282C1233.53 976.329 1237.83 961.725 1242.64 947.358C1247.43 933.041 1252.78 918.922 1257.73 904.66C1258.93 901.195 1260.17 897.73 1261.25 894.225C1262.23 891.019 1262.9 887.684 1263.69 884.423C1265.33 877.581 1266.88 870.717 1268.34 863.836C1271.45 849.255 1274.17 834.593 1276.5 819.868C1278.94 804.429 1280.95 788.92 1282.47 773.364C1284.02 757.537 1285.05 741.657 1285.47 725.76C1285.88 710.061 1285.69 694.34 1284.72 678.664C1283.77 663.392 1282.09 648.151 1279.44 633.078C1276.92 618.714 1273.5 604.489 1268.88 590.652C1266.75 584.278 1264.35 577.995 1261.69 571.827C1258.15 563.634 1254.52 555.478 1252.18 546.838C1247.64 529.592 1250.17 510.6 1257.92 494.633C1261.66 486.938 1266.39 479.719 1271.8 473.096C1274.48 469.808 1277.33 466.654 1280.32 463.648C1283.25 460.708 1286.29 457.912 1289.79 455.655C1296.43 451.371 1304.43 448.928 1312.35 450.243C1321.33 451.733 1329.41 456.376 1337.05 461.09C1351.67 470.115 1366.16 479.346 1380.5 488.817C1394.95 498.369 1409.25 508.165 1423.34 518.241C1428.59 521.995 1433.81 525.801 1439 529.633V525.916C1432.37 521.039 1425.7 516.221 1418.98 511.471C1404.71 501.393 1390.25 491.593 1375.64 482.037C1368.35 477.273 1361.02 472.571 1353.66 467.924C1346.23 463.228 1338.84 458.312 1331.1 454.115C1323.51 449.994 1314.93 446.424 1306.12 446.95C1298.07 447.43 1290.6 450.943 1284.35 455.9C1277.72 461.145 1271.99 467.819 1266.89 474.514C1261.69 481.33 1257.17 488.704 1253.74 496.567C1246.83 512.405 1244.87 530.872 1249.29 547.636C1251.71 556.582 1255.51 565.016 1259.17 573.501C1261.96 579.982 1264.42 586.61 1266.6 593.32C1271.17 607.347 1274.52 621.756 1276.97 636.296C1279.54 651.546 1281.1 666.956 1281.94 682.395C1282.8 698.369 1282.87 714.382 1282.33 730.369C1281.79 746.388 1280.63 762.384 1278.97 778.324C1277.34 793.933 1275.21 809.488 1272.65 824.971C1270.22 839.67 1267.4 854.305 1264.19 868.854C1262.68 875.69 1261.09 882.506 1259.41 889.3C1257.67 896.351 1255.1 903.193 1252.67 910.034C1247.53 924.515 1242.13 938.906 1237.46 953.549C1232.84 968.028 1228.93 982.783 1226.96 997.875C1225.83 1006.52 1225.4 1015.29 1225.96 1024H1228.93C1228.21 1013.08 1229.12 1002.04 1230.96 991.282Z" fill="#E2DED3" fill-opacity="0.02"/>
<path d="M740.091 1000.17C735.623 995.298 729.962 991.739 723.721 989.602C717.352 987.422 710.531 986.717 703.83 986.682C696.385 986.643 688.956 987.424 681.582 988.382C673.64 989.415 665.732 990.683 657.79 991.712C649.848 992.74 641.859 993.547 633.845 993.61C626.151 993.669 618.426 993.03 610.966 991.072C603.44 989.097 596.324 985.75 590.14 981.008C586.746 978.405 583.657 975.397 580.875 972.152C577.927 968.714 575.537 964.906 572.901 961.237C566.723 952.637 559.689 944.636 552.302 937.061C543.952 928.499 535.041 920.457 525.503 913.236C516.953 906.763 507.77 900.785 497.71 896.938C489.367 893.746 480.449 893.214 471.602 892.866C461.095 892.452 450.568 892.666 440.065 893.062C428.204 893.508 416.355 894.22 404.509 894.953C392.224 895.714 379.94 896.511 367.646 897.13C356.019 897.716 344.378 898.158 332.734 898.146C322.641 898.137 312.509 897.825 302.483 896.593C291.615 895.258 280.952 892.303 270.445 889.303C258.669 885.94 247.048 882.039 235.626 877.621C224.923 873.481 214.403 868.88 204.053 863.923C194.126 859.167 184.358 854.087 174.692 848.822C165.117 843.606 155.641 838.21 146.181 832.789C136.564 827.279 126.96 821.744 117.286 816.332C107.213 810.697 97.0618 805.198 86.7762 799.958C75.757 794.344 64.5847 789.031 53.2435 784.099C40.9488 778.752 28.4661 773.841 15.8138 769.406C10.2435 767.453 4.6368 765.569 -1 763.773V766.975C5.4175 769.007 11.8031 771.139 18.1421 773.405C30.6055 777.859 42.9041 782.771 55.0076 788.127C66.1324 793.049 77.0933 798.336 87.9093 803.904C98.0796 809.139 108.121 814.62 118.092 820.223C127.688 825.615 137.219 831.118 146.771 836.585C156.186 841.973 165.622 847.325 175.161 852.489C184.809 857.712 194.563 862.739 204.477 867.436C214.802 872.328 225.299 876.862 235.967 880.952C247.376 885.326 258.981 889.184 270.74 892.506C281.214 895.465 291.793 898.29 302.616 899.609C312.599 900.826 322.685 901.136 332.734 901.146C344.318 901.157 355.9 900.72 367.467 900.139C379.64 899.527 391.804 898.741 403.969 897.986C415.771 897.255 427.577 896.542 439.393 896.087C449.885 895.683 460.4 895.455 470.896 895.838C479.623 896.157 488.409 896.619 496.653 899.731C506.602 903.487 515.698 909.537 524.127 915.931C533.586 923.106 542.4 931.16 550.662 939.677C557.87 947.107 564.77 954.936 570.765 963.386C573.43 967.143 575.909 970.982 578.929 974.476C581.76 977.753 584.905 980.736 588.337 983.376C594.568 988.17 601.724 991.633 609.295 993.729C616.776 995.8 624.584 996.577 632.329 996.612C640.292 996.647 648.239 995.909 656.134 994.922C664.079 993.929 671.987 992.669 679.922 991.601C687.257 990.614 694.642 989.78 702.05 989.688C708.675 989.606 715.319 990.123 721.671 992.087C727.664 993.94 733.134 997.195 737.49 1001.78C742.852 1007.42 746.299 1014.61 748.629 1021.97C748.843 1022.64 749.023 1023.32 749.218 1024H752.339C752.079 1023.06 751.819 1022.11 751.522 1021.17C749.102 1013.53 745.544 1006.12 740.091 1000.17Z" fill="#E2DED3" fill-opacity="0.02"/>
<path d="M259.715 21.5255C252.324 32.441 243.224 42.306 232.411 49.9043C220.992 57.9285 207.939 63.2261 194.233 65.7728C177.249 68.9283 159.785 68.8068 142.63 67.375C133.49 66.6121 124.336 66.0305 115.179 65.5126C104.913 64.932 94.6424 64.4365 84.3716 63.9477C73.2634 63.419 62.1547 62.9003 51.0486 62.3304C39.3788 61.7316 27.7116 61.0775 16.0515 60.311C10.3657 59.9373 4.6817 59.5346 -1 59.1012V62.0969C6.137 62.6415 13.2775 63.1402 20.4208 63.5931C32.1153 64.3345 43.8162 64.9698 55.5194 65.5573C66.6139 66.1142 77.7107 66.6269 88.8064 67.1597C99.0134 67.6497 109.22 68.1544 119.421 68.758C128.456 69.2926 137.488 69.9003 146.502 70.7103C156.237 71.585 166.209 71.5655 175.959 70.9693C184.532 70.4451 193.187 69.3485 201.526 67.2483C215.05 63.8425 227.693 57.6188 238.634 48.9758C249.17 40.6523 257.91 30.2243 265.019 18.8717C268.808 12.8212 272.142 6.4969 275.104 0H271.802C268.322 7.4698 264.336 14.7003 259.715 21.5255Z" fill="#E2DED3" fill-opacity="0.02"/>
<path d="M861.574 0.0001H857.853C850.371 10.1643 844.181 21.2615 839.839 33.1358C834.621 47.4028 832.427 62.5202 833.242 77.6843C834.169 94.9347 838.426 111.768 842.619 128.454C846.781 145.014 850.929 161.676 851.899 178.787C852.782 194.351 851.292 209.97 847.838 225.161C844.36 240.457 838.978 255.282 832.326 269.474C825.5 284.034 817.381 297.967 808.487 311.355C799.481 324.913 789.676 337.926 779.406 350.548C769.312 362.955 758.816 375.054 748.004 386.84C737.133 398.69 725.818 410.161 713.687 420.728C701.671 431.194 688.828 440.75 674.992 448.682C660.537 456.969 645.093 463.133 629.049 467.576C612.398 472.186 595.336 475.095 578.264 477.625C561.315 480.137 544.297 482.247 527.432 485.299C512.836 487.941 498.35 491.381 484.31 496.196C470.486 500.937 457.029 507.012 444.801 515.06C432.577 523.105 421.857 533.084 413.239 544.925C408.474 551.471 404.227 558.383 399.341 564.843C394.417 571.354 388.707 577.077 381.933 581.66C375.162 586.242 367.768 589.807 360.314 593.124C352.41 596.641 344.465 600.105 336.404 603.25C320.815 609.331 304.528 613.848 287.653 613.075C273.883 612.445 260.453 608.584 247.844 603.153C234.72 597.5 222.337 590.284 210.113 582.926C197.636 575.415 185.277 567.673 172.36 560.927C165.988 557.599 159.48 554.525 152.801 551.864C145.794 549.073 138.586 546.94 131.331 544.904C116.845 540.838 101.721 536.606 90.8324 525.585C81.2988 515.935 76.3474 502.984 72.877 490.116C69.2194 476.554 67.0439 462.625 63.0242 449.156C58.9895 435.637 52.6997 422.818 44.5627 411.297C36.438 399.793 26.5692 389.601 15.3505 381.09C10.1703 377.161 4.6972 373.633 -1 370.516V373.931C4.8051 377.203 10.3645 380.912 15.5886 385.038C26.6625 393.784 36.3731 404.267 44.1749 416.028C51.9505 427.75 57.6563 440.586 61.3235 454.156C64.9891 467.72 67.1653 481.65 71.1764 495.125C74.9879 507.93 80.7 520.546 90.7599 529.669C102.322 540.154 117.671 544.171 132.32 548.299C139.463 550.311 146.523 552.51 153.397 555.32C160.052 558.041 166.524 561.206 172.868 564.584C185.732 571.436 198.071 579.211 210.567 586.699C222.79 594.022 235.208 601.109 248.376 606.611C261.091 611.924 274.561 615.583 288.385 616.106C305.339 616.748 321.761 612.181 337.417 606.058C345.378 602.945 353.225 599.523 361.04 596.064C368.504 592.761 375.918 589.241 382.738 584.726C389.526 580.232 395.378 574.737 400.404 568.34C405.399 561.982 409.681 555.118 414.34 548.518C422.884 536.414 433.497 526.161 445.84 517.965C457.984 509.9 471.341 503.81 485.107 499.089C499.148 494.275 513.634 490.835 528.229 488.192C545.094 485.139 562.112 483.03 579.061 480.519C596.134 477.988 613.196 475.08 629.846 470.469C645.925 466.016 661.45 459.843 675.961 451.584C689.734 443.746 702.54 434.288 714.534 423.953C726.72 413.453 738.078 402.028 748.978 390.209C759.866 378.402 770.421 366.261 780.585 353.825C790.818 341.306 800.62 328.417 809.652 315.001C818.639 301.653 826.872 287.768 833.841 273.255C840.627 259.121 846.234 244.376 849.979 229.138C853.686 214.05 855.552 198.471 855.079 182.929C854.561 165.888 850.898 149.251 846.793 132.768C842.638 116.086 838.052 99.3636 836.559 82.1779C835.22 66.7712 836.792 51.4562 841.732 36.7816C846.194 23.5222 853.108 11.119 861.574 0.0001Z" fill="#E2DED3" fill-opacity="0.02"/>
<path d="M1439 1021.34C1437.77 1022.24 1436.53 1023.12 1435.29 1024H1439V1021.34Z" fill="#E2DED3" fill-opacity="0.02"/>
<path d="M634.998 1002.97C624.166 998.951 611.958 1000.12 600.749 1001.53C587.73 1003.18 574.766 1005.71 561.608 1005.93C548.936 1006.13 536.186 1003.81 525.795 996.147C523.024 994.103 520.503 991.711 518.224 989.133C515.754 986.338 513.76 983.244 511.61 980.21C506.667 973.233 501.01 966.748 495.075 960.602C488.274 953.559 481.007 946.95 473.238 940.987C466.173 935.564 458.6 930.57 450.29 927.27C443.423 924.543 436.141 924.019 428.825 923.71C420.279 923.349 411.715 923.511 403.171 923.823C383.496 924.543 363.865 926.122 344.206 927.128C326.438 928.037 308.36 928.896 290.643 926.785C281.816 925.733 273.168 923.358 264.634 920.937C254.937 918.185 245.368 914.987 235.964 911.359C218.85 904.757 202.368 896.672 186.267 887.91C170.486 879.322 155.038 870.141 139.361 861.367C122.309 851.823 104.958 842.809 87.0332 835.005C65.811 825.765 43.7942 817.9 21.3417 812.221C13.9818 810.359 6.4958 809.795 -1 810.038V812.991C1.0321 812.92 3.066 812.905 5.0999 812.972C11.534 813.181 17.7306 814.329 23.9289 816.017C45.9089 822.003 67.4468 829.575 88.2755 838.806C105.939 846.635 123.041 855.628 139.875 865.095C155.42 873.837 170.762 882.94 186.452 891.422C202.547 900.122 219.042 908.091 236.143 914.626C245.469 918.19 254.955 921.332 264.566 924.036C273.095 926.435 281.698 928.709 290.509 929.769C308.033 931.876 325.914 931.051 343.491 930.164C363.056 929.177 382.59 927.609 402.167 926.861C410.765 926.532 419.382 926.35 427.983 926.676C435.069 926.945 442.156 927.354 448.84 929.908C457.03 933.038 464.517 938.068 471.447 943.365C479.157 949.258 486.341 955.865 493.073 962.848C498.903 968.894 504.49 975.26 509.316 982.144C511.472 985.221 513.527 988.325 516.015 991.154C518.387 993.851 521.025 996.289 523.894 998.449C534.277 1006.27 547.195 1008.94 559.975 1008.94C572.989 1008.93 585.839 1006.51 598.696 1004.8C609.835 1003.31 621.893 1001.85 632.782 1005.37C637.641 1006.94 642.044 1009.69 645.527 1013.49C648.348 1016.56 650.48 1020.18 652.138 1024H655.375C653.614 1019.68 651.322 1015.58 648.256 1012.04C644.683 1007.92 640.102 1004.86 634.998 1002.97Z" fill="#E2DED3" fill-opacity="0.02"/>
<path d="M1405.7 14.1402C1384.31 13.0892 1362.88 12.8252 1341.47 13.2686C1320.02 13.7129 1298.59 14.8688 1277.21 16.6601C1255.75 18.4583 1234.34 20.8999 1213.01 23.8983C1191.68 26.8984 1170.42 30.4677 1149.26 34.5401C1129.7 38.3051 1110.17 42.4377 1091.04 48.0109C1072.18 53.5014 1053.66 60.4219 1036.33 69.7135C1020.5 78.1997 1005.81 88.7246 993.17 101.517C981.131 113.701 970.899 127.851 963.88 143.512C956.654 159.636 953.12 177.043 953.855 194.717C954.701 215.049 960.293 234.755 965.14 254.398C967.602 264.373 969.903 274.407 971.332 284.589C972.645 293.944 973.091 303.419 972.707 312.858C971.961 331.209 967.999 349.299 961.874 366.583C955.618 384.232 947.122 401.029 937.412 417.016C927.451 433.416 916.191 449.004 904.241 464.007C892.466 478.79 880.079 493.123 867.258 507.008C854.404 520.927 840.9 534.307 826.162 546.24C811.623 558.011 795.8 568.309 778.693 575.946C760.135 584.231 740.269 589.151 720.33 592.764C700.263 596.4 679.993 598.744 659.855 601.932C642.18 604.731 624.606 608.326 607.588 613.934C591.296 619.303 575.429 626.476 561.417 636.456C554.513 641.373 548.061 646.938 542.332 653.192C536.039 660.061 530.929 667.8 525.698 675.478C520.335 683.35 514.63 690.986 507.134 696.97C499.569 703.008 490.776 707.349 481.988 711.293C473.286 715.197 464.554 718.719 455.179 720.65C446.291 722.48 437.218 723.05 428.175 723.529C408.946 724.548 389.707 725.509 370.452 725.818C350.666 726.136 330.842 725.78 311.127 723.984C292.016 722.243 272.951 719.128 254.553 713.587C248.683 711.819 242.873 709.848 237.01 708.054C230.38 706.024 223.747 704.005 217.143 701.891C203.806 697.622 190.144 693.288 177.722 686.726C175.432 685.516 173.171 684.21 171.087 682.665C169.52 681.503 168.037 680.25 166.417 679.156C162.501 676.513 158.305 674.288 154.079 672.186C142.932 666.641 131.378 661.93 119.914 657.09C107.491 651.844 95.0504 646.583 82.9945 640.527C73.12 635.567 62.9224 630.13 54.8381 622.473C52.0021 619.787 49.2221 616.516 47.8145 613.071C47.0647 611.235 46.5385 609.335 45.7174 607.521C44.835 605.572 43.7832 603.702 42.6269 601.903C36.7825 592.809 28.6309 585.254 20.3181 578.455C13.5021 572.88 6.3437 567.733 -1 562.868V566.463C6.2889 571.342 13.386 576.513 20.0966 582.151C28.0268 588.814 35.9151 596.249 41.1755 605.275C42.1894 607.015 43.1164 608.853 43.8002 610.658C44.482 612.458 44.9964 614.281 45.895 615.996C47.8872 619.799 50.9113 623.043 54.1069 625.865C62.6981 633.452 73.0777 638.977 83.2954 644.022C95.4455 650.02 107.951 655.271 120.43 660.537C131.725 665.303 143.112 669.963 154.047 675.522C158.129 677.597 162.185 679.802 165.926 682.454C167.538 683.597 169.013 684.909 170.752 686.089C173.005 687.618 175.402 688.932 177.833 690.153C190.581 696.56 204.367 700.98 217.932 705.29C224.444 707.36 230.983 709.342 237.515 711.346C243.605 713.214 249.635 715.292 255.751 717.071C274.211 722.438 293.311 725.422 312.437 727.101C332.159 728.833 351.984 729.144 371.77 728.796C391.02 728.457 410.26 727.506 429.484 726.459C438.488 725.969 447.521 725.318 456.363 723.462C465.781 721.485 474.554 717.891 483.305 713.971C492.039 710.059 500.665 705.745 508.264 699.868C515.828 694.018 521.686 686.573 527.084 678.75C532.399 671.046 537.415 663.148 543.683 656.162C549.345 649.851 555.734 644.203 562.623 639.266C576.613 629.241 592.447 622.049 608.756 616.705C625.805 611.118 643.404 607.545 661.102 604.754C681.242 601.578 701.511 599.231 721.575 595.575C741.503 591.944 761.258 586.943 779.822 578.708C796.936 571.115 812.722 560.847 827.302 549.151C842.09 537.288 855.635 523.952 868.515 510.062C881.411 496.154 893.854 481.778 905.697 466.962C917.612 452.056 928.885 436.603 938.893 420.344C948.702 404.408 957.299 387.667 963.784 370.095C970.132 352.892 974.354 334.865 975.515 316.539C976.103 307.264 975.894 297.94 974.851 288.704C973.7 278.513 971.606 268.463 969.224 258.496C964.507 238.758 958.557 219.104 957.086 198.765C955.795 180.915 958.641 163.216 965.71 146.758C972.485 130.983 982.525 116.738 994.479 104.465C1007.03 91.5799 1021.65 81.0311 1037.46 72.5117C1054.81 63.1645 1073.36 56.2602 1092.26 50.78C1111.41 45.2255 1130.95 41.1025 1150.53 37.342C1171.69 33.277 1192.95 29.7156 1214.29 26.724C1235.67 23.7269 1257.13 21.3141 1278.64 19.5403C1300.03 17.7775 1321.46 16.6518 1342.91 16.2395C1364.4 15.8264 1385.91 16.1282 1407.37 17.2238C1417.93 17.7626 1428.47 18.495 1439 19.4264V16.4298C1427.92 15.4491 1416.81 14.6863 1405.7 14.1402Z" fill="#E2DED3" fill-opacity="0.02"/>
<path d="M545.566 1016.09C537.198 1012.87 527.7 1013.72 519.003 1014.81C508.948 1016.06 498.945 1018.02 488.788 1018.25C478.973 1018.47 469.076 1016.79 460.969 1010.92C456.379 1007.6 453.168 1003.24 449.945 998.666C446.139 993.264 441.778 988.242 437.202 983.484C431.944 978.017 426.326 972.882 420.32 968.247C414.842 964.02 409.001 960.138 402.578 957.5C397.27 955.319 391.699 954.826 386.017 954.561C379.414 954.252 372.793 954.363 366.188 954.594C350.902 955.129 335.651 956.358 320.378 957.15C306.548 957.867 292.489 958.548 278.693 956.966C271.816 956.177 265.087 954.345 258.44 952.466C250.935 950.345 243.529 947.879 236.25 945.081C222.936 939.962 210.116 933.68 197.594 926.868C185.323 920.192 173.312 913.052 161.122 906.231C147.9 898.831 134.447 891.845 120.548 885.796C104.093 878.635 87.0327 872.549 69.6287 868.133C50.952 863.393 32.5102 869.798 13.9552 871.771C8.8992 872.26 3.9171 873.073 -1 874.144V877.182C3.9212 876.09 8.9044 875.259 13.9552 874.771C23.6106 873.744 33.0735 871.533 42.6863 870.229C47.3602 869.594 52.0849 869.219 56.8039 869.367C61.7617 869.522 66.5372 870.388 71.3143 871.688C88.3803 876.329 105.105 882.202 121.275 889.371C134.942 895.43 148.176 902.39 161.202 909.715C173.268 916.5 185.176 923.567 197.356 930.15C209.803 936.877 222.558 943.036 235.778 948.098C243.012 950.868 250.37 953.309 257.825 955.41C264.466 957.282 271.165 959.053 278.025 959.887C291.616 961.54 305.491 960.9 319.126 960.214C334.261 959.452 349.372 958.24 364.516 957.655C371.164 957.399 377.826 957.254 384.477 957.497C389.997 957.698 395.527 957.997 400.737 959.979C407.025 962.372 412.779 966.24 418.101 970.297C424.071 974.847 429.631 979.96 434.842 985.358C439.358 990.035 443.689 994.958 447.428 1000.28C450.741 1005 454.05 1009.41 458.681 1012.94C466.727 1019.06 476.74 1021.23 486.688 1021.27C496.839 1021.31 506.867 1019.42 516.893 1018.08C525.452 1016.93 534.704 1015.79 543.085 1018.4C546.594 1019.49 549.797 1021.39 552.416 1024H556.289C553.51 1020.57 549.988 1017.8 545.566 1016.09Z" fill="#E2DED3" fill-opacity="0.02"/>
<path d="M65.5816 254.879C73.6523 281.175 86.2418 306.11 102.68 328.167C106.769 333.653 111.097 338.947 115.624 344.077C120.818 349.963 125.959 355.972 130.433 362.43C134.636 368.496 138.293 374.948 140.823 381.895C143.233 388.516 144.824 395.397 146.29 402.278C149.174 415.804 151.6 430.006 158.868 442.02C165.619 453.178 176.265 461.188 188.897 464.417C196.015 466.237 203.347 466.948 210.582 468.133C217.672 469.293 224.525 471.231 231.119 474.092C237.856 477.03 244.348 480.56 251.222 483.173C256.973 485.359 262.949 486.944 269.023 487.921C281.153 489.872 293.546 489.462 305.58 487.052C330.323 482.097 353.11 468.861 370.564 450.765C379.333 441.672 387.984 432.395 397.64 424.221C406.945 416.345 417.304 409.765 428.685 405.323C443.143 399.682 458.69 397.011 473.868 394.087C488.262 391.314 502.472 387.94 516.411 383.371C544.008 374.325 570.36 361.334 594.01 344.444C614.476 329.828 633.789 312.993 649.848 293.585C665.774 274.336 678.954 251.706 682.643 226.665C684.798 212.038 683.529 197.151 680.388 182.76C678.718 175.107 676.521 167.576 674.021 160.155C671.871 153.772 669.552 147.441 666.665 141.35C661.648 130.762 654.924 120.856 646.098 113.072C641.68 109.175 636.791 105.812 631.558 103.104C625.031 99.7267 618.002 97.2429 611.054 94.8926C595.835 89.7445 580.277 85.4885 564.813 81.1436C549.24 76.7679 533.605 72.6011 517.885 68.7822C486.609 61.1844 454.96 54.9625 422.967 51.3088C391.175 47.678 359.031 46.6511 327.127 49.4289C319.408 50.101 311.841 51.6206 304.688 54.6699C298.204 57.4336 292.329 61.5483 287.396 66.5735C279.633 74.4807 274.305 84.2811 267.817 93.1723C264.746 97.3803 261.327 101.39 257.246 104.655C252.916 108.119 247.876 110.421 242.487 111.655C227.902 114.995 212.814 114.978 197.951 114.164C182.822 113.335 167.729 111.653 152.564 111.61C145.073 111.589 137.584 111.995 130.168 113.074C122.528 114.185 115.059 116.156 107.763 118.662C100.425 121.183 93.238 124.235 86.3233 127.756C80.0341 130.958 73.6711 134.672 68.7387 139.796C60.0514 148.82 56.8613 161.191 55.8165 173.349C54.6497 186.925 55.3097 200.778 56.9548 214.285C58.6299 228.039 61.516 241.633 65.5816 254.879ZM58.8499 172.97C59.9248 160.955 63.3386 148.76 72.4758 140.337C77.7335 135.49 84.2963 132.012 90.6981 128.932C97.7887 125.521 105.099 122.573 112.612 120.227C119.789 117.986 127.108 116.341 134.584 115.504C142.051 114.669 149.578 114.498 157.085 114.67C171.947 115.01 186.735 116.681 201.581 117.346C209.1 117.682 216.641 117.761 224.155 117.26C231.274 116.785 238.571 115.937 245.456 114.002C256.048 111.025 263.855 103.612 270.218 94.9449C276.645 86.1914 281.86 76.4953 289.518 68.695C294.385 63.7374 300.209 59.6906 306.659 57.0751C313.846 54.1605 321.36 52.8993 329.047 52.2664C344.84 50.9665 360.702 50.5871 376.541 50.995C408.323 51.8136 439.952 55.7967 471.171 61.6966C502.464 67.6104 533.366 75.425 564.016 84.0366C579.326 88.3384 594.725 92.5601 609.802 97.6322C616.66 99.9395 623.605 102.363 630.044 105.695C635.258 108.393 640.128 111.726 644.494 115.653C653.082 123.378 659.528 133.106 664.387 143.528C667.285 149.743 669.578 156.224 671.721 162.731C674.122 170.022 676.217 177.421 677.79 184.937C680.75 199.071 681.839 213.78 679.399 228.079C677.316 240.287 672.947 251.998 667.129 262.904C655.235 285.195 637.817 304.217 618.955 320.817C598.764 338.586 576.536 353.915 552.316 365.67C539.525 371.878 526.274 377.117 512.722 381.41C498.77 385.83 484.569 388.974 470.213 391.745C455.352 394.612 440.137 397.371 426.077 403.156C414.881 407.763 404.743 414.292 395.519 422.1C386.072 430.096 377.585 439.151 369.011 448.053C360.241 457.159 350.354 465.018 339.325 471.226C318.118 483.162 292.934 489.034 268.736 484.847C263.035 483.86 257.428 482.335 252.019 480.28C245.391 477.761 239.131 474.335 232.633 471.502C225.788 468.531 218.745 466.445 211.38 465.24C203.995 464.031 196.508 463.315 189.254 461.41C176.763 458.13 166.471 449.82 160.303 438.494C153.612 426.207 151.53 412.064 148.554 398.575C147.072 391.853 145.375 385.147 142.818 378.743C140.067 371.855 136.278 365.435 131.966 359.414C123.593 347.725 113.333 337.552 104.781 325.994C96.6994 315.071 89.5604 303.451 83.4465 291.317C71.132 266.877 62.9658 240.243 59.8072 213.044C58.2711 199.815 57.6615 186.254 58.8499 172.97Z" fill="#E2DED3" fill-opacity="0.02"/>
<path d="M1012.56 173.082C1021.84 156.951 1034.42 142.836 1048.82 131.107C1064.6 118.252 1082.77 108.467 1101.61 100.879C1121.45 92.886 1142.15 87.2405 1163 82.587C1185.03 77.6702 1207.27 73.6142 1229.55 70.0253C1252.53 66.3246 1275.61 63.2622 1298.76 60.9246C1321.79 58.5997 1344.9 56.9891 1368.03 56.1869C1391.19 55.3836 1414.39 55.3914 1437.55 56.3081C1438.03 56.3272 1438.52 56.3527 1439 56.3726V53.3764C1437.96 53.3334 1436.92 53.2825 1435.88 53.2433C1412.71 52.3704 1389.51 52.4041 1366.35 53.2465C1343.14 54.0907 1319.96 55.7471 1296.85 58.1194C1273.75 60.4909 1250.73 63.5761 1227.81 67.2857C1205.55 70.8875 1183.33 74.9479 1161.33 79.8879C1140.56 84.552 1119.95 90.2209 1100.2 98.2337C1081.37 105.873 1063.31 115.607 1047.45 128.378C1033.03 139.982 1020.39 153.989 1010.93 169.924C1001.58 185.681 995.472 203.399 994.227 221.736C992.738 243.677 998.179 265.278 1003.48 286.38C1006.17 297.096 1008.88 307.827 1010.72 318.729C1012.46 328.974 1013.27 339.34 1013.02 349.731C1012.55 369.541 1008.29 389.082 1001.55 407.674C994.62 426.761 985.106 444.837 974.279 461.982C963.234 479.471 950.776 496.034 937.628 511.989C924.637 527.753 911.115 543.164 896.833 557.774C882.651 572.282 867.505 585.964 850.761 597.472C833.464 609.359 814.647 618.422 794.527 624.413C773.447 630.69 751.642 634.021 729.91 637.117C709.487 640.026 688.981 642.687 668.9 647.517C650.673 651.901 632.685 657.954 616.182 666.943C599.806 675.862 585.304 687.798 574.282 702.9C568.216 711.212 563.008 720.175 556.237 727.958C549.369 735.853 540.834 741.654 531.565 746.389C526.956 748.743 522.228 750.852 517.485 752.92C512.721 754.997 507.912 756.842 502.847 758.049C493.832 760.197 484.575 760.272 475.36 760.431C455.811 760.77 436.44 763.065 417.071 765.588C396.839 768.224 376.607 771.055 356.236 772.399C336.982 773.669 317.362 773.741 298.366 769.951C291.373 768.556 284.659 766.38 277.875 764.24C271.947 762.37 266.001 760.552 260.069 758.693C245.575 754.151 231.072 749.506 216.955 743.883C211.246 741.61 205.534 739.191 200.196 736.129C196.814 734.189 194.194 731.768 190.821 729.779C182.376 724.799 172.814 721.581 163.575 718.441C151.124 714.209 138.516 710.449 125.95 706.581C112.846 702.548 99.7433 698.469 86.8576 693.775C76.1663 689.881 65.3768 685.662 55.629 679.722C52.0671 677.552 48.7671 675.25 45.9219 672.196C44.7369 670.925 43.9677 669.956 43.1032 668.363C42.9432 668.068 42.7962 667.767 42.6532 667.464C42.6028 667.357 42.5826 667.318 42.5748 667.304C42.5688 667.285 42.5528 667.241 42.5155 667.144C42.4431 666.956 42.3727 666.767 42.3071 666.576C42.0344 665.783 41.7865 664.988 41.471 664.209C38.0616 655.797 31.304 648.923 24.6349 642.984C16.6739 635.894 7.9479 629.667 -1 623.864V627.444C7.8179 633.229 16.4129 639.446 24.1613 646.599C27.6176 649.789 31.0201 653.267 33.8074 656.979C35.0402 658.62 36.1848 660.332 37.1758 662.131C38.1151 663.837 38.6832 665.127 39.2618 666.898C41.7019 674.367 48.9326 679.295 55.4003 683.08C65.4713 688.974 76.5115 693.232 87.4606 697.175C100.347 701.816 113.437 705.873 126.526 709.897C139.027 713.74 151.566 717.486 163.938 721.73C172.85 724.788 182.14 727.907 190.192 732.904C191.856 733.937 192.799 734.734 194.217 735.811C196.061 737.213 198.058 738.402 200.091 739.505C205.734 742.568 211.705 745.038 217.677 747.377C231.821 752.915 246.319 757.539 260.812 762.068C266.59 763.874 272.381 765.641 278.151 767.473C285.25 769.726 292.292 771.887 299.634 773.241C318.818 776.777 338.518 776.644 357.911 775.286C378.27 773.86 398.491 770.997 418.72 768.374C438.025 765.87 457.298 763.734 476.778 763.407C485.987 763.253 495.229 763.024 504.217 760.804C509.191 759.575 513.917 757.724 518.605 755.682C523.414 753.588 528.211 751.457 532.887 749.077C542.1 744.388 550.735 738.623 557.659 730.874C564.516 723.2 569.799 714.324 575.751 705.97C586.625 690.709 600.969 678.696 617.361 669.716C633.847 660.684 651.843 654.68 670.078 650.319C690.26 645.491 710.867 642.841 731.387 639.913C753.114 636.812 774.914 633.449 795.974 627.112C816.023 621.08 834.84 612.021 852.103 600.181C868.893 588.664 884.122 575.015 898.362 560.501C912.669 545.918 926.198 530.513 939.208 514.766C952.311 498.906 964.762 482.462 975.841 465.116C986.761 448.017 996.354 429.998 1003.51 410.989C1010.47 392.484 1015 373.001 1015.9 353.216C1016.37 342.997 1015.82 332.777 1014.36 322.655C1012.79 311.795 1010.25 301.107 1007.6 290.471C1002.31 269.249 996.345 247.749 997.033 225.674C997.612 207.129 1003.35 189.114 1012.56 173.082Z" fill="#E2DED3" fill-opacity="0.02"/>
<path d="M291.465 1016.16C284.982 1016.34 278.514 1016.87 272.039 1017.22C266.134 1017.54 260.143 1017.85 254.246 1017.25C248.225 1016.64 242.182 1014.54 236.552 1012.41C225.316 1008.15 215.115 1001.8 204.669 995.962C192.482 989.147 179.589 983.214 165.975 979.889C158.085 977.961 150.369 980.574 142.54 981.426C134.392 982.214 126.705 984.91 119.305 988.313C112.037 991.656 104.653 994.964 98.298 999.902C91.9775 1004.81 86.4996 1011.02 82.0197 1017.64C80.6388 1019.68 79.3629 1021.8 78.2539 1024H81.6498C82.3732 1022.66 83.1589 1021.36 83.9962 1020.07C88.2744 1013.53 93.6412 1007.44 99.7511 1002.55C105.866 997.65 113.156 994.449 120.216 991.183C127.297 987.906 134.724 985.182 142.54 984.426C150.522 983.557 158.303 980.908 166.305 983.08C173.44 985.016 180.441 987.459 187.2 990.459C198.221 995.35 208.401 1001.77 218.984 1007.5C224.207 1010.33 229.56 1012.91 235.103 1015.05C240.794 1017.25 246.837 1019.3 252.907 1020.09C258.463 1020.82 264.136 1020.6 269.716 1020.34C276.079 1020.04 282.431 1019.53 288.795 1019.25C291.642 1019.13 294.494 1019.05 297.343 1019.13C299.583 1019.19 301.907 1019.23 304.05 1019.94C306.655 1020.81 309.099 1022.28 311.372 1024H316.065C313.224 1021.52 310.127 1019.31 306.762 1017.81C302.037 1015.7 296.529 1016.01 291.465 1016.16Z" fill="#E2DED3" fill-opacity="0.02"/>
<path d="M388.199 1017C385.528 1013.19 382.465 1009.64 379.252 1006.28C375.513 1002.37 371.514 998.69 367.237 995.372C363.301 992.319 359.122 989.506 354.509 987.579C350.705 985.99 346.758 985.583 342.674 985.379C337.995 985.145 333.302 985.218 328.621 985.376C317.75 985.745 306.904 986.619 296.043 987.188C286.181 987.704 276.159 988.196 266.32 987.087C261.486 986.543 256.756 985.255 252.083 983.939C246.733 982.433 241.453 980.679 236.263 978.687C217.43 971.46 200.302 960.825 182.762 951.017C162.266 939.556 140.742 929.833 117.915 924.034C104.596 920.65 91.4786 925.176 78.2471 926.593C64.5298 927.92 51.568 932.514 39.1241 938.26C27.0117 943.853 14.6834 949.356 4.0839 957.592C2.3475 958.941 0.6618 960.368 -1 961.828V965.8C1.3386 963.648 3.7543 961.597 6.2482 959.681C16.659 951.682 28.7904 946.321 40.6382 940.85C52.566 935.343 65.0958 930.865 78.2471 929.593C85.1738 928.851 91.9608 927.261 98.8593 926.34C105.674 925.429 112.267 925.597 118.919 927.408C131.029 930.705 142.899 934.873 154.37 939.969C172.992 948.241 190.195 959.094 208.079 968.77C216.951 973.57 226.043 977.964 235.465 981.58C240.537 983.527 245.696 985.246 250.921 986.73C255.72 988.092 260.562 989.376 265.52 989.993C275.02 991.175 284.724 990.747 294.258 990.279C305.049 989.748 315.822 988.882 326.618 988.45C331.312 988.263 336.016 988.151 340.713 988.3C344.658 988.424 348.665 988.58 352.405 989.955C356.817 991.578 360.857 994.279 364.589 997.094C368.808 1000.28 372.732 1003.87 376.414 1007.66C379.687 1011.02 382.83 1014.57 385.536 1018.41C386.913 1020.36 388.284 1022.26 389.839 1024H394.039C391.774 1021.95 389.973 1019.53 388.199 1017Z" fill="#E2DED3" fill-opacity="0.02"/>
<path d="M121.285 253.309C127.709 274.131 137.711 293.878 150.771 311.324C157.752 320.65 166.15 328.866 172.741 338.483C176.077 343.351 178.935 348.522 180.898 354.098C182.719 359.275 183.934 364.638 185.071 369.999C187.329 380.645 189.302 391.824 195.098 401.234C200.502 410.009 208.934 416.281 218.92 418.818C224.554 420.25 230.355 420.81 236.079 421.752C241.613 422.662 246.972 424.176 252.12 426.41C257.4 428.714 262.491 431.474 267.873 433.537C272.415 435.278 277.134 436.546 281.935 437.332C291.525 438.903 301.315 438.615 310.842 436.747C330.437 432.904 348.596 422.472 362.433 408.166C369.358 401.007 376.16 393.685 383.752 387.216C391.039 381.006 399.158 375.783 408.082 372.255C419.41 367.776 431.61 365.651 443.522 363.356C454.99 361.147 466.314 358.501 477.426 354.875C499.319 347.732 520.236 337.456 538.997 324.073C555.19 312.522 570.471 299.22 583.187 283.884C595.895 268.557 606.423 250.51 609.306 230.538C610.993 218.849 609.944 206.971 607.398 195.483C606.071 189.494 604.339 183.6 602.374 177.791C600.656 172.712 598.798 167.677 596.483 162.836C592.503 154.511 587.17 146.719 580.201 140.612C572.159 133.565 562.471 129.649 552.451 126.261C540.396 122.185 528.072 118.815 515.824 115.375C503.434 111.895 490.997 108.584 478.49 105.552C453.692 99.5404 428.597 94.6313 403.23 91.7678C378.098 88.9309 352.677 88.1485 327.465 90.4092C315.855 91.4502 304.862 95.5226 296.571 103.928C290.418 110.167 286.196 117.917 281.076 124.955C278.63 128.317 275.899 131.539 272.625 134.127C269.157 136.868 265.158 138.627 260.861 139.59C249.128 142.22 237.008 142.123 225.068 141.433C213.119 140.743 201.193 139.431 189.212 139.473C177.121 139.515 165.374 141.316 153.952 145.331C148.211 147.349 142.577 149.764 137.171 152.56C132.235 155.114 127.264 158.089 123.444 162.186C116.72 169.396 114.271 179.145 113.466 188.724C112.559 199.517 113.095 210.524 114.424 221.259C115.769 232.12 118.059 242.85 121.285 253.309ZM116.466 188.724C117.256 179.304 119.814 169.683 126.881 162.981C131.016 159.06 136.262 156.278 141.355 153.818C146.839 151.169 152.493 148.879 158.299 147.039C169.697 143.427 181.362 142.269 193.279 142.508C205.11 142.746 216.882 144.082 228.698 144.622C240.192 145.148 252.174 145.078 263.365 142.07C271.758 139.814 278.021 134.058 283.098 127.242C288.188 120.407 292.254 112.796 298.167 106.593C301.893 102.684 306.337 99.4795 311.296 97.3208C316.884 94.8888 322.869 93.7949 328.906 93.2841C341.355 92.2308 353.861 91.9037 366.35 92.1987C391.412 92.7907 416.356 95.8839 440.979 100.501C465.78 105.152 490.271 111.324 514.559 118.137C526.656 121.53 538.816 124.871 550.738 128.847C560.661 132.156 570.418 135.925 578.338 142.962C585.194 149.052 590.335 156.744 594.206 165.011C596.466 169.839 598.255 174.871 599.929 179.927C601.857 185.75 603.542 191.66 604.805 197.665C607.153 208.833 608.033 220.47 606.093 231.771C604.441 241.397 600.996 250.625 596.401 259.222C586.962 276.881 573.136 291.932 558.17 305.065C542.213 319.069 524.651 331.133 505.517 340.38C495.317 345.309 484.748 349.455 473.939 352.843C462.91 356.3 451.689 358.729 440.352 360.921C428.721 363.17 416.834 365.373 405.848 369.945C397.078 373.595 389.139 378.735 381.903 384.863C374.411 391.208 367.682 398.395 360.88 405.456C353.971 412.628 346.159 418.802 337.465 423.677C320.746 433.053 300.88 437.651 281.828 434.286C277.339 433.493 272.927 432.276 268.67 430.645C263.534 428.676 258.675 426.019 253.634 423.82C248.451 421.571 243.119 419.921 237.545 418.97C231.678 417.97 225.723 417.427 219.938 415.981C210.078 413.518 201.911 407.259 196.909 398.399C191.512 388.84 189.823 377.71 187.519 367.129C186.355 361.783 185.044 356.445 183.065 351.334C180.98 345.953 178.111 340.932 174.806 336.211C168.216 326.796 159.978 318.691 153.116 309.481C146.722 300.899 141.067 291.766 136.215 282.227C126.444 263.012 119.927 242.052 117.348 220.638C116.079 210.104 115.578 199.311 116.466 188.724Z" fill="#E2DED3" fill-opacity="0.02"/>
<path d="M298.768 265.314C300.122 267.335 300.669 269.521 301.158 271.873C302.057 276.195 303.708 280.456 308.335 281.833C310.572 282.499 312.958 282.406 315.128 283.348C317.139 284.245 319.052 285.296 321.241 285.704C323.287 286.085 325.335 286.068 327.385 285.731C331.451 285.064 335.29 282.971 338.246 280.13C341.175 277.315 343.758 274.019 347.652 272.482C350.086 271.522 352.72 271.115 355.274 270.616C357.696 270.142 360.079 269.555 362.412 268.747C370.786 265.846 378.692 260.541 384.19 253.534C386.82 250.182 388.83 246.357 389.295 242.073C389.805 237.382 388.394 232.233 386.316 228.049C384.364 224.116 381.177 221.888 377.097 220.496C372.023 218.765 366.75 217.446 361.532 216.231C356.359 215.027 351.127 214.069 345.845 213.495C340.721 212.939 335.199 212.477 330.075 213.229C327.826 213.558 325.763 214.416 324.098 215.99C322.708 217.302 321.779 218.997 320.667 220.529C319.495 222.144 318.192 222.994 316.206 223.286C313.712 223.654 311.155 223.468 308.652 223.287C303.531 222.917 298.765 222.868 293.945 224.898C291.886 225.765 289.729 226.782 288.334 228.593C287.047 230.263 286.602 232.327 286.453 234.392C285.806 243.393 288.842 252.726 294.311 259.848C295.742 261.711 297.458 263.36 298.768 265.314ZM289.732 241.47C289.426 239.381 289.333 237.252 289.415 235.143C289.487 233.281 289.756 231.223 291.186 229.878C292.748 228.408 295.119 227.529 297.131 226.901C299.374 226.2 301.636 225.971 303.98 226.017C308.608 226.107 313.306 227.034 317.897 226.019C321.616 225.196 323.054 221.973 325.197 219.244C328.173 215.454 333.179 215.885 337.545 215.96C342.49 216.046 347.419 216.572 352.292 217.406C357.252 218.256 362.156 219.402 367.017 220.699C369.4 221.335 371.779 221.993 374.141 222.706C376.228 223.335 378.437 223.956 380.239 225.228C383.465 227.504 384.845 231.723 385.746 235.382C386.8 239.667 386.5 243.852 384.421 247.772C380.679 254.831 373.516 260.4 366.451 263.847C362.262 265.891 357.852 267.071 353.294 267.952C348.974 268.787 345.042 269.891 341.58 272.709C338.601 275.135 336.344 278.363 333.045 280.395C329.854 282.361 325.966 283.467 322.215 282.842C320.204 282.507 318.481 281.578 316.642 280.758C314.542 279.846 312.447 279.649 310.231 279.208C308.173 278.799 306.555 277.806 305.533 275.935C304.52 274.081 304.246 271.907 303.798 269.87C303.322 267.704 302.598 265.654 301.358 263.8C300.162 262.011 298.655 260.474 297.295 258.817C295.968 257.2 294.809 255.439 293.802 253.606C291.735 249.848 290.353 245.715 289.732 241.47Z" fill="#E2DED3" fill-opacity="0.02"/>
<path d="M198.619 294.149C203.768 301.02 209.967 307.074 214.804 314.176C217.172 317.653 219.216 321.337 220.622 325.31C221.979 329.145 222.879 333.12 223.722 337.094C225.39 344.957 226.858 353.205 231.15 360.15C235.143 366.611 241.368 371.266 248.724 373.16C252.869 374.227 257.141 374.641 261.356 375.331C265.412 375.995 269.35 377.087 273.124 378.725C276.941 380.392 280.626 382.376 284.508 383.891C287.881 385.206 291.39 386.164 294.961 386.759C302.043 387.938 309.26 387.753 316.303 386.4C330.64 383.645 344.008 376.077 354.193 365.679C359.367 360.395 364.367 354.929 369.988 350.105C375.369 345.488 381.374 341.591 387.988 338.984C396.346 335.69 405.344 334.132 414.129 332.44C422.452 330.836 430.671 328.908 438.736 326.282C454.825 321.042 470.206 313.508 484.001 303.688C495.919 295.205 507.173 285.433 516.54 274.165C525.911 262.894 533.707 249.633 535.894 234.939C537.163 226.414 536.469 217.759 534.664 209.361C532.9 201.148 530.305 192.878 526.748 185.256C523.841 179.026 519.924 173.175 514.78 168.569C508.927 163.328 501.885 160.376 494.531 157.858C485.674 154.824 476.602 152.351 467.592 149.815C458.495 147.255 449.362 144.816 440.179 142.581C421.996 138.155 403.597 134.535 384.997 132.395C366.425 130.257 347.644 129.649 329.005 131.281C320.498 132.026 312.427 134.801 306.206 140.83C301.499 145.393 298.315 151.19 294.526 156.473C290.808 161.657 286.276 165.903 279.902 167.372C271.277 169.361 262.335 169.281 253.548 168.776C244.774 168.272 236.015 167.307 227.217 167.332C218.244 167.358 209.523 168.695 201.05 171.683C196.786 173.187 192.598 174.985 188.587 177.072C185.011 178.933 181.409 181.105 178.63 184.068C173.592 189.439 171.746 196.691 171.14 203.847C169.796 219.711 172.2 236.177 176.869 251.339C181.601 266.704 188.976 281.282 198.619 294.149ZM174.124 204.037C174.692 197.102 176.561 190.012 181.821 185.125C184.889 182.275 188.764 180.254 192.514 178.46C196.551 176.529 200.71 174.864 204.984 173.535C213.34 170.937 221.889 170.163 230.608 170.369C239.331 170.575 248.01 171.566 256.725 171.936C265.067 172.291 273.858 172.233 281.958 169.947C294.904 166.294 298.979 152.679 307.465 143.818C310.215 140.948 313.502 138.596 317.17 137.043C321.245 135.319 325.58 134.565 329.963 134.199C339.123 133.434 348.324 133.204 357.512 133.432C375.879 133.889 394.155 136.17 412.199 139.568C430.365 142.988 448.304 147.517 466.096 152.511C474.885 154.979 483.719 157.408 492.381 160.294C499.618 162.705 506.751 165.444 512.53 170.574C517.613 175.087 521.392 180.8 524.236 186.938C527.73 194.479 530.232 202.72 531.917 210.847C533.611 219.021 534.207 227.54 532.73 235.795C531.477 242.803 528.931 249.51 525.555 255.763C518.593 268.658 508.446 279.64 497.475 289.233C485.774 299.465 472.9 308.266 458.879 315.009C451.447 318.584 443.749 321.588 435.878 324.046C427.777 326.576 419.535 328.345 411.212 329.956C402.75 331.593 394.105 333.206 386.111 336.529C379.628 339.223 373.767 342.998 368.412 347.52C362.93 352.15 358.008 357.398 353.038 362.559C348 367.79 342.353 372.309 336.025 375.89C323.843 382.784 309.323 386.222 295.398 383.805C292.074 383.228 288.806 382.335 285.653 381.132C281.889 379.696 278.329 377.747 274.638 376.134C270.901 374.512 267.061 373.289 263.044 372.588C258.763 371.841 254.417 371.45 250.185 370.432C242.823 368.663 236.755 364.105 233.058 357.472C229.161 350.481 227.945 342.361 226.26 334.644C225.395 330.682 224.417 326.727 222.931 322.946C221.418 319.098 219.375 315.499 217.015 312.11C212.229 305.236 206.228 299.331 201.21 292.635C196.48 286.324 192.298 279.603 188.709 272.581C181.512 258.499 176.695 243.112 174.794 227.402C173.861 219.69 173.488 211.79 174.124 204.037Z" fill="#E2DED3" fill-opacity="0.02"/>
<path d="M246.341 276.812C249.638 281.223 253.619 285.108 256.722 289.661C258.278 291.945 259.606 294.362 260.503 296.981C261.353 299.462 261.915 302.029 262.455 304.591C263.519 309.638 264.522 314.952 267.38 319.35C269.985 323.358 273.899 326.277 278.526 327.503C283.733 328.882 289.111 328.865 294.124 331.041C298.79 333.085 303.147 335.389 308.233 336.229C312.724 336.97 317.273 336.875 321.747 336.054C330.976 334.362 339.613 329.542 346.213 322.917C352.8 316.306 358.973 309.207 367.891 305.714C373.276 303.605 379.072 302.616 384.728 301.525C390.02 300.505 395.244 299.262 400.369 297.582C410.67 294.208 420.52 289.369 429.345 283.061C437.006 277.585 444.248 271.294 450.249 264.015C456.234 256.756 461.187 248.247 462.557 238.812C463.355 233.31 462.898 227.736 461.727 222.319C460.603 217.121 458.952 211.904 456.722 207.07C454.857 203.028 452.328 199.218 449.011 196.221C445.353 192.915 440.996 190.997 436.387 189.384C430.628 187.368 424.708 185.766 418.836 184.111C413.08 182.488 407.301 180.941 401.491 179.521C378.147 173.815 353.894 170.022 329.823 172.217C324.393 172.713 319.244 174.514 315.243 178.325C312.184 181.239 310.119 184.971 307.69 188.382C305.283 191.762 302.42 194.388 298.275 195.306C292.728 196.535 286.983 196.423 281.344 196.08C275.672 195.736 270.005 195.119 264.315 195.2C258.61 195.28 253.072 196.238 247.708 198.194C242.809 199.98 237.176 202.246 233.594 206.187C230.427 209.672 229.231 214.258 228.822 218.843C227.911 229.022 229.466 239.637 232.451 249.37C235.47 259.213 240.177 268.563 246.341 276.812ZM231.775 219.411C232.109 214.992 233.258 210.468 236.644 207.381C238.637 205.564 241.162 204.29 243.583 203.148C246.094 201.964 248.679 200.951 251.334 200.139C256.603 198.526 261.992 198.081 267.481 198.222C278.233 198.497 289.634 200.936 300.207 197.92C308.451 195.568 311.105 187.151 316.417 181.411C320.165 177.36 325.142 175.61 330.542 175.155C336.281 174.672 342.045 174.518 347.801 174.647C359.528 174.909 371.198 176.346 382.719 178.505C394.23 180.662 405.598 183.52 416.873 186.676C422.522 188.258 428.197 189.822 433.77 191.66C438.365 193.174 442.949 194.872 446.631 198.112C449.857 200.951 452.246 204.543 454.054 208.418C456.279 213.19 457.858 218.424 458.93 223.571C459.99 228.655 460.387 233.977 459.488 239.119C458.702 243.613 457.083 247.909 454.916 251.913C450.493 260.081 444.067 267.027 437.113 273.108C429.646 279.637 421.424 285.236 412.472 289.527C402.858 294.136 392.736 296.927 382.305 298.946C376.932 299.987 371.45 301.016 366.37 303.113C362.286 304.8 358.59 307.135 355.192 309.951C351.662 312.875 348.507 316.219 345.333 319.517C342.094 322.882 338.553 325.823 334.493 328.154C326.833 332.551 317.648 334.806 308.851 333.305C304.085 332.493 300.018 330.369 295.638 328.451C293.274 327.425 290.855 326.627 288.315 326.17C285.619 325.684 282.88 325.441 280.207 324.827C275.563 323.761 271.749 321.033 269.381 316.867C266.864 312.439 266.107 307.24 265.035 302.333C263.903 297.148 262.218 292.362 259.186 287.964C256.135 283.538 252.279 279.754 249.054 275.462C246.09 271.517 243.463 267.319 241.198 262.935C236.575 253.985 233.464 244.175 232.236 234.168C231.639 229.295 231.403 224.311 231.775 219.411Z" fill="#E2DED3" fill-opacity="0.02"/>
</g>
<defs>
<clipPath id="clip0_510_798">
<rect width="1440" height="1024" fill="white" transform="translate(-1)"/>
</clipPath>
</defs>
</svg>
