<svg width="512" height="512" viewBox="0 0 512 512" fill="none" xmlns="http://www.w3.org/2000/svg">
  <style>
    .fill-color { fill: #000000; }
    .stroke-color { stroke: #000000; }

    @media (prefers-color-scheme: dark) {
      .fill-color { fill: #ffffff; }
      .stroke-color { stroke: #ffffff; }
    }
  </style>

  <path class="fill-color" d="M24.8492 112.297C41.3264 110.101 67.1937 145.407 77.0487 158.975C116.051 214.316 159.564 293.88 183.946 374.83C193.665 407.08 201.517 447.506 186.345 477.128C172.99 503.652 142.046 510.352 114.141 503.73C78.9984 495.55 46.4669 472.407 28.3616 441.254C7.4996 406.617 5.66972 358.23 4.97545 315.796C4.74812 271.641 4.0989 224.354 5.49154 180.594C6.47458 165.022 7.41256 114.782 24.8165 112.301L24.8482 112.296L24.8492 112.297Z"/>
  <path class="stroke-color" stroke-miterlimit="10" d="M24.8492 112.297C41.3264 110.101 67.1937 145.407 77.0487 158.975C116.051 214.316 159.564 293.88 183.946 374.83C193.665 407.08 201.517 447.506 186.345 477.128C172.99 503.652 142.046 510.352 114.141 503.73C78.9984 495.55 46.4669 472.407 28.3616 441.254C7.4996 406.617 5.66972 358.23 4.97545 315.796C4.74812 271.641 4.0989 224.354 5.49154 180.594C6.47458 165.022 7.41256 114.782 24.8165 112.301L24.8482 112.296L24.8492 112.297Z"/>
  
  <path class="fill-color" d="M340.597 21.3623C338.551 10.9575 349.121 9.62524 357.405 9.37129C364.767 9.17775 372.771 9.29961 379.9 9.27913C427.316 7.54857 470.241 26.7516 493.528 67.5232C496.11 72.0892 498.293 78.3705 497.327 83.0696C496.343 89.0979 490.686 92.3429 485.077 93.6721C443.512 103.794 386.707 91.9774 350.276 39.867C345.916 33.8654 341.892 28.131 340.611 21.4432L340.596 21.3613L340.597 21.3623Z"/>
  <path class="stroke-color" stroke-miterlimit="10" d="M340.597 21.3623C338.551 10.9575 349.121 9.62524 357.405 9.37129C364.767 9.17775 372.771 9.29961 379.9 9.27913C427.316 7.54857 470.241 26.7516 493.528 67.5232C496.11 72.0892 498.293 78.3705 497.327 83.0696C496.343 89.0979 490.686 92.3429 485.077 93.6721C443.512 103.794 386.707 91.9774 350.276 39.867C345.916 33.8654 341.892 28.131 340.611 21.4432L340.596 21.3613L340.597 21.3623Z"/>
  
  <path class="fill-color" d="M495.151 159.145C513.459 174.632 464.191 201.871 452.804 209.157C440.812 216.416 428.293 224.163 416.323 231.071C406.393 236.782 396.674 241.961 386.059 245.55C365.492 252.79 343.624 251.194 324.617 242.158C310.719 235.655 300.918 224.211 292.68 211.341C271.028 177.399 249.402 141.834 224.669 102.351C215.012 86.8035 206.794 73.6441 198.646 60.5195C192.287 50.3542 185.398 38.4973 183.16 31.3426C180.775 24.5289 181.215 17.9467 189.014 14.4016C197.096 10.7694 204.61 10.0782 215.279 8.89348C236.857 7.10148 262.443 8.21969 280.619 18.7065C293.708 26.4786 300.407 39.8152 308.167 52.52C332.553 95.5024 374.651 137.204 434.558 143.846C453.29 146.682 482.332 149.165 495.109 159.108L495.151 159.144V159.145Z"/>
  <path class="stroke-color" stroke-miterlimit="10" d="M495.151 159.145C513.459 174.632 464.191 201.871 452.804 209.157C440.812 216.416 428.293 224.163 416.323 231.071C406.393 236.782 396.674 241.961 386.059 245.55C365.492 252.79 343.624 251.194 324.617 242.158C310.719 235.655 300.918 224.211 292.68 211.341C271.028 177.399 249.402 141.834 224.669 102.351C215.012 86.8035 206.794 73.6441 198.646 60.5195C192.287 50.3542 185.398 38.4973 183.16 31.3426C180.775 24.5289 181.215 17.9467 189.014 14.4016C197.096 10.7694 204.61 10.0782 215.279 8.89348C236.857 7.10148 262.443 8.21969 280.619 18.7065C293.708 26.4786 300.407 39.8152 308.167 52.52C332.553 95.5024 374.651 137.204 434.558 143.846C453.29 146.682 482.332 149.165 495.109 159.108L495.151 159.144V159.145Z"/>
  
  <path class="fill-color" d="M502.977 258.842C504.59 261.665 505.496 265.345 505.717 269.468C506.118 277.706 503.973 286.705 500.131 294.231C491.962 310.906 476.213 320.813 461.497 332.141C429.298 357.017 400.337 384.09 374.073 417.432C367.115 426.267 360.591 435.511 354.324 444.867C344.841 458.827 336.422 472.624 324.197 483.003C316.028 489.96 306.5 495.375 296.112 497.987C282.002 501.764 264.429 499.459 253.92 491.291C249.905 488.18 247.583 484.377 246.235 480.045C245.058 476.296 244.481 472.154 243.959 467.855C236.855 399.905 214.388 303.265 130.588 177.616C111.014 148.581 89.7007 120.092 68.0687 93.9132C56.1903 78.9771 40.7382 65.2371 43.8122 46.9177C47.8181 26.918 77.3728 13.8681 95.8796 13.6541C113.109 13.4647 120.929 28.4775 128.653 41.6841C166.257 105.241 236.801 228.932 282.131 303.826C291.221 318.025 306.945 325.06 322.847 329.287C342.515 334.544 364.395 336.198 383.19 327.207C394.908 321.673 405.394 313.482 415.977 305.403C427.01 296.798 438.275 287.805 449.316 279.097C463.253 268.35 473.069 259.998 485.954 254.462C492.276 251.898 499.388 252.282 502.95 258.798L502.976 258.842H502.977Z"/>
  <path class="stroke-color" stroke-miterlimit="10" d="M502.977 258.842C504.59 261.665 505.496 265.345 505.717 269.468C506.118 277.706 503.973 286.705 500.131 294.231C491.962 310.906 476.213 320.813 461.497 332.141C429.298 357.017 400.337 384.09 374.073 417.432C367.115 426.267 360.591 435.511 354.324 444.867C344.841 458.827 336.422 472.624 324.197 483.003C316.028 489.96 306.5 495.375 296.112 497.987C282.002 501.764 264.429 499.459 253.92 491.291C249.905 488.18 247.583 484.377 246.235 480.045C245.058 476.296 244.481 472.154 243.959 467.855C236.855 399.905 214.388 303.265 130.588 177.616C111.014 148.581 89.7007 120.092 68.0687 93.9132C56.1903 78.9771 40.7382 65.2371 43.8122 46.9177C47.8181 26.918 77.3728 13.8681 95.8796 13.6541C113.109 13.4647 120.929 28.4775 128.653 41.6841C166.257 105.241 236.801 228.932 282.131 303.826C291.221 318.025 306.945 325.06 322.847 329.287C342.515 334.544 364.395 336.198 383.19 327.207C394.908 321.673 405.394 313.482 415.977 305.403C427.01 296.798 438.275 287.805 449.316 279.097C463.253 268.35 473.069 259.998 485.954 254.462C492.276 251.898 499.388 252.282 502.95 258.798L502.976 258.842H502.977Z"/>
  
  <path class="fill-color" d="M486.896 380.551C495.197 376.697 499.387 381.925 500.029 389.742C499.929 429.789 475.498 467.033 442.921 485.934C440.034 487.603 436.875 489.215 433.74 490.134C430.834 491.004 427.985 491.177 425.686 490.51C417.349 488.055 418.977 477.971 421.143 471.562C426.91 449.429 448.973 412.238 478.174 386.458C481.064 383.971 484.019 381.857 486.802 380.593L486.896 380.55V380.551Z"/>
  <path class="stroke-color" stroke-miterlimit="10" d="M486.896 380.551C495.197 376.697 499.387 381.925 500.029 389.742C499.929 429.789 475.498 467.033 442.921 485.934C440.034 487.603 436.875 489.215 433.74 490.134C430.834 491.004 427.985 491.177 425.686 490.51C417.349 488.055 418.977 477.971 421.143 471.562C426.91 449.429 448.973 412.238 478.174 386.458C481.064 383.971 484.019 381.857 486.802 380.593L486.896 380.55V380.551Z"/>
</svg>
