<svg width="48" height="48" viewBox="0 0 48 48" fill="none" xmlns="http://www.w3.org/2000/svg">
<g clip-path="url(#clip0_1678_2215)">
<path d="M2.3291 10.5393C2.70116 10.4898 3.13232 10.6524 3.58789 10.9514C4.04253 11.2498 4.51621 11.6811 4.97168 12.1594C5.65458 12.8767 6.29397 13.6979 6.76562 14.3313L7.17676 14.8918C10.8228 20.0658 14.8908 27.5043 17.1699 35.0715C17.624 36.5785 18.0337 38.2749 18.1533 39.9397C18.2654 41.5007 18.122 43.0317 17.5225 44.3518L17.3965 44.6135C16.158 47.0732 13.2851 47.7006 10.6836 47.0833C7.40594 46.3202 4.37169 44.161 2.68359 41.2561V41.2551C0.981648 38.429 0.637195 34.6187 0.53418 31.05L0.501953 29.5383C0.480687 25.4082 0.419621 20.9866 0.549805 16.8948C0.595881 16.1646 0.640515 14.6286 0.876953 13.2454C0.995198 12.5537 1.16111 11.9027 1.39746 11.4114C1.63287 10.9221 1.93364 10.5998 2.31836 10.5413L2.3291 10.5403V10.5393Z" fill="#1B1B1B" stroke="#1B1B1B" stroke-width="0.0723014"/>
<path d="M35.5332 0.904785C39.9573 0.743306 43.9579 2.53502 46.1279 6.33447C46.2475 6.54585 46.3577 6.79742 46.4268 7.04932C46.4958 7.30154 46.5231 7.55226 46.4795 7.76416V7.76514C46.3911 8.30647 45.881 8.60464 45.3604 8.72803C41.6066 9.64212 36.5186 8.63642 33.1152 4.15381L32.791 3.70947V3.7085L32.4941 3.2915C32.2132 2.87823 31.984 2.46602 31.8945 2.00635L31.8916 1.9917C31.845 1.75465 31.8712 1.573 31.9443 1.43311C32.0177 1.29309 32.1408 1.19025 32.2959 1.11475C32.6082 0.962845 33.0421 0.925457 33.4297 0.913574L33.4287 0.912598C34.1167 0.894509 34.8645 0.906704 35.5322 0.904785H35.5332Z" fill="#1B1B1B" stroke="#1B1B1B" stroke-width="0.0723014"/>
<path d="M20.1377 0.86792C22.1542 0.700438 24.5376 0.807122 26.2275 1.78198C27.4414 2.50285 28.0632 3.73843 28.791 4.93042V4.9314C31.0748 8.95719 35.0207 12.8674 40.6387 13.491V13.4919C41.5167 13.6249 42.6313 13.7485 43.6777 13.9558C44.6595 14.1503 45.5733 14.4169 46.1699 14.8279L46.2852 14.9119L46.2881 14.9138C46.4968 15.0904 46.6065 15.2823 46.6406 15.4822C46.6747 15.6825 46.6331 15.8959 46.5312 16.1179C46.3269 16.5635 45.8833 17.0352 45.3486 17.4861C44.2801 18.3871 42.866 19.1916 42.3311 19.5339C41.2094 20.213 40.0396 20.9371 38.9209 21.5828C37.9927 22.1166 37.0859 22.5998 36.0967 22.9343H36.0957C34.1815 23.6082 32.1464 23.4602 30.377 22.6189C29.0862 22.0149 28.1733 20.9512 27.4043 19.7498C26.3919 18.1625 25.3807 16.5372 24.333 14.8474L21.0439 9.55542C20.1405 8.10087 19.3725 6.87016 18.6104 5.64233C18.015 4.69058 17.3727 3.58559 17.165 2.92163H17.166L17.165 2.92065L17.0957 2.68628C17.0403 2.45506 17.0289 2.23366 17.082 2.03491C17.1524 1.77185 17.337 1.54263 17.6934 1.38062C18.4429 1.04373 19.1396 0.97985 20.1387 0.868896L20.1377 0.86792Z" fill="#1B1B1B" stroke="#1B1B1B" stroke-width="0.0723014"/>
<path d="M47.0429 24.2118C47.1937 24.4759 47.2785 24.8202 47.2991 25.2058C47.3366 25.9763 47.136 26.8181 46.7767 27.5221C46.0126 29.0818 44.5396 30.0085 43.1633 31.068C40.1517 33.3948 37.4431 35.9272 34.9866 39.0459C34.3358 39.8723 33.7256 40.737 33.1395 41.612C32.2525 42.9178 31.4652 44.2084 30.3217 45.1793C29.5577 45.8299 28.6665 46.3365 27.6949 46.5807C26.3753 46.9341 24.7317 46.7185 23.7488 45.9544C23.3732 45.6634 23.1561 45.3077 23.03 44.9025C22.9199 44.5519 22.866 44.1644 22.8172 43.7624C22.1527 37.4065 20.0514 28.3671 12.2137 16.6142C10.383 13.8984 8.38952 11.2336 6.36629 8.78494C5.25532 7.38787 3.81009 6.10267 4.0976 4.38913C4.47227 2.51842 7.2365 1.29777 8.96741 1.27775C10.5789 1.26003 11.3102 2.66429 12.0327 3.89959C15.5498 9.84448 22.1477 21.4142 26.3873 28.4195C27.2375 29.7477 28.7082 30.4057 30.1955 30.8011C32.035 31.2928 34.0814 31.4475 35.8393 30.6065C36.9353 30.0889 37.916 29.3228 38.9058 28.567C39.9378 27.7622 40.9914 26.9209 42.024 26.1065C43.3275 25.1012 44.2456 24.32 45.4507 23.8022C46.042 23.5623 46.7072 23.5983 47.0404 24.2077L47.0428 24.2118H47.0429Z" fill="black"/>
<path d="M47.0429 24.2118C47.1937 24.4759 47.2785 24.8202 47.2991 25.2058C47.3366 25.9763 47.136 26.8181 46.7767 27.5221C46.0126 29.0818 44.5396 30.0085 43.1633 31.068C40.1517 33.3948 37.4431 35.9272 34.9866 39.0459C34.3358 39.8723 33.7256 40.737 33.1395 41.612C32.2525 42.9178 31.4652 44.2084 30.3217 45.1793C29.5577 45.8299 28.6665 46.3365 27.6949 46.5807C26.3753 46.9341 24.7317 46.7185 23.7488 45.9544C23.3732 45.6634 23.1561 45.3077 23.03 44.9025C22.9199 44.5519 22.866 44.1644 22.8172 43.7624C22.1527 37.4065 20.0514 28.3671 12.2137 16.6142C10.383 13.8984 8.38952 11.2336 6.36629 8.78494C5.25532 7.38787 3.81009 6.10267 4.0976 4.38913C4.47227 2.51842 7.2365 1.29777 8.96741 1.27775C10.5789 1.26003 11.3102 2.66429 12.0327 3.89959C15.5498 9.84448 22.1477 21.4142 26.3873 28.4195C27.2375 29.7477 28.7082 30.4057 30.1955 30.8011C32.035 31.2928 34.0814 31.4475 35.8393 30.6065C36.9353 30.0889 37.916 29.3228 38.9058 28.567C39.9378 27.7622 40.9914 26.9209 42.024 26.1065C43.3275 25.1012 44.2456 24.32 45.4507 23.8022C46.042 23.5623 46.7072 23.5983 47.0404 24.2077L47.0428 24.2118H47.0429Z" fill="#1B1B1B" stroke="#1B1B1B" stroke-width="0.0723014" stroke-miterlimit="10"/>
<path d="M45.5537 35.6282C45.9339 35.4516 46.2101 35.487 46.3984 35.6438C46.5895 35.803 46.7014 36.095 46.7314 36.4553H46.7305C46.7213 40.0701 44.5849 43.442 41.6904 45.2512L41.4072 45.4211C41.138 45.5767 40.8455 45.726 40.5566 45.8108C40.2893 45.8908 40.0304 45.9056 39.8242 45.8459C39.6365 45.7907 39.5071 45.6926 39.4199 45.5696C39.3324 45.446 39.2852 45.2946 39.2686 45.1292C39.2353 44.7974 39.3222 44.4173 39.4229 44.1194L39.4238 44.1174C39.9276 42.184 41.7691 39.0106 44.2441 36.6379L44.7471 36.175C44.9489 36.0014 45.1532 35.8484 45.3506 35.7336L45.5449 35.6321L45.5537 35.6282Z" fill="#1B1B1B" stroke="#1B1B1B" stroke-width="0.0723014"/>
</g>
<defs>
<clipPath id="clip0_1678_2215">
<rect width="47.8869" height="47.8909" fill="white"/>
</clipPath>
</defs>
</svg>
