<svg width="533" height="60" viewBox="0 0 533 60" fill="none" xmlns="http://www.w3.org/2000/svg">
<g clip-path="url(#clip0_1544_635)">
<circle cx="29.5631" cy="31.2416" r="14.5631" transform="rotate(-90 29.5631 31.2416)" fill="#9EA1A7" fill-opacity="0.5"/>
<path d="M44.1261 62.9322C44.1261 59.0698 42.5918 55.3657 39.8607 52.6346C37.1296 49.9035 33.4254 48.3691 29.5631 48.3691C25.7007 48.3691 21.9965 49.9035 19.2654 52.6346C16.5343 55.3657 15 59.0698 15 62.9322L29.5631 62.9322L44.1261 62.9322Z" fill="#9EA1A7" fill-opacity="0.5"/>
<path d="M44.1261 -0.436103C44.1261 3.42626 42.5918 7.13043 39.8607 9.86153C37.1296 12.5926 33.4254 14.127 29.5631 14.127C25.7007 14.127 21.9965 12.5926 19.2654 9.86153C16.5343 7.13043 15 3.42626 15 -0.436103L29.5631 -0.436104L44.1261 -0.436103Z" fill="#9EA1A7" fill-opacity="0.5"/>
</g>
<path d="M176.868 30.8403C176.868 46.4922 164.18 59.1805 148.528 59.1805C132.876 59.1805 120.188 46.4922 120.188 30.8403C120.188 15.1884 132.876 2.5 148.528 2.5C164.18 2.5 176.868 15.1884 176.868 30.8403ZM126.829 30.8403C126.829 42.8239 136.544 52.5386 148.528 52.5386C160.511 52.5386 170.226 42.8239 170.226 30.8403C170.226 18.8566 160.511 9.14197 148.528 9.14197C136.544 9.14197 126.829 18.8566 126.829 30.8403Z" fill="#E2DED3" fill-opacity="0.5"/>
<rect x="240.383" y="28.75" width="26.25" height="26.25" rx="0.772059" fill="#555C4C" fill-opacity="0.5"/>
<rect x="266.633" y="2.5" width="26.25" height="26.25" rx="0.772059" fill="#555C4C" fill-opacity="0.5"/>
<g clip-path="url(#clip1_1544_635)">
<g clip-path="url(#clip2_1544_635)">
<path d="M384.362 28.8983C349.196 64.0496 349.193 -6.25609 384.362 28.8983C419.529 -6.25285 349.169 -6.31815 384.338 28.8362C419.508 63.9905 419.528 -6.30807 384.362 28.8431C349.196 63.9944 419.532 64.0525 384.362 28.8983Z" fill="#33556E" fill-opacity="0.5"/>
</g>
</g>
<g clip-path="url(#clip3_1544_635)">
<path d="M509.546 28.6796L526.491 38.1099L522.077 45.8512L504.847 35.8579L504.99 55H496.446L496.589 35.8579L479.359 45.8512L474.945 38.1099L492.032 28.6796L474.945 19.3901L479.359 11.508L496.589 21.5013L496.446 2.5H504.99L504.847 21.5013L522.077 11.508L526.491 19.3901L509.546 28.6796Z" fill="#AE8363" fill-opacity="0.5"/>
</g>
<defs>
<clipPath id="clip0_1544_635">
<rect width="61.6901" height="60" fill="white"/>
</clipPath>
<clipPath id="clip1_1544_635">
<rect width="61.6901" height="60" fill="white" transform="translate(353.07)"/>
</clipPath>
<clipPath id="clip2_1544_635">
<rect width="62.5" height="57.6675" fill="white" transform="translate(353.07)"/>
</clipPath>
<clipPath id="clip3_1544_635">
<rect width="61.6901" height="60" fill="white" transform="translate(470.758)"/>
</clipPath>
</defs>
</svg>
