<svg width="1066" height="174" viewBox="0 0 1066 174" fill="none" xmlns="http://www.w3.org/2000/svg">
<mask id="path-1-outside-1_1493_1137" maskUnits="userSpaceOnUse" x="-0.5" y="-0.884766" width="1068" height="279" fill="black">
<rect fill="white" x="-0.5" y="-0.884766" width="1068" height="279"/>
<path d="M70.6084 212.186C57.5834 212.186 45.8966 208.974 35.548 202.551C25.1994 195.949 16.9919 187.117 10.9255 176.055C5.03746 164.814 2.09346 152.146 2.09346 138.051C2.09346 123.955 5.30509 111.287 11.7284 100.046C18.3301 88.8054 27.1621 79.9734 38.2244 73.5501C49.4651 66.9484 62.044 63.6476 75.9611 63.6476C89.8782 63.6476 102.368 66.9484 113.43 73.5501C124.493 79.9734 133.235 88.8054 139.659 100.046C146.26 111.287 149.561 123.955 149.561 138.051H139.123C139.123 152.146 136.09 164.814 130.024 176.055C124.136 187.117 116.017 195.949 105.669 202.551C95.3201 208.974 83.6333 212.186 70.6084 212.186ZM75.9611 188.099C85.0607 188.099 93.179 185.957 100.316 181.675C107.453 177.215 113.073 171.237 117.177 163.744C121.281 156.071 123.333 147.507 123.333 138.051C123.333 128.416 121.281 119.851 117.177 112.357C113.073 104.685 107.453 98.7079 100.316 94.4258C93.179 89.9652 85.0607 87.7349 75.9611 87.7349C67.0399 87.7349 58.9216 89.9652 51.6062 94.4258C44.4692 98.7079 38.7596 104.685 34.4775 112.357C30.3737 119.851 28.3218 128.416 28.3218 138.051C28.3218 147.507 30.3737 156.071 34.4775 163.744C38.7596 171.237 44.4692 177.215 51.6062 181.675C58.9216 185.957 67.0399 188.099 75.9611 188.099ZM135.912 211.383C131.986 211.383 128.685 210.134 126.009 207.636C123.511 204.96 122.262 201.659 122.262 197.733V156.785L127.347 128.416L149.561 138.051V197.733C149.561 201.659 148.223 204.96 145.547 207.636C143.049 210.134 139.837 211.383 135.912 211.383ZM258.972 212.186C244.163 212.186 230.959 209.063 219.362 202.819C207.943 196.395 198.932 187.652 192.331 176.59C185.907 165.349 182.696 152.503 182.696 138.051C182.696 123.42 185.729 110.573 191.795 99.5109C198.04 88.2701 206.605 79.5273 217.488 73.2825C228.372 66.8592 240.862 63.6476 254.958 63.6476C268.875 63.6476 280.829 66.77 290.821 73.0149C300.813 79.0813 308.396 87.5564 313.57 98.4403C318.923 109.146 321.599 121.546 321.599 135.642C321.599 139.032 320.439 141.887 318.12 144.206C315.8 146.347 312.856 147.418 309.288 147.418H201.43V126.007H308.485L297.512 133.501C297.333 124.579 295.549 116.64 292.159 109.681C288.769 102.544 283.952 96.9237 277.707 92.8199C271.462 88.7162 263.879 86.6643 254.958 86.6643C244.787 86.6643 236.045 88.8946 228.729 93.3552C221.592 97.8158 216.15 103.971 212.403 111.822C208.656 119.494 206.783 128.237 206.783 138.051C206.783 147.864 209.013 156.607 213.474 164.279C217.935 171.951 224.09 178.018 231.941 182.478C239.792 186.939 248.802 189.169 258.972 189.169C264.503 189.169 270.124 188.188 275.833 186.225C281.721 184.084 286.449 181.675 290.018 178.999C292.694 177.036 295.549 176.055 298.582 176.055C301.794 175.876 304.56 176.769 306.879 178.731C309.912 181.408 311.518 184.352 311.696 187.563C311.875 190.775 310.448 193.54 307.414 195.86C301.348 200.677 293.765 204.603 284.665 207.636C275.744 210.669 267.18 212.186 258.972 212.186ZM409.676 211.115C400.755 211.115 392.726 208.885 385.589 204.424C378.452 199.785 372.832 193.54 368.728 185.69C364.624 177.839 362.572 169.007 362.572 159.194V31.5312C362.572 27.6059 363.821 24.3942 366.319 21.8963C368.817 19.3984 372.029 18.1494 375.954 18.1494C379.88 18.1494 383.091 19.3984 385.589 21.8963C388.087 24.3942 389.336 27.6059 389.336 31.5312V159.194C389.336 166.331 391.299 172.308 395.224 177.125C399.149 181.943 403.967 184.352 409.676 184.352H418.776C421.988 184.352 424.664 185.601 426.805 188.099C429.125 190.596 430.284 193.808 430.284 197.733C430.284 201.659 428.768 204.87 425.735 207.368C422.88 209.866 419.133 211.115 414.494 211.115H409.676ZM350.261 93.0876C346.514 93.0876 343.481 92.017 341.162 89.876C338.842 87.7349 337.682 85.0585 337.682 81.8469C337.682 78.2784 338.842 75.4236 341.162 73.2825C343.481 71.1414 346.514 70.0709 350.261 70.0709H412.085C415.832 70.0709 418.865 71.1414 421.185 73.2825C423.504 75.4236 424.664 78.2784 424.664 81.8469C424.664 85.0585 423.504 87.7349 421.185 89.876C418.865 92.017 415.832 93.0876 412.085 93.0876H350.261ZM477.487 157.856C473.561 157.856 470.261 156.607 467.584 154.109C465.086 151.432 463.837 148.131 463.837 144.206V15.7407C463.837 11.6369 465.086 8.33606 467.584 5.83812C470.261 3.34018 473.561 2.09121 477.487 2.09121C481.591 2.09121 484.891 3.34018 487.389 5.83812C489.887 8.33606 491.136 11.6369 491.136 15.7407V144.206C491.136 148.131 489.887 151.432 487.389 154.109C484.891 156.607 481.591 157.856 477.487 157.856ZM587.485 211.383C583.56 211.383 580.259 210.134 577.583 207.636C575.085 204.96 573.836 201.659 573.836 197.733V131.895C573.836 121.725 571.962 113.428 568.215 107.005C564.469 100.581 559.383 95.8532 552.96 92.8199C546.715 89.6083 539.489 88.0025 531.282 88.0025C523.788 88.0025 517.008 89.5191 510.941 92.5523C504.875 95.5855 500.057 99.6893 496.489 104.864C492.92 109.859 491.136 115.658 491.136 122.26H474.275C474.275 111.019 476.951 101.027 482.304 92.2847C487.835 83.3635 495.329 76.3157 504.786 71.1414C514.242 65.9671 524.858 63.3799 536.634 63.3799C548.946 63.3799 559.919 66.0563 569.554 71.409C579.367 76.5833 587.039 84.2556 592.57 94.4258C598.28 104.596 601.135 117.086 601.135 131.895V197.733C601.135 201.659 599.797 204.96 597.12 207.636C594.622 210.134 591.411 211.383 587.485 211.383ZM477.487 211.383C473.561 211.383 470.261 210.134 467.584 207.636C465.086 204.96 463.837 201.659 463.837 197.733V78.3676C463.837 74.2638 465.086 70.963 467.584 68.465C470.261 65.9671 473.561 64.7181 477.487 64.7181C481.591 64.7181 484.891 65.9671 487.389 68.465C489.887 70.963 491.136 74.2638 491.136 78.3676V197.733C491.136 201.659 489.887 204.96 487.389 207.636C484.891 210.134 481.591 211.383 477.487 211.383ZM715.313 212.186C700.504 212.186 687.3 209.063 675.703 202.819C664.284 196.395 655.273 187.652 648.672 176.59C642.248 165.349 639.037 152.503 639.037 138.051C639.037 123.42 642.07 110.573 648.136 99.5109C654.381 88.2701 662.946 79.5273 673.829 73.2825C684.713 66.8592 697.203 63.6476 711.299 63.6476C725.216 63.6476 737.17 66.77 747.162 73.0149C757.154 79.0813 764.737 87.5564 769.911 98.4403C775.264 109.146 777.94 121.546 777.94 135.642C777.94 139.032 776.78 141.887 774.461 144.206C772.141 146.347 769.197 147.418 765.629 147.418H657.771V126.007H764.826L753.853 133.501C753.674 124.579 751.89 116.64 748.5 109.681C745.11 102.544 740.292 96.9237 734.048 92.8199C727.803 88.7162 720.22 86.6643 711.299 86.6643C701.128 86.6643 692.386 88.8946 685.07 93.3552C677.933 97.8158 672.491 103.971 668.744 111.822C664.997 119.494 663.124 128.237 663.124 138.051C663.124 147.864 665.354 156.607 669.815 164.279C674.275 171.951 680.431 178.018 688.282 182.478C696.132 186.939 705.143 189.169 715.313 189.169C720.844 189.169 726.465 188.188 732.174 186.225C738.062 184.084 742.79 181.675 746.359 178.999C749.035 177.036 751.89 176.055 754.923 176.055C758.135 175.876 760.9 176.769 763.22 178.731C766.253 181.408 767.859 184.352 768.037 187.563C768.216 190.775 766.788 193.54 763.755 195.86C757.689 200.677 750.106 204.603 741.006 207.636C732.085 210.669 723.521 212.186 715.313 212.186ZM825.872 119.584C825.872 108.878 828.459 99.3324 833.633 90.9465C838.986 82.3821 846.123 75.602 855.044 70.6061C863.966 65.6102 873.779 63.1123 884.484 63.1123C895.19 63.1123 903.13 64.8965 908.304 68.465C913.657 71.8551 915.709 75.9589 914.46 80.7763C913.924 83.2743 912.854 85.2369 911.248 86.6643C909.821 87.9133 908.126 88.7162 906.163 89.073C904.2 89.4299 902.059 89.3407 899.74 88.8054C888.32 86.4859 878.061 86.3075 868.961 88.2701C859.862 90.2328 852.636 93.8905 847.283 99.2432C842.109 104.596 839.521 111.376 839.521 119.584H825.872ZM826.14 211.115C821.857 211.115 818.557 210.045 816.237 207.904C813.918 205.584 812.758 202.194 812.758 197.733V78.0999C812.758 73.8178 813.918 70.5169 816.237 68.1974C818.557 65.8779 821.857 64.7181 826.14 64.7181C830.6 64.7181 833.901 65.8779 836.042 68.1974C838.362 70.3385 839.521 73.6393 839.521 78.0999V197.733C839.521 202.016 838.362 205.316 836.042 207.636C833.901 209.955 830.6 211.115 826.14 211.115ZM969.145 275.348C967.361 275.348 965.22 274.813 962.722 273.742C954.871 270.174 952.73 264.553 956.299 256.881L1037.93 72.4796C1041.5 64.9858 1047.12 62.8447 1054.79 66.0563C1062.82 69.4464 1065.05 75.0667 1061.48 82.9174L979.583 267.051C977.442 272.582 973.963 275.348 969.145 275.348ZM1000.73 205.227C997.336 206.655 994.125 206.833 991.091 205.763C988.237 204.514 985.917 202.194 984.133 198.804L922.844 82.3821C921.06 78.9921 920.792 75.7804 922.041 72.7472C923.469 69.5356 925.877 67.2161 929.267 65.7887C932.657 64.3613 935.869 64.2721 938.902 65.521C941.936 66.5916 944.255 68.8219 945.861 72.2119L1004.47 188.634C1006.26 192.024 1006.88 195.325 1006.35 198.536C1005.99 201.57 1004.12 203.8 1000.73 205.227Z"/>
</mask>
<path d="M35.548 202.551L34.4235 204.314L34.4344 204.321L34.4453 204.327L35.548 202.551ZM10.9255 176.055L9.07327 177.025L9.08253 177.043L9.09212 177.06L10.9255 176.055ZM11.7284 100.046L9.92541 98.9872L9.91911 98.998L9.91295 99.0088L11.7284 100.046ZM38.2244 73.5501L39.2743 75.3584L39.2833 75.3531L38.2244 73.5501ZM113.43 73.5501L112.359 75.3456L112.369 75.352L112.38 75.3583L113.43 73.5501ZM139.659 100.046L137.843 101.084L137.849 101.094L137.856 101.105L139.659 100.046ZM149.561 138.051V140.141H151.652V138.051H149.561ZM139.123 138.051V135.96H137.032V138.051H139.123ZM130.024 176.055L128.184 175.062L128.178 175.072L130.024 176.055ZM105.669 202.551L106.771 204.327L106.782 204.321L106.793 204.314L105.669 202.551ZM100.316 181.675L101.392 183.468L101.408 183.458L101.424 183.448L100.316 181.675ZM117.177 163.744L119.011 164.748L119.016 164.739L119.021 164.73L117.177 163.744ZM117.177 112.357L115.333 113.344L115.338 113.353L115.343 113.362L117.177 112.357ZM100.316 94.4258L99.2078 96.1989L99.224 96.2089L99.2402 96.2187L100.316 94.4258ZM51.6062 94.4258L52.682 96.2187L52.6884 96.2149L52.6947 96.211L51.6062 94.4258ZM34.4775 112.357L32.6517 111.338L32.6476 111.346L32.6435 111.353L34.4775 112.357ZM34.4775 163.744L32.6337 164.73L32.6475 164.756L32.662 164.781L34.4775 163.744ZM51.6062 181.675L50.498 183.448L50.5237 183.464L50.5499 183.48L51.6062 181.675ZM126.009 207.636L124.481 209.063L124.53 209.115L124.582 209.165L126.009 207.636ZM122.262 156.785L120.204 156.416L120.171 156.599V156.785H122.262ZM127.347 128.416L128.179 126.497L125.755 125.446L125.289 128.047L127.347 128.416ZM149.561 138.051H151.652V136.678L150.393 136.132L149.561 138.051ZM145.547 207.636L147.025 209.114V209.114L145.547 207.636ZM70.6084 212.186V210.095C57.9449 210.095 46.6451 206.978 36.6507 200.774L35.548 202.551L34.4453 204.327C45.1482 210.971 57.2219 214.277 70.6084 214.277V212.186ZM35.548 202.551L36.6725 200.788C26.6285 194.381 18.6612 185.813 12.7588 175.049L10.9255 176.055L9.09212 177.06C15.3226 188.422 23.7703 197.518 34.4235 204.314L35.548 202.551ZM10.9255 176.055L12.7777 175.085C7.06321 164.175 4.18437 151.846 4.18437 138.051H2.09346H0.00254726C0.00254726 152.446 3.01171 165.453 9.07327 177.025L10.9255 176.055ZM2.09346 138.051H4.18437C4.18437 124.286 7.31685 111.981 13.5438 101.084L11.7284 100.046L9.91295 99.0088C3.29334 110.593 0.00254726 123.624 0.00254726 138.051H2.09346ZM11.7284 100.046L13.5313 101.105C19.9543 90.1685 28.5295 81.5972 39.2743 75.3583L38.2244 73.5501L37.1744 71.7419C25.7947 78.3496 16.7058 87.4423 9.92541 98.9872L11.7284 100.046ZM38.2244 73.5501L39.2833 75.3531C50.1812 68.9527 62.3902 65.7385 75.9611 65.7385V63.6476V61.5567C61.6978 61.5567 48.749 64.9441 37.1655 71.7472L38.2244 73.5501ZM75.9611 63.6476V65.7385C89.5323 65.7385 101.646 68.9527 112.359 75.3456L113.43 73.5501L114.502 71.7546C103.09 64.9441 90.2241 61.5567 75.9611 61.5567V63.6476ZM113.43 73.5501L112.38 75.3583C123.12 81.5943 131.6 90.1586 137.843 101.084L139.659 100.046L141.474 99.0088C134.87 87.4522 125.865 78.3526 114.48 71.7419L113.43 73.5501ZM139.659 100.046L137.856 101.105C144.254 111.999 147.47 124.296 147.47 138.051H149.561H151.652C151.652 123.614 148.267 110.575 141.462 98.9872L139.659 100.046ZM149.561 138.051V135.96H139.123V138.051V140.141H149.561V138.051ZM139.123 138.051H137.032C137.032 151.836 134.069 164.157 128.184 175.062L130.024 176.055L131.864 177.048C138.111 165.471 141.214 152.456 141.214 138.051H139.123ZM130.024 176.055L128.178 175.072C122.455 185.824 114.583 194.384 104.544 200.788L105.669 202.551L106.793 204.314C117.452 197.514 125.816 188.411 131.869 177.037L130.024 176.055ZM105.669 202.551L104.566 200.774C94.5717 206.978 83.2719 210.095 70.6084 210.095V212.186V214.277C83.9948 214.277 96.0686 210.971 106.771 204.327L105.669 202.551ZM75.9611 188.099V190.189C85.4032 190.189 93.8999 187.963 101.392 183.468L100.316 181.675L99.2402 179.882C92.4582 183.952 84.7183 186.008 75.9611 186.008V188.099ZM100.316 181.675L101.424 183.448C108.87 178.795 114.738 172.551 119.011 164.748L117.177 163.744L115.343 162.739C111.409 169.924 106.036 175.634 99.2078 179.902L100.316 181.675ZM117.177 163.744L119.021 164.73C123.301 156.728 125.424 147.82 125.424 138.051H123.333H121.242C121.242 147.194 119.261 155.414 115.333 162.757L117.177 163.744ZM123.333 138.051H125.424C125.424 128.11 123.304 119.192 119.011 111.353L117.177 112.357L115.343 113.362C119.258 120.51 121.242 128.721 121.242 138.051H123.333ZM117.177 112.357L119.021 111.371C114.747 103.381 108.868 97.1186 101.392 92.6328L100.316 94.4258L99.2402 96.2187C106.038 100.297 111.399 105.989 115.333 113.344L117.177 112.357ZM100.316 94.4258L101.424 92.6527C93.9279 87.9675 85.4195 85.6439 75.9611 85.6439V87.7349V89.8258C84.702 89.8258 92.4302 91.9628 99.2078 96.1989L100.316 94.4258ZM75.9611 87.7349V85.6439C66.6724 85.6439 58.1748 87.9716 50.5176 92.6406L51.6062 94.4258L52.6947 96.211C59.6684 91.9588 67.4073 89.8258 75.9611 89.8258V87.7349ZM51.6062 94.4258L50.5304 92.6328C43.0625 97.1136 37.1017 103.365 32.6517 111.338L34.4775 112.357L36.3032 113.376C40.4176 106.005 45.8759 100.302 52.682 96.2187L51.6062 94.4258ZM34.4775 112.357L32.6435 111.353C28.3506 119.192 26.2309 128.11 26.2309 138.051H28.3218H30.4127C30.4127 128.721 32.3968 120.51 36.3114 113.362L34.4775 112.357ZM28.3218 138.051H26.2309C26.2309 147.82 28.3539 156.728 32.6337 164.73L34.4775 163.744L36.3212 162.757C32.3936 155.414 30.4127 147.194 30.4127 138.051H28.3218ZM34.4775 163.744L32.662 164.781C37.111 172.567 43.0605 178.8 50.498 183.448L51.6062 181.675L52.7144 179.902C45.878 175.629 40.4082 169.908 36.2929 162.706L34.4775 163.744ZM51.6062 181.675L50.5499 183.48C58.2028 187.959 66.6889 190.189 75.9611 190.189V188.099V186.008C67.3909 186.008 59.6404 183.955 52.6625 179.871L51.6062 181.675ZM135.912 211.383V209.292C132.474 209.292 129.695 208.216 127.436 206.107L126.009 207.636L124.582 209.165C127.676 212.051 131.499 213.474 135.912 213.474V211.383ZM126.009 207.636L127.538 206.209C125.429 203.95 124.353 201.171 124.353 197.733H122.262H120.171C120.171 202.146 121.594 205.97 124.481 209.063L126.009 207.636ZM122.262 197.733H124.353V156.785H122.262H120.171V197.733H122.262ZM122.262 156.785L124.32 157.154L129.405 128.784L127.347 128.416L125.289 128.047L120.204 156.416L122.262 156.785ZM127.347 128.416L126.515 130.334L148.729 139.969L149.561 138.051L150.393 136.132L128.179 126.497L127.347 128.416ZM149.561 138.051H147.47V197.733H149.561H151.652V138.051H149.561ZM149.561 197.733H147.47C147.47 201.127 146.336 203.889 144.068 206.157L145.547 207.636L147.025 209.114C150.109 206.03 151.652 202.19 151.652 197.733H149.561ZM145.547 207.636L144.068 206.157C142.008 208.218 139.35 209.292 135.912 209.292V211.383V213.474C140.324 213.474 144.09 212.05 147.025 209.114L145.547 207.636ZM219.362 202.819L218.337 204.641L218.354 204.65L218.371 204.659L219.362 202.819ZM192.331 176.59L190.515 177.628L190.525 177.645L190.535 177.662L192.331 176.59ZM191.795 99.5109L189.968 98.4954L189.962 98.5055L191.795 99.5109ZM217.488 73.2825L218.529 75.0961L218.54 75.0897L218.551 75.0832L217.488 73.2825ZM290.821 73.0148L289.713 74.7879L289.724 74.7951L289.736 74.8021L290.821 73.0148ZM313.57 98.4403L311.682 99.3381L311.69 99.3568L311.7 99.3754L313.57 98.4403ZM318.12 144.206L319.538 145.743L319.569 145.714L319.598 145.685L318.12 144.206ZM201.43 147.418H199.339V149.509H201.43V147.418ZM201.43 126.007V123.916H199.339V126.007H201.43ZM308.485 126.007L309.664 127.734L315.254 123.916H308.485V126.007ZM297.512 133.501L295.421 133.542L295.499 137.408L298.691 135.227L297.512 133.501ZM292.159 109.681L290.27 110.578L290.275 110.587L290.279 110.597L292.159 109.681ZM228.729 93.3552L227.641 91.57L227.631 91.576L227.621 91.5821L228.729 93.3552ZM212.403 111.822L214.282 112.74L214.286 112.731L214.29 112.723L212.403 111.822ZM213.474 164.279L211.666 165.33V165.33L213.474 164.279ZM231.941 182.478L232.974 180.66V180.66L231.941 182.478ZM275.833 186.225L276.513 188.202L276.53 188.196L276.548 188.19L275.833 186.225ZM290.018 178.999L288.781 177.313L288.772 177.319L288.763 177.326L290.018 178.999ZM298.582 176.055V178.146H298.64L298.698 178.143L298.582 176.055ZM306.879 178.731L308.262 177.163L308.246 177.149L308.23 177.135L306.879 178.731ZM311.696 187.563L313.784 187.447L311.696 187.563ZM307.414 195.86L306.144 194.199L306.129 194.211L306.114 194.223L307.414 195.86ZM284.665 207.636L284.004 205.652L283.992 205.656L284.665 207.636ZM258.972 212.186V210.095C244.465 210.095 231.61 207.039 220.353 200.978L219.362 202.819L218.371 204.659C230.309 211.088 243.861 214.277 258.972 214.277V212.186ZM219.362 202.819L220.387 200.996C209.28 194.748 200.538 186.262 194.126 175.519L192.331 176.59L190.535 177.662C197.327 189.043 206.605 198.042 218.337 204.641L219.362 202.819ZM192.331 176.59L194.146 175.553C187.924 164.664 184.787 152.182 184.787 138.051H182.696H180.605C180.605 152.823 183.891 166.035 190.515 177.628L192.331 176.59ZM182.696 138.051H184.787C184.787 123.715 187.757 111.224 193.629 100.516L191.795 99.5109L189.962 98.5055C183.701 109.922 180.605 123.125 180.605 138.051H182.696ZM191.795 99.5109L193.623 100.526C199.688 89.6096 207.984 81.1466 218.529 75.0961L217.488 73.2825L216.448 71.4689C205.225 77.9081 196.392 86.9306 189.968 98.4954L191.795 99.5109ZM217.488 73.2825L218.551 75.0832C229.077 68.8712 241.192 65.7385 254.958 65.7385V63.6476V61.5567C240.532 61.5567 227.668 64.8473 216.426 71.4818L217.488 73.2825ZM254.958 63.6476V65.7385C268.555 65.7385 280.109 68.7859 289.713 74.7879L290.821 73.0148L291.929 71.2418C281.549 64.7542 269.195 61.5567 254.958 61.5567V63.6476ZM290.821 73.0148L289.736 74.8021C299.367 80.6499 306.677 88.8106 311.682 99.3381L313.57 98.4403L315.458 97.5426C310.115 86.3022 302.258 77.5126 291.906 71.2276L290.821 73.0148ZM313.57 98.4403L311.7 99.3754C316.884 109.743 319.508 121.813 319.508 135.642H321.599H323.69C323.69 121.279 320.962 108.548 315.44 97.5052L313.57 98.4403ZM321.599 135.642H319.508C319.508 138.498 318.554 140.815 316.641 142.728L318.12 144.206L319.598 145.685C322.324 142.959 323.69 139.566 323.69 135.642H321.599ZM318.12 144.206L316.702 142.67C314.819 144.407 312.404 145.327 309.288 145.327V147.418V149.509C313.308 149.509 316.781 148.287 319.538 145.743L318.12 144.206ZM309.288 147.418V145.327H201.43V147.418V149.509H309.288V147.418ZM201.43 147.418H203.521V126.007H201.43H199.339V147.418H201.43ZM201.43 126.007V128.098H308.485V126.007V123.916H201.43V126.007ZM308.485 126.007L307.306 124.28L296.333 131.774L297.512 133.501L298.691 135.227L309.664 127.734L308.485 126.007ZM297.512 133.501L299.602 133.459C299.419 124.281 297.58 116.035 294.039 108.765L292.159 109.681L290.279 110.597C293.518 117.244 295.248 124.878 295.421 133.542L297.512 133.501ZM292.159 109.681L294.048 108.784C290.503 101.322 285.438 95.3988 278.855 91.0726L277.707 92.8199L276.558 94.5673C282.465 98.4486 287.035 103.766 290.27 110.578L292.159 109.681ZM277.707 92.8199L278.855 91.0726C272.208 86.7043 264.207 84.5734 254.958 84.5734V86.6643V88.7552C263.551 88.7552 270.716 90.7281 276.558 94.5673L277.707 92.8199ZM254.958 86.6643V84.5734C244.476 84.5734 235.341 86.8748 227.641 91.57L228.729 93.3552L229.818 95.1404C236.748 90.9144 245.099 88.7552 254.958 88.7552V86.6643ZM228.729 93.3552L227.621 91.5821C220.135 96.2609 214.429 102.725 210.516 110.922L212.403 111.822L214.29 112.723C217.872 105.218 223.049 99.3708 229.837 95.1283L228.729 93.3552ZM212.403 111.822L210.525 110.905C206.619 118.902 204.692 127.967 204.692 138.051H206.783H208.874C208.874 128.508 210.694 120.086 214.282 112.74L212.403 111.822ZM206.783 138.051H204.692C204.692 148.193 207.001 157.305 211.666 165.33L213.474 164.279L215.282 163.228C211.026 155.908 208.874 147.535 208.874 138.051H206.783ZM213.474 164.279L211.666 165.33C216.316 173.328 222.742 179.656 230.908 184.296L231.941 182.478L232.974 180.66C225.439 176.379 219.553 170.575 215.282 163.228L213.474 164.279ZM231.941 182.478L230.908 184.296C239.112 188.957 248.486 191.26 258.972 191.26V189.169V187.078C249.117 187.078 240.471 184.92 232.974 180.66L231.941 182.478ZM258.972 189.169V191.26C264.755 191.26 270.605 190.233 276.513 188.202L275.833 186.225L275.154 184.248C269.643 186.142 264.252 187.078 258.972 187.078V189.169ZM275.833 186.225L276.548 188.19C282.557 186.005 287.488 183.51 291.272 180.672L290.018 178.999L288.763 177.326C285.411 179.84 280.885 182.163 275.119 184.26L275.833 186.225ZM290.018 178.999L291.254 180.685C293.608 178.959 296.036 178.146 298.582 178.146V176.055V173.964C295.062 173.964 291.781 175.113 288.781 177.313L290.018 178.999ZM298.582 176.055L298.698 178.143C301.411 177.992 303.643 178.732 305.528 180.327L306.879 178.731L308.23 177.135C305.476 174.805 302.177 173.761 298.466 173.967L298.582 176.055ZM306.879 178.731L305.496 180.299C308.223 182.706 309.469 185.162 309.609 187.679L311.696 187.563L313.784 187.447C313.567 183.541 311.601 180.109 308.262 177.163L306.879 178.731ZM311.696 187.563L309.609 187.679C309.741 190.063 308.746 192.21 306.144 194.199L307.414 195.86L308.684 197.521C312.149 194.871 314.009 191.486 313.784 187.447L311.696 187.563ZM307.414 195.86L306.114 194.223C300.278 198.857 292.925 202.679 284.004 205.652L284.665 207.636L285.326 209.62C294.605 206.527 302.418 202.498 308.715 197.497L307.414 195.86ZM284.665 207.636L283.992 205.656C275.256 208.627 266.92 210.095 258.972 210.095V212.186V214.277C267.44 214.277 276.232 212.712 285.338 209.616L284.665 207.636ZM385.589 204.424L384.45 206.177L384.465 206.188L384.481 206.197L385.589 204.424ZM368.728 185.69L366.875 186.658V186.658L368.728 185.69ZM385.589 21.8963L387.068 20.4178V20.4178L385.589 21.8963ZM395.224 177.125L396.845 175.805V175.805L395.224 177.125ZM426.805 188.099L425.218 189.459L425.245 189.491L425.273 189.521L426.805 188.099ZM425.735 207.368L424.405 205.754L424.381 205.774L424.358 205.795L425.735 207.368ZM341.162 89.876L339.743 91.4124V91.4124L341.162 89.876ZM341.162 73.2825L339.743 71.7461V71.7461L341.162 73.2825ZM421.185 73.2825L422.603 71.7461V71.7461L421.185 73.2825ZM421.185 89.876L422.603 91.4124V91.4124L421.185 89.876ZM409.676 211.115V209.024C401.123 209.024 393.482 206.891 386.697 202.651L385.589 204.424L384.481 206.197C391.971 210.878 400.388 213.206 409.676 213.206V211.115ZM385.589 204.424L386.729 202.671C379.906 198.236 374.525 192.267 370.581 184.721L368.728 185.69L366.875 186.658C371.138 194.814 376.999 201.334 384.45 206.177L385.589 204.424ZM368.728 185.69L370.581 184.721C366.65 177.201 364.663 168.707 364.663 159.194H362.572H360.482C360.482 169.307 362.599 178.478 366.875 186.658L368.728 185.69ZM362.572 159.194H364.663V31.5312H362.572H360.482V159.194H362.572ZM362.572 31.5312H364.663C364.663 28.0929 365.737 25.4353 367.798 23.3748L366.319 21.8963L364.841 20.4178C361.906 23.3532 360.482 27.1189 360.482 31.5312H362.572ZM366.319 21.8963L367.798 23.3748C369.858 21.3143 372.516 20.2403 375.954 20.2403V18.1494V16.0585C371.542 16.0585 367.776 17.4825 364.841 20.4178L366.319 21.8963ZM375.954 18.1494V20.2403C379.393 20.2403 382.05 21.3143 384.111 23.3748L385.589 21.8963L387.068 20.4178C384.132 17.4825 380.367 16.0585 375.954 16.0585V18.1494ZM385.589 21.8963L384.111 23.3748C386.171 25.4353 387.245 28.0929 387.245 31.5312H389.336H391.427C391.427 27.1189 390.003 23.3532 387.068 20.4178L385.589 21.8963ZM389.336 31.5312H387.245V159.194H389.336H391.427V31.5312H389.336ZM389.336 159.194H387.245C387.245 166.737 389.329 173.201 393.603 178.446L395.224 177.125L396.845 175.805C393.268 171.415 391.427 165.925 391.427 159.194H389.336ZM395.224 177.125L393.603 178.446C397.886 183.702 403.278 186.443 409.676 186.443V184.352V182.261C404.656 182.261 400.413 180.184 396.845 175.805L395.224 177.125ZM409.676 184.352V186.443H418.776V184.352V182.261H409.676V184.352ZM418.776 184.352V186.443C421.36 186.443 423.463 187.412 425.218 189.459L426.805 188.099L428.393 186.738C425.866 183.789 422.615 182.261 418.776 182.261V184.352ZM426.805 188.099L425.273 189.521C427.179 191.574 428.194 194.25 428.194 197.733H430.284H432.375C432.375 193.366 431.07 189.619 428.337 186.676L426.805 188.099ZM430.284 197.733H428.194C428.194 201.033 426.957 203.653 424.405 205.754L425.735 207.368L427.064 208.982C430.579 206.088 432.375 202.284 432.375 197.733H430.284ZM425.735 207.368L424.358 205.795C421.964 207.889 418.744 209.024 414.494 209.024V211.115V213.206C419.522 213.206 423.795 211.843 427.112 208.942L425.735 207.368ZM414.494 211.115V209.024H409.676V211.115V213.206H414.494V211.115ZM350.261 93.0876V90.9967C346.936 90.9967 344.443 90.0592 342.58 88.3395L341.162 89.876L339.743 91.4124C342.519 93.9749 346.093 95.1785 350.261 95.1785V93.0876ZM341.162 89.876L342.58 88.3395C340.697 86.602 339.773 84.4865 339.773 81.8469H337.682H335.591C335.591 85.6305 336.987 88.8677 339.743 91.4124L341.162 89.876ZM337.682 81.8469H339.773C339.773 78.7779 340.747 76.5105 342.58 74.8189L341.162 73.2825L339.743 71.7461C336.937 74.3366 335.591 77.7789 335.591 81.8469H337.682ZM341.162 73.2825L342.58 74.8189C344.443 73.0993 346.936 72.1618 350.261 72.1618V70.0709V67.9799C346.093 67.9799 342.519 69.1835 339.743 71.7461L341.162 73.2825ZM350.261 70.0709V72.1618H412.085V70.0709V67.9799H350.261V70.0709ZM412.085 70.0709V72.1618C415.411 72.1618 417.904 73.0993 419.767 74.8189L421.185 73.2825L422.603 71.7461C419.827 69.1835 416.253 67.9799 412.085 67.9799V70.0709ZM421.185 73.2825L419.767 74.8189C421.599 76.5105 422.573 78.7779 422.573 81.8469H424.664H426.755C426.755 77.7789 425.409 74.3366 422.603 71.7461L421.185 73.2825ZM424.664 81.8469H422.573C422.573 84.4865 421.649 86.602 419.767 88.3395L421.185 89.876L422.603 91.4124C425.36 88.8677 426.755 85.6305 426.755 81.8469H424.664ZM421.185 89.876L419.767 88.3395C417.904 90.0592 415.411 90.9967 412.085 90.9967V93.0876V95.1785C416.253 95.1785 419.827 93.9749 422.603 91.4124L421.185 89.876ZM412.085 93.0876V90.9967H350.261V93.0876V95.1785H412.085V93.0876ZM467.584 154.109L466.056 155.535L466.105 155.588L466.158 155.637L467.584 154.109ZM467.584 5.83812L466.158 4.30956L466.131 4.33414L466.106 4.35963L467.584 5.83812ZM487.389 154.109L488.868 155.587L488.893 155.562L488.918 155.535L487.389 154.109ZM577.583 207.636L576.054 209.063L576.103 209.115L576.156 209.165L577.583 207.636ZM568.216 107.005L566.409 108.058V108.058L568.216 107.005ZM552.96 92.8199L552.004 94.6794L552.035 94.6955L552.067 94.7106L552.96 92.8199ZM510.941 92.5523L510.006 90.6821V90.6821L510.941 92.5523ZM496.489 104.864L498.19 106.079L498.2 106.065L498.21 106.051L496.489 104.864ZM491.136 122.26V124.351H493.227V122.26H491.136ZM474.275 122.26H472.184V124.351H474.275V122.26ZM482.304 92.2847L480.527 91.1829L480.521 91.1929L482.304 92.2847ZM504.786 71.1414L505.789 72.9757V72.9757L504.786 71.1414ZM569.554 71.409L568.538 73.2368L568.558 73.2479L568.578 73.2586L569.554 71.409ZM592.57 94.4258L590.734 95.4247L590.74 95.4371L590.747 95.4493L592.57 94.4258ZM597.12 207.636L595.642 206.157V206.157L597.12 207.636ZM467.584 207.636L466.056 209.063L466.105 209.115L466.158 209.165L467.584 207.636ZM467.584 68.465L466.158 66.9365L466.131 66.961L466.106 66.9865L467.584 68.465ZM487.389 207.636L488.868 209.114L488.893 209.089L488.918 209.063L487.389 207.636ZM477.487 157.856V155.765C474.049 155.765 471.271 154.689 469.011 152.58L467.584 154.109L466.158 155.637C469.251 158.524 473.074 159.947 477.487 159.947V157.856ZM467.584 154.109L469.113 152.682C467.004 150.422 465.928 147.644 465.928 144.206H463.837H461.746C461.746 148.619 463.169 152.442 466.056 155.535L467.584 154.109ZM463.837 144.206H465.928V15.7407H463.837H461.746V144.206H463.837ZM463.837 15.7407H465.928C465.928 12.0945 467.021 9.35884 469.063 7.31662L467.584 5.83812L466.106 4.35963C463.152 7.31329 461.746 11.1793 461.746 15.7407H463.837ZM467.584 5.83812L469.011 7.3667C471.271 5.25771 474.049 4.18213 477.487 4.18213V2.09122V0.000305176C473.074 0.000305176 469.251 1.42265 466.158 4.30956L467.584 5.83812ZM477.487 2.09122V4.18213C481.133 4.18213 483.869 5.2744 485.911 7.31662L487.389 5.83812L488.868 4.35963C485.914 1.40596 482.048 0.000305176 477.487 0.000305176V2.09122ZM487.389 5.83812L485.911 7.31662C487.953 9.35884 489.045 12.0945 489.045 15.7407H491.136H493.227C493.227 11.1793 491.821 7.31329 488.868 4.35963L487.389 5.83812ZM491.136 15.7407H489.045V144.206H491.136H493.227V15.7407H491.136ZM491.136 144.206H489.045C489.045 147.644 487.97 150.422 485.861 152.682L487.389 154.109L488.918 155.535C491.805 152.442 493.227 148.619 493.227 144.206H491.136ZM487.389 154.109L485.911 152.63C483.869 154.672 481.133 155.765 477.487 155.765V157.856V159.947C482.048 159.947 485.914 158.541 488.868 155.587L487.389 154.109ZM587.485 211.383V209.292C584.048 209.292 581.269 208.216 579.009 206.107L577.583 207.636L576.156 209.165C579.249 212.051 583.072 213.474 587.485 213.474V211.383ZM577.583 207.636L579.111 206.209C577.002 203.95 575.927 201.171 575.927 197.733H573.836H571.745C571.745 202.146 573.167 205.97 576.054 209.063L577.583 207.636ZM573.836 197.733H575.927V131.895H573.836H571.745V197.733H573.836ZM573.836 131.895H575.927C575.927 121.485 574.011 112.791 570.022 105.951L568.216 107.005L566.409 108.058C569.914 114.065 571.745 121.964 571.745 131.895H573.836ZM568.216 107.005L570.022 105.951C566.072 99.1811 560.677 94.1516 553.853 90.9292L552.96 92.8199L552.067 94.7106C558.09 97.5547 562.865 101.982 566.409 108.058L568.216 107.005ZM552.96 92.8199L553.917 90.9605C547.33 87.573 539.766 85.9116 531.282 85.9116V88.0025V90.0934C539.213 90.0934 546.101 91.6436 552.004 94.6794L552.96 92.8199ZM531.282 88.0025V85.9116C523.498 85.9116 516.392 87.4891 510.006 90.6821L510.941 92.5523L511.876 94.4225C517.623 91.5491 524.078 90.0934 531.282 90.0934V88.0025ZM510.941 92.5523L510.006 90.6821C503.65 93.8603 498.552 98.1891 494.768 103.677L496.489 104.864L498.21 106.051C501.563 101.189 506.1 97.3108 511.876 94.4225L510.941 92.5523ZM496.489 104.864L494.788 103.648C490.946 109.026 489.045 115.257 489.045 122.26H491.136H493.227C493.227 116.059 494.895 110.693 498.19 106.079L496.489 104.864ZM491.136 122.26V120.169H474.275V122.26V124.351H491.136V122.26ZM474.275 122.26H476.366C476.366 111.366 478.955 101.759 484.087 93.3764L482.304 92.2847L480.521 91.1929C474.948 100.296 472.184 110.672 472.184 122.26H474.275ZM482.304 92.2847L484.081 93.3865C489.417 84.7806 496.641 77.9816 505.789 72.9757L504.786 71.1414L503.782 69.3071C494.018 74.6499 486.254 81.9463 480.527 91.1829L482.304 92.2847ZM504.786 71.1414L505.789 72.9757C514.91 67.985 525.176 65.4708 536.634 65.4708V63.3799V61.289C524.541 61.289 513.574 63.9492 503.782 69.3071L504.786 71.1414ZM536.634 63.3799V65.4708C548.633 65.4708 559.249 68.0761 568.538 73.2368L569.554 71.409L570.569 69.5813C560.589 64.0365 549.259 61.289 536.634 61.289V63.3799ZM569.554 71.409L568.578 73.2586C578.011 78.2319 585.39 85.6002 590.734 95.4247L592.57 94.4258L594.407 93.4268C588.688 82.911 580.723 74.9348 570.529 69.5595L569.554 71.409ZM592.57 94.4258L590.747 95.4493C596.24 105.234 599.044 117.349 599.044 131.895H601.135H603.226C603.226 116.822 600.32 103.958 594.394 93.4022L592.57 94.4258ZM601.135 131.895H599.044V197.733H601.135H603.226V131.895H601.135ZM601.135 197.733H599.044C599.044 201.127 597.91 203.889 595.642 206.157L597.12 207.636L598.599 209.114C601.683 206.03 603.226 202.19 603.226 197.733H601.135ZM597.12 207.636L595.642 206.157C593.581 208.218 590.924 209.292 587.485 209.292V211.383V213.474C591.898 213.474 595.663 212.05 598.599 209.114L597.12 207.636ZM477.487 211.383V209.292C474.049 209.292 471.271 208.216 469.011 206.107L467.584 207.636L466.158 209.165C469.251 212.051 473.074 213.474 477.487 213.474V211.383ZM467.584 207.636L469.113 206.209C467.004 203.95 465.928 201.171 465.928 197.733H463.837H461.746C461.746 202.146 463.169 205.97 466.056 209.063L467.584 207.636ZM463.837 197.733H465.928V78.3676H463.837H461.746V197.733H463.837ZM463.837 78.3676H465.928C465.928 74.7214 467.021 71.9857 469.063 69.9435L467.584 68.465L466.106 66.9865C463.152 69.9402 461.746 73.8062 461.746 78.3676H463.837ZM467.584 68.465L469.011 69.9936C471.271 67.8846 474.049 66.809 477.487 66.809V64.7181V62.6272C473.074 62.6272 469.251 64.0496 466.158 66.9365L467.584 68.465ZM477.487 64.7181V66.809C481.133 66.809 483.869 67.9013 485.911 69.9435L487.389 68.465L488.868 66.9865C485.914 64.0329 482.048 62.6272 477.487 62.6272V64.7181ZM487.389 68.465L485.911 69.9435C487.953 71.9857 489.045 74.7214 489.045 78.3676H491.136H493.227C493.227 73.8062 491.821 69.9402 488.868 66.9865L487.389 68.465ZM491.136 78.3676H489.045V197.733H491.136H493.227V78.3676H491.136ZM491.136 197.733H489.045C489.045 201.171 487.97 203.95 485.861 206.209L487.389 207.636L488.918 209.063C491.805 205.97 493.227 202.146 493.227 197.733H491.136ZM487.389 207.636L485.911 206.157C483.869 208.2 481.133 209.292 477.487 209.292V211.383V213.474C482.048 213.474 485.914 212.068 488.868 209.114L487.389 207.636ZM675.703 202.819L674.678 204.641L674.695 204.65L674.712 204.659L675.703 202.819ZM648.672 176.59L646.856 177.628L646.866 177.645L646.876 177.662L648.672 176.59ZM648.136 99.5109L646.309 98.4954L646.303 98.5055L648.136 99.5109ZM673.829 73.2825L674.87 75.0961L674.881 75.0897L674.892 75.0832L673.829 73.2825ZM747.162 73.0148L746.054 74.7879L746.065 74.7951L746.077 74.8021L747.162 73.0148ZM769.911 98.4403L768.023 99.3381L768.031 99.3568L768.041 99.3754L769.911 98.4403ZM774.461 144.206L775.879 145.743L775.91 145.714L775.939 145.685L774.461 144.206ZM657.771 147.418H655.68V149.509H657.771V147.418ZM657.771 126.007V123.916H655.68V126.007H657.771ZM764.826 126.007L766.005 127.734L771.595 123.916H764.826V126.007ZM753.853 133.501L751.762 133.542L751.84 137.408L755.032 135.227L753.853 133.501ZM748.5 109.681L746.611 110.578L746.616 110.587L746.62 110.597L748.5 109.681ZM685.07 93.3552L683.982 91.57L683.972 91.576L683.962 91.5821L685.07 93.3552ZM668.744 111.822L670.623 112.74L670.627 112.731L670.631 112.723L668.744 111.822ZM669.815 164.279L668.007 165.33V165.33L669.815 164.279ZM688.282 182.478L689.315 180.66V180.66L688.282 182.478ZM732.174 186.225L732.854 188.202L732.871 188.196L732.889 188.19L732.174 186.225ZM746.359 178.999L745.122 177.313L745.113 177.319L745.104 177.326L746.359 178.999ZM754.923 176.055V178.146H754.981L755.039 178.143L754.923 176.055ZM763.22 178.731L764.603 177.163L764.587 177.149L764.571 177.135L763.22 178.731ZM768.037 187.563L770.125 187.447L768.037 187.563ZM763.755 195.86L762.485 194.199L762.47 194.211L762.455 194.223L763.755 195.86ZM741.006 207.636L740.345 205.652L740.333 205.656L741.006 207.636ZM715.313 212.186V210.095C700.806 210.095 687.951 207.039 676.694 200.978L675.703 202.819L674.712 204.659C686.65 211.088 700.201 214.277 715.313 214.277V212.186ZM675.703 202.819L676.728 200.996C665.621 194.748 656.879 186.262 650.467 175.519L648.672 176.59L646.876 177.662C653.668 189.043 662.946 198.042 674.678 204.641L675.703 202.819ZM648.672 176.59L650.487 175.553C644.265 164.664 641.128 152.182 641.128 138.051H639.037H636.946C636.946 152.823 640.232 166.035 646.856 177.628L648.672 176.59ZM639.037 138.051H641.128C641.128 123.715 644.097 111.224 649.97 100.516L648.136 99.5109L646.303 98.5055C640.042 109.922 636.946 123.125 636.946 138.051H639.037ZM648.136 99.5109L649.964 100.526C656.029 89.6096 664.325 81.1466 674.87 75.0961L673.829 73.2825L672.789 71.4689C661.566 77.9081 652.733 86.9306 646.309 98.4954L648.136 99.5109ZM673.829 73.2825L674.892 75.0832C685.418 68.8712 697.533 65.7385 711.299 65.7385V63.6476V61.5567C696.873 61.5567 684.009 64.8473 672.767 71.4818L673.829 73.2825ZM711.299 63.6476V65.7385C724.896 65.7385 736.45 68.7859 746.054 74.7879L747.162 73.0148L748.27 71.2418C737.89 64.7542 725.536 61.5567 711.299 61.5567V63.6476ZM747.162 73.0148L746.077 74.8021C755.708 80.6499 763.018 88.8106 768.023 99.3381L769.911 98.4403L771.799 97.5426C766.456 86.3022 758.599 77.5126 748.247 71.2276L747.162 73.0148ZM769.911 98.4403L768.041 99.3754C773.225 109.743 775.849 121.813 775.849 135.642H777.94H780.031C780.031 121.279 777.303 108.548 771.781 97.5052L769.911 98.4403ZM777.94 135.642H775.849C775.849 138.498 774.895 140.815 772.982 142.728L774.461 144.206L775.939 145.685C778.665 142.959 780.031 139.566 780.031 135.642H777.94ZM774.461 144.206L773.042 142.67C771.16 144.407 768.745 145.327 765.629 145.327V147.418V149.509C769.649 149.509 773.122 148.287 775.879 145.743L774.461 144.206ZM765.629 147.418V145.327H657.771V147.418V149.509H765.629V147.418ZM657.771 147.418H659.862V126.007H657.771H655.68V147.418H657.771ZM657.771 126.007V128.098H764.826V126.007V123.916H657.771V126.007ZM764.826 126.007L763.647 124.28L752.674 131.774L753.853 133.501L755.032 135.227L766.005 127.734L764.826 126.007ZM753.853 133.501L755.943 133.459C755.76 124.281 753.921 116.035 750.38 108.765L748.5 109.681L746.62 110.597C749.859 117.244 751.589 124.878 751.762 133.542L753.853 133.501ZM748.5 109.681L750.389 108.784C746.844 101.322 741.779 95.3988 735.196 91.0726L734.048 92.8199L732.899 94.5673C738.806 98.4486 743.376 103.766 746.611 110.578L748.5 109.681ZM734.048 92.8199L735.196 91.0726C728.549 86.7043 720.547 84.5734 711.299 84.5734V86.6643V88.7552C719.892 88.7552 727.057 90.7281 732.899 94.5673L734.048 92.8199ZM711.299 86.6643V84.5734C700.817 84.5734 691.682 86.8748 683.982 91.57L685.07 93.3552L686.159 95.1404C693.089 90.9144 701.44 88.7552 711.299 88.7552V86.6643ZM685.07 93.3552L683.962 91.5821C676.476 96.2609 670.77 102.725 666.857 110.922L668.744 111.822L670.631 112.723C674.213 105.218 679.39 99.3708 686.178 95.1283L685.07 93.3552ZM668.744 111.822L666.865 110.905C662.96 118.902 661.033 127.967 661.033 138.051H663.124H665.215C665.215 128.508 667.035 120.086 670.623 112.74L668.744 111.822ZM663.124 138.051H661.033C661.033 148.193 663.342 157.305 668.007 165.33L669.815 164.279L671.622 163.228C667.367 155.908 665.215 147.535 665.215 138.051H663.124ZM669.815 164.279L668.007 165.33C672.657 173.328 679.083 179.656 687.249 184.296L688.282 182.478L689.315 180.66C681.78 176.379 675.894 170.575 671.622 163.228L669.815 164.279ZM688.282 182.478L687.249 184.296C695.453 188.957 704.827 191.26 715.313 191.26V189.169V187.078C705.458 187.078 696.812 184.92 689.315 180.66L688.282 182.478ZM715.313 189.169V191.26C721.096 191.26 726.946 190.233 732.854 188.202L732.174 186.225L731.494 184.248C725.984 186.142 720.593 187.078 715.313 187.078V189.169ZM732.174 186.225L732.889 188.19C738.898 186.005 743.829 183.51 747.613 180.672L746.359 178.999L745.104 177.326C741.752 179.84 737.226 182.163 731.46 184.26L732.174 186.225ZM746.359 178.999L747.595 180.685C749.949 178.959 752.377 178.146 754.923 178.146V176.055V173.964C751.403 173.964 748.122 175.113 745.122 177.313L746.359 178.999ZM754.923 176.055L755.039 178.143C757.752 177.992 759.984 178.732 761.869 180.327L763.22 178.731L764.571 177.135C761.817 174.805 758.518 173.761 754.807 173.967L754.923 176.055ZM763.22 178.731L761.837 180.299C764.564 182.706 765.81 185.162 765.95 187.679L768.037 187.563L770.125 187.447C769.908 183.541 767.942 180.109 764.603 177.163L763.22 178.731ZM768.037 187.563L765.95 187.679C766.082 190.063 765.087 192.21 762.485 194.199L763.755 195.86L765.025 197.521C768.49 194.871 770.349 191.486 770.125 187.447L768.037 187.563ZM763.755 195.86L762.455 194.223C756.619 198.857 749.266 202.679 740.345 205.652L741.006 207.636L741.667 209.62C750.945 206.527 758.759 202.498 765.056 197.497L763.755 195.86ZM741.006 207.636L740.333 205.656C731.597 208.627 723.261 210.095 715.313 210.095V212.186V214.277C723.781 214.277 732.573 212.712 741.679 209.616L741.006 207.636ZM825.872 119.584H823.781V121.674H825.872V119.584ZM833.633 90.9465L831.86 89.8383L831.854 89.8485L833.633 90.9465ZM855.044 70.6061L854.023 68.7818V68.7818L855.044 70.6061ZM908.304 68.465L907.117 70.1863L907.151 70.2095L907.185 70.2315L908.304 68.465ZM914.46 80.7763L912.436 80.2516L912.424 80.2947L912.415 80.3382L914.46 80.7763ZM911.248 86.6643L912.625 88.2379L912.631 88.2325L912.637 88.2271L911.248 86.6643ZM906.163 89.073L905.789 87.0159V87.0159L906.163 89.073ZM899.74 88.8054L900.21 86.768L900.183 86.7618L900.156 86.7563L899.74 88.8054ZM847.283 99.2432L845.804 97.7647L845.792 97.7773L845.779 97.79L847.283 99.2432ZM839.521 119.584V121.674H841.612V119.584H839.521ZM816.237 207.904L814.759 209.382L814.788 209.412L814.819 209.44L816.237 207.904ZM816.237 68.1974L817.716 69.6759V69.6759L816.237 68.1974ZM836.042 68.1974L834.506 69.6156L834.562 69.6771L834.624 69.7338L836.042 68.1974ZM836.042 207.636L834.564 206.157L834.534 206.187L834.506 206.218L836.042 207.636ZM825.872 119.584H827.963C827.963 109.231 830.46 100.072 835.413 92.0444L833.633 90.9465L831.854 89.8485C826.458 98.5929 823.781 108.525 823.781 119.584H825.872ZM833.633 90.9465L835.406 92.0547C840.57 83.7922 847.447 77.2568 856.066 72.4305L855.044 70.6061L854.023 68.7818C844.799 73.9472 837.402 80.972 831.86 89.8383L833.633 90.9465ZM855.044 70.6061L856.066 72.4305C864.66 67.6177 874.119 65.2032 884.484 65.2032V63.1123V61.0214C873.439 61.0214 863.271 63.6028 854.023 68.7818L855.044 70.6061ZM884.484 63.1123V65.2032C895.032 65.2032 902.461 66.975 907.117 70.1863L908.304 68.465L909.491 66.7438C903.799 62.8181 895.347 61.0214 884.484 61.0214V63.1123ZM908.304 68.465L907.185 70.2315C909.657 71.7973 911.184 73.4148 911.987 75.0205C912.767 76.5806 912.945 78.2873 912.436 80.2516L914.46 80.7763L916.484 81.3011C917.223 78.4479 916.999 75.694 915.728 73.1503C914.479 70.6523 912.303 68.5229 909.423 66.6986L908.304 68.465ZM914.46 80.7763L912.415 80.3382C911.955 82.4857 911.073 84.0225 909.859 85.1015L911.248 86.6643L912.637 88.2271C914.635 86.4513 915.894 84.0628 916.504 81.2144L914.46 80.7763ZM911.248 86.6643L909.871 85.0907C908.743 86.0777 907.4 86.723 905.789 87.0159L906.163 89.073L906.537 91.1302C908.851 90.7094 910.898 89.7488 912.625 88.2379L911.248 86.6643ZM906.163 89.073L905.789 87.0159C904.155 87.313 902.305 87.2515 900.21 86.768L899.74 88.8054L899.269 90.8428C901.813 91.4298 904.246 91.5468 906.537 91.1302L906.163 89.073ZM899.74 88.8054L900.156 86.7563C888.523 84.3934 877.964 84.1894 868.521 86.2262L868.961 88.2701L869.402 90.314C878.158 88.4255 888.118 88.5784 899.323 90.8545L899.74 88.8054ZM868.961 88.2701L868.521 86.2262C859.118 88.2541 851.501 92.0685 845.804 97.7647L847.283 99.2432L848.761 100.722C853.771 95.7124 860.605 92.2115 869.402 90.314L868.961 88.2701ZM847.283 99.2432L845.779 97.79C840.188 103.574 837.43 110.894 837.43 119.584H839.521H841.612C841.612 111.858 844.029 105.618 848.786 100.696L847.283 99.2432ZM839.521 119.584V117.493H825.872V119.584V121.674H839.521V119.584ZM826.14 211.115V209.024C822.193 209.024 819.468 208.041 817.655 206.367L816.237 207.904L814.819 209.44C817.645 212.048 821.522 213.206 826.14 213.206V211.115ZM816.237 207.904L817.716 206.425C815.912 204.622 814.849 201.844 814.849 197.733H812.758H810.667C810.667 202.544 811.923 206.546 814.759 209.382L816.237 207.904ZM812.758 197.733H814.849V78.0999H812.758H810.667V197.733H812.758ZM812.758 78.0999H814.849C814.849 74.196 815.897 71.4941 817.716 69.6759L816.237 68.1974L814.759 66.7189C811.938 69.5397 810.667 73.4395 810.667 78.0999H812.758ZM816.237 68.1974L817.716 69.6759C819.534 67.8577 822.236 66.809 826.14 66.809V64.7181V62.6272C821.479 62.6272 817.579 63.8981 814.759 66.7189L816.237 68.1974ZM826.14 64.7181V66.809C830.263 66.809 832.902 67.8778 834.506 69.6156L836.042 68.1974L837.578 66.7792C834.901 63.878 830.937 62.6272 826.14 62.6272V64.7181ZM836.042 68.1974L834.624 69.7338C836.362 71.338 837.43 73.976 837.43 78.0999H839.521H841.612C841.612 73.3027 840.362 69.339 837.46 66.661L836.042 68.1974ZM839.521 78.0999H837.43V197.733H839.521H841.612V78.0999H839.521ZM839.521 197.733H837.43C837.43 201.637 836.382 204.339 834.564 206.157L836.042 207.636L837.521 209.114C840.341 206.294 841.612 202.394 841.612 197.733H839.521ZM836.042 207.636L834.506 206.218C832.902 207.956 830.263 209.024 826.14 209.024V211.115V213.206C830.937 213.206 834.901 211.955 837.578 209.054L836.042 207.636ZM962.722 273.742L961.857 275.646L961.877 275.655L961.898 275.664L962.722 273.742ZM956.299 256.881L958.195 257.763L958.203 257.745L958.211 257.727L956.299 256.881ZM1037.93 72.4796L1036.04 71.5806L1036.03 71.6068L1036.02 71.6332L1037.93 72.4796ZM1054.79 66.0563L1055.6 64.13L1055.6 64.1276L1054.79 66.0563ZM1061.48 82.9174L1059.58 82.0522L1059.57 82.0599L1059.57 82.0677L1061.48 82.9174ZM979.583 267.051L977.673 266.202L977.652 266.249L977.633 266.296L979.583 267.051ZM1000.73 205.227L1001.54 207.154V207.154L1000.73 205.227ZM991.091 205.763L990.253 207.678L990.323 207.709L990.396 207.734L991.091 205.763ZM984.133 198.804L985.983 197.83L985.983 197.83L984.133 198.804ZM922.844 82.3821L920.994 83.356L920.994 83.3561L922.844 82.3821ZM922.041 72.7472L920.131 71.898L920.119 71.9244L920.108 71.9511L922.041 72.7472ZM929.267 65.7887L928.456 63.8616V63.8616L929.267 65.7887ZM938.902 65.521L938.106 67.4545L938.156 67.4749L938.206 67.4927L938.902 65.521ZM945.861 72.2119L943.971 73.107L943.982 73.1297L943.993 73.1522L945.861 72.2119ZM1004.47 188.634L1002.61 189.574L1002.61 189.591L1002.62 189.608L1004.47 188.634ZM1006.35 198.536L1004.28 198.193L1004.28 198.242L1004.27 198.292L1006.35 198.536ZM969.145 275.348V273.257C967.753 273.257 965.906 272.832 963.546 271.82L962.722 273.742L961.898 275.664C964.534 276.793 966.969 277.439 969.145 277.439V275.348ZM962.722 273.742L963.587 271.839C959.945 270.183 957.985 268.214 957.182 266.106C956.383 264.008 956.55 261.299 958.195 257.763L956.299 256.881L954.403 255.999C952.479 260.135 951.932 264.073 953.274 267.595C954.612 271.107 957.648 273.733 961.857 275.646L962.722 273.742ZM956.299 256.881L958.211 257.727L1039.84 73.326L1037.93 72.4796L1036.02 71.6332L954.387 256.035L956.299 256.881ZM1037.93 72.4796L1039.82 73.3785C1041.46 69.9303 1043.42 68.0235 1045.56 67.2073C1047.71 66.3908 1050.45 66.5061 1053.98 67.985L1054.79 66.0563L1055.6 64.1276C1051.46 62.3949 1047.55 61.9749 1044.08 63.2995C1040.6 64.6244 1037.97 67.5351 1036.04 71.5806L1037.93 72.4796ZM1054.79 66.0563L1053.98 67.9825C1057.7 69.5564 1059.71 71.4891 1060.54 73.5854C1061.37 75.6759 1061.23 78.4207 1059.58 82.0522L1061.48 82.9174L1063.38 83.7826C1065.3 79.5634 1065.83 75.5728 1064.43 72.0429C1063.03 68.5188 1059.9 65.9463 1055.6 64.1301L1054.79 66.0563ZM1061.48 82.9174L1059.57 82.0677L977.673 266.202L979.583 267.051L981.494 267.901L1063.39 83.7671L1061.48 82.9174ZM979.583 267.051L977.633 266.296C976.653 268.828 975.434 270.55 974.067 271.637C972.729 272.7 971.124 273.257 969.145 273.257V275.348V277.439C971.984 277.439 974.527 276.613 976.669 274.911C978.781 273.232 980.372 270.806 981.533 267.806L979.583 267.051ZM1000.73 205.227L999.915 203.3C996.931 204.557 994.26 204.663 991.787 203.791L991.091 205.763L990.396 207.734C993.99 209.003 997.742 208.753 1001.54 207.154L1000.73 205.227ZM991.091 205.763L991.93 203.847C989.602 202.828 987.599 200.9 985.983 197.83L984.133 198.804L982.283 199.778C984.236 203.488 986.872 206.199 990.253 207.678L991.091 205.763ZM984.133 198.804L985.983 197.83L924.694 81.4081L922.844 82.3821L920.994 83.3561L982.283 199.778L984.133 198.804ZM922.844 82.3821L924.694 81.4083C923.145 78.4643 923.002 75.9044 923.975 73.5433L922.041 72.7472L920.108 71.9511C918.582 75.6565 918.975 79.5198 920.994 83.356L922.844 82.3821ZM922.041 72.7472L923.952 73.5964C925.152 70.8952 927.154 68.9473 930.079 67.7157L929.267 65.7887L928.456 63.8616C924.601 65.4848 921.785 68.1759 920.131 71.898L922.041 72.7472ZM929.267 65.7887L930.079 67.7157C933.023 66.4759 935.653 66.4443 938.106 67.4545L938.902 65.521L939.698 63.5876C936.085 62.0999 932.292 62.2467 928.456 63.8616L929.267 65.7887ZM938.902 65.521L938.206 67.4927C940.627 68.347 942.561 70.1301 943.971 73.107L945.861 72.2119L947.75 71.3168C945.949 67.5137 943.244 64.8362 939.598 63.5493L938.902 65.521ZM945.861 72.2119L943.993 73.1522L1002.61 189.574L1004.47 188.634L1006.34 187.694L947.728 71.2717L945.861 72.2119ZM1004.47 188.634L1002.62 189.608C1004.23 192.667 1004.73 195.508 1004.28 198.193L1006.35 198.536L1008.41 198.88C1009.03 195.142 1008.28 191.38 1006.32 187.66L1004.47 188.634ZM1006.35 198.536L1004.27 198.292C1004.02 200.413 1002.78 202.094 999.915 203.3L1000.73 205.227L1001.54 207.154C1005.45 205.505 1007.96 202.727 1008.42 198.781L1006.35 198.536Z" fill="#E2DED3" mask="url(#path-1-outside-1_1493_1137)"/>
</svg>
